G04 #@! TF.GenerationSoftware,KiCad,Pcbnew,(5.1.4)-1*
G04 #@! TF.CreationDate,2019-11-05T17:04:05-05:00*
G04 #@! TF.ProjectId,graphic_equalizer_expansion_pi,67726170-6869-4635-9f65-7175616c697a,rev?*
G04 #@! TF.SameCoordinates,Original*
G04 #@! TF.FileFunction,Legend,Top*
G04 #@! TF.FilePolarity,Positive*
%FSLAX46Y46*%
G04 Gerber Fmt 4.6, Leading zero omitted, Abs format (unit mm)*
G04 Created by KiCad (PCBNEW (5.1.4)-1) date 2019-11-05 17:04:05*
%MOMM*%
%LPD*%
G04 APERTURE LIST*
%ADD10C,0.150000*%
%ADD11C,0.010000*%
%ADD12C,0.120000*%
G04 APERTURE END LIST*
D10*
X263317380Y-139441904D02*
X262317380Y-139441904D01*
X263269761Y-139441904D02*
X263317380Y-139537142D01*
X263317380Y-139727619D01*
X263269761Y-139822857D01*
X263222142Y-139870476D01*
X263126904Y-139918095D01*
X262841190Y-139918095D01*
X262745952Y-139870476D01*
X262698333Y-139822857D01*
X262650714Y-139727619D01*
X262650714Y-139537142D01*
X262698333Y-139441904D01*
X263269761Y-138584761D02*
X263317380Y-138680000D01*
X263317380Y-138870476D01*
X263269761Y-138965714D01*
X263174523Y-139013333D01*
X262793571Y-139013333D01*
X262698333Y-138965714D01*
X262650714Y-138870476D01*
X262650714Y-138680000D01*
X262698333Y-138584761D01*
X262793571Y-138537142D01*
X262888809Y-138537142D01*
X262984047Y-139013333D01*
X263269761Y-138156190D02*
X263317380Y-138060952D01*
X263317380Y-137870476D01*
X263269761Y-137775238D01*
X263174523Y-137727619D01*
X263126904Y-137727619D01*
X263031666Y-137775238D01*
X262984047Y-137870476D01*
X262984047Y-138013333D01*
X262936428Y-138108571D01*
X262841190Y-138156190D01*
X262793571Y-138156190D01*
X262698333Y-138108571D01*
X262650714Y-138013333D01*
X262650714Y-137870476D01*
X262698333Y-137775238D01*
X263317380Y-137299047D02*
X262650714Y-137299047D01*
X262317380Y-137299047D02*
X262365000Y-137346666D01*
X262412619Y-137299047D01*
X262365000Y-137251428D01*
X262317380Y-137299047D01*
X262412619Y-137299047D01*
X262650714Y-136394285D02*
X263460238Y-136394285D01*
X263555476Y-136441904D01*
X263603095Y-136489523D01*
X263650714Y-136584761D01*
X263650714Y-136727619D01*
X263603095Y-136822857D01*
X263269761Y-136394285D02*
X263317380Y-136489523D01*
X263317380Y-136680000D01*
X263269761Y-136775238D01*
X263222142Y-136822857D01*
X263126904Y-136870476D01*
X262841190Y-136870476D01*
X262745952Y-136822857D01*
X262698333Y-136775238D01*
X262650714Y-136680000D01*
X262650714Y-136489523D01*
X262698333Y-136394285D01*
X262650714Y-135918095D02*
X263317380Y-135918095D01*
X262745952Y-135918095D02*
X262698333Y-135870476D01*
X262650714Y-135775238D01*
X262650714Y-135632380D01*
X262698333Y-135537142D01*
X262793571Y-135489523D01*
X263317380Y-135489523D01*
X263269761Y-134632380D02*
X263317380Y-134727619D01*
X263317380Y-134918095D01*
X263269761Y-135013333D01*
X263174523Y-135060952D01*
X262793571Y-135060952D01*
X262698333Y-135013333D01*
X262650714Y-134918095D01*
X262650714Y-134727619D01*
X262698333Y-134632380D01*
X262793571Y-134584761D01*
X262888809Y-134584761D01*
X262984047Y-135060952D01*
X263317380Y-133727619D02*
X262317380Y-133727619D01*
X263269761Y-133727619D02*
X263317380Y-133822857D01*
X263317380Y-134013333D01*
X263269761Y-134108571D01*
X263222142Y-134156190D01*
X263126904Y-134203809D01*
X262841190Y-134203809D01*
X262745952Y-134156190D01*
X262698333Y-134108571D01*
X262650714Y-134013333D01*
X262650714Y-133822857D01*
X262698333Y-133727619D01*
X263317380Y-132489523D02*
X262317380Y-132489523D01*
X262698333Y-132489523D02*
X262650714Y-132394285D01*
X262650714Y-132203809D01*
X262698333Y-132108571D01*
X262745952Y-132060952D01*
X262841190Y-132013333D01*
X263126904Y-132013333D01*
X263222142Y-132060952D01*
X263269761Y-132108571D01*
X263317380Y-132203809D01*
X263317380Y-132394285D01*
X263269761Y-132489523D01*
X262650714Y-131680000D02*
X263317380Y-131441904D01*
X262650714Y-131203809D02*
X263317380Y-131441904D01*
X263555476Y-131537142D01*
X263603095Y-131584761D01*
X263650714Y-131680000D01*
X263222142Y-130822857D02*
X263269761Y-130775238D01*
X263317380Y-130822857D01*
X263269761Y-130870476D01*
X263222142Y-130822857D01*
X263317380Y-130822857D01*
X262698333Y-130822857D02*
X262745952Y-130775238D01*
X262793571Y-130822857D01*
X262745952Y-130870476D01*
X262698333Y-130822857D01*
X262793571Y-130822857D01*
X263317380Y-129584761D02*
X262317380Y-129584761D01*
X263317380Y-129013333D02*
X262745952Y-129441904D01*
X262317380Y-129013333D02*
X262888809Y-129584761D01*
X262650714Y-128680000D02*
X263317380Y-128441904D01*
X262650714Y-128203809D02*
X263317380Y-128441904D01*
X263555476Y-128537142D01*
X263603095Y-128584761D01*
X263650714Y-128680000D01*
X263317380Y-127680000D02*
X263269761Y-127775238D01*
X263174523Y-127822857D01*
X262317380Y-127822857D01*
X263269761Y-126918095D02*
X263317380Y-127013333D01*
X263317380Y-127203809D01*
X263269761Y-127299047D01*
X263174523Y-127346666D01*
X262793571Y-127346666D01*
X262698333Y-127299047D01*
X262650714Y-127203809D01*
X262650714Y-127013333D01*
X262698333Y-126918095D01*
X262793571Y-126870476D01*
X262888809Y-126870476D01*
X262984047Y-127346666D01*
X263317380Y-125680000D02*
X262317380Y-125680000D01*
X263317380Y-125108571D02*
X262745952Y-125537142D01*
X262317380Y-125108571D02*
X262888809Y-125680000D01*
X263317380Y-124680000D02*
X262650714Y-124680000D01*
X262841190Y-124680000D02*
X262745952Y-124632380D01*
X262698333Y-124584761D01*
X262650714Y-124489523D01*
X262650714Y-124394285D01*
X263269761Y-123632380D02*
X263317380Y-123727619D01*
X263317380Y-123918095D01*
X263269761Y-124013333D01*
X263222142Y-124060952D01*
X263126904Y-124108571D01*
X262841190Y-124108571D01*
X262745952Y-124060952D01*
X262698333Y-124013333D01*
X262650714Y-123918095D01*
X262650714Y-123727619D01*
X262698333Y-123632380D01*
X263317380Y-123203809D02*
X262650714Y-123203809D01*
X262745952Y-123203809D02*
X262698333Y-123156190D01*
X262650714Y-123060952D01*
X262650714Y-122918095D01*
X262698333Y-122822857D01*
X262793571Y-122775238D01*
X263317380Y-122775238D01*
X262793571Y-122775238D02*
X262698333Y-122727619D01*
X262650714Y-122632380D01*
X262650714Y-122489523D01*
X262698333Y-122394285D01*
X262793571Y-122346666D01*
X263317380Y-122346666D01*
X263317380Y-121441904D02*
X262793571Y-121441904D01*
X262698333Y-121489523D01*
X262650714Y-121584761D01*
X262650714Y-121775238D01*
X262698333Y-121870476D01*
X263269761Y-121441904D02*
X263317380Y-121537142D01*
X263317380Y-121775238D01*
X263269761Y-121870476D01*
X263174523Y-121918095D01*
X263079285Y-121918095D01*
X262984047Y-121870476D01*
X262936428Y-121775238D01*
X262936428Y-121537142D01*
X262888809Y-121441904D01*
X263317380Y-120965714D02*
X262650714Y-120965714D01*
X262841190Y-120965714D02*
X262745952Y-120918095D01*
X262698333Y-120870476D01*
X262650714Y-120775238D01*
X262650714Y-120680000D01*
X263317380Y-120346666D02*
X262650714Y-120346666D01*
X262317380Y-120346666D02*
X262365000Y-120394285D01*
X262412619Y-120346666D01*
X262365000Y-120299047D01*
X262317380Y-120346666D01*
X262412619Y-120346666D01*
X263269761Y-119441904D02*
X263317380Y-119537142D01*
X263317380Y-119727619D01*
X263269761Y-119822857D01*
X263222142Y-119870476D01*
X263126904Y-119918095D01*
X262841190Y-119918095D01*
X262745952Y-119870476D01*
X262698333Y-119822857D01*
X262650714Y-119727619D01*
X262650714Y-119537142D01*
X262698333Y-119441904D01*
X257872142Y-144569523D02*
X257872142Y-145521904D01*
X254872142Y-145521904D01*
X256300714Y-143902857D02*
X256300714Y-143236190D01*
X257872142Y-142950476D02*
X257872142Y-143902857D01*
X254872142Y-143902857D01*
X254872142Y-142950476D01*
X257872142Y-142093333D02*
X254872142Y-142093333D01*
X254872142Y-141617142D01*
X255015000Y-141331428D01*
X255300714Y-141140952D01*
X255586428Y-141045714D01*
X256157857Y-140950476D01*
X256586428Y-140950476D01*
X257157857Y-141045714D01*
X257443571Y-141140952D01*
X257729285Y-141331428D01*
X257872142Y-141617142D01*
X257872142Y-142093333D01*
X257872142Y-137712380D02*
X256300714Y-137712380D01*
X256015000Y-137807619D01*
X255872142Y-137998095D01*
X255872142Y-138379047D01*
X256015000Y-138569523D01*
X257729285Y-137712380D02*
X257872142Y-137902857D01*
X257872142Y-138379047D01*
X257729285Y-138569523D01*
X257443571Y-138664761D01*
X257157857Y-138664761D01*
X256872142Y-138569523D01*
X256729285Y-138379047D01*
X256729285Y-137902857D01*
X256586428Y-137712380D01*
X255872142Y-135902857D02*
X257872142Y-135902857D01*
X255872142Y-136760000D02*
X257443571Y-136760000D01*
X257729285Y-136664761D01*
X257872142Y-136474285D01*
X257872142Y-136188571D01*
X257729285Y-135998095D01*
X257586428Y-135902857D01*
X257872142Y-134093333D02*
X254872142Y-134093333D01*
X257729285Y-134093333D02*
X257872142Y-134283809D01*
X257872142Y-134664761D01*
X257729285Y-134855238D01*
X257586428Y-134950476D01*
X257300714Y-135045714D01*
X256443571Y-135045714D01*
X256157857Y-134950476D01*
X256015000Y-134855238D01*
X255872142Y-134664761D01*
X255872142Y-134283809D01*
X256015000Y-134093333D01*
X257872142Y-133140952D02*
X255872142Y-133140952D01*
X254872142Y-133140952D02*
X255015000Y-133236190D01*
X255157857Y-133140952D01*
X255015000Y-133045714D01*
X254872142Y-133140952D01*
X255157857Y-133140952D01*
X257872142Y-131902857D02*
X257729285Y-132093333D01*
X257586428Y-132188571D01*
X257300714Y-132283809D01*
X256443571Y-132283809D01*
X256157857Y-132188571D01*
X256015000Y-132093333D01*
X255872142Y-131902857D01*
X255872142Y-131617142D01*
X256015000Y-131426666D01*
X256157857Y-131331428D01*
X256443571Y-131236190D01*
X257300714Y-131236190D01*
X257586428Y-131331428D01*
X257729285Y-131426666D01*
X257872142Y-131617142D01*
X257872142Y-131902857D01*
X255872142Y-129140952D02*
X255872142Y-128379047D01*
X254872142Y-128855238D02*
X257443571Y-128855238D01*
X257729285Y-128760000D01*
X257872142Y-128569523D01*
X257872142Y-128379047D01*
X257872142Y-127712380D02*
X255872142Y-127712380D01*
X256443571Y-127712380D02*
X256157857Y-127617142D01*
X256015000Y-127521904D01*
X255872142Y-127331428D01*
X255872142Y-127140952D01*
X257729285Y-125712380D02*
X257872142Y-125902857D01*
X257872142Y-126283809D01*
X257729285Y-126474285D01*
X257443571Y-126569523D01*
X256300714Y-126569523D01*
X256015000Y-126474285D01*
X255872142Y-126283809D01*
X255872142Y-125902857D01*
X256015000Y-125712380D01*
X256300714Y-125617142D01*
X256586428Y-125617142D01*
X256872142Y-126569523D01*
X257729285Y-123998095D02*
X257872142Y-124188571D01*
X257872142Y-124569523D01*
X257729285Y-124760000D01*
X257443571Y-124855238D01*
X256300714Y-124855238D01*
X256015000Y-124760000D01*
X255872142Y-124569523D01*
X255872142Y-124188571D01*
X256015000Y-123998095D01*
X256300714Y-123902857D01*
X256586428Y-123902857D01*
X256872142Y-124855238D01*
D11*
G36*
X248306338Y-129866263D02*
G01*
X248332787Y-129794300D01*
X248398251Y-129690944D01*
X248491318Y-129593925D01*
X248596023Y-129517568D01*
X248684010Y-129479135D01*
X248765570Y-129458762D01*
X248887868Y-129430124D01*
X249046273Y-129394198D01*
X249236154Y-129351961D01*
X249452880Y-129304389D01*
X249691819Y-129252459D01*
X249948342Y-129197146D01*
X250217816Y-129139427D01*
X250495611Y-129080280D01*
X250777096Y-129020680D01*
X251057640Y-128961604D01*
X251332611Y-128904028D01*
X251597379Y-128848929D01*
X251847313Y-128797284D01*
X252077782Y-128750068D01*
X252284155Y-128708259D01*
X252461800Y-128672832D01*
X252606087Y-128644765D01*
X252712385Y-128625034D01*
X252776062Y-128614614D01*
X252790728Y-128613200D01*
X252947999Y-128636175D01*
X253085559Y-128700084D01*
X253198945Y-128797403D01*
X253283696Y-128920609D01*
X253335349Y-129062179D01*
X253349441Y-129214588D01*
X253321510Y-129370314D01*
X253288086Y-129451733D01*
X253216591Y-129560503D01*
X253122602Y-129657506D01*
X253035727Y-129717652D01*
X252998897Y-129729357D01*
X252917368Y-129750515D01*
X252796125Y-129779973D01*
X252640150Y-129816581D01*
X252454426Y-129859185D01*
X252243935Y-129906633D01*
X252013662Y-129957775D01*
X251768588Y-130011456D01*
X251708050Y-130024606D01*
X251462785Y-130078069D01*
X251233236Y-130128646D01*
X251024061Y-130175273D01*
X250839919Y-130216884D01*
X250685469Y-130252416D01*
X250565372Y-130280804D01*
X250484287Y-130300984D01*
X250446872Y-130311892D01*
X250444855Y-130313163D01*
X250465845Y-130329059D01*
X250525879Y-130369104D01*
X250620829Y-130430670D01*
X250746570Y-130511129D01*
X250898973Y-130607853D01*
X251073913Y-130718217D01*
X251267263Y-130839591D01*
X251474895Y-130969349D01*
X251504974Y-130988100D01*
X251717704Y-131121087D01*
X251919474Y-131248007D01*
X252105724Y-131365936D01*
X252271892Y-131471952D01*
X252413419Y-131563130D01*
X252525745Y-131636548D01*
X252604308Y-131689280D01*
X252644548Y-131718404D01*
X252645793Y-131719467D01*
X252742944Y-131835559D01*
X252803579Y-131974677D01*
X252827993Y-132126100D01*
X252816484Y-132279106D01*
X252769349Y-132422974D01*
X252686885Y-132546983D01*
X252621208Y-132606922D01*
X252583729Y-132632338D01*
X252507688Y-132681696D01*
X252397655Y-132752104D01*
X252258199Y-132840666D01*
X252093891Y-132944489D01*
X251909301Y-133060678D01*
X251708998Y-133186340D01*
X251497554Y-133318580D01*
X251487621Y-133324782D01*
X251241140Y-133479032D01*
X251035119Y-133608832D01*
X250866633Y-133716158D01*
X250732756Y-133802986D01*
X250630561Y-133871294D01*
X250557124Y-133923056D01*
X250509518Y-133960249D01*
X250484819Y-133984849D01*
X250480100Y-133998832D01*
X250484321Y-134002460D01*
X250518445Y-134011856D01*
X250597154Y-134030726D01*
X250715357Y-134057933D01*
X250867959Y-134092335D01*
X251049868Y-134132794D01*
X251255992Y-134178168D01*
X251481237Y-134227318D01*
X251714400Y-134277787D01*
X251954658Y-134329766D01*
X252181817Y-134379254D01*
X252390616Y-134425079D01*
X252575793Y-134466071D01*
X252732088Y-134501061D01*
X252854241Y-134528878D01*
X252936990Y-134548351D01*
X252974354Y-134558070D01*
X253100528Y-134624135D01*
X253207973Y-134727847D01*
X253290324Y-134857584D01*
X253341219Y-135001721D01*
X253354291Y-135148634D01*
X253342195Y-135229900D01*
X253282197Y-135378571D01*
X253186544Y-135507730D01*
X253064597Y-135609544D01*
X252925717Y-135676178D01*
X252780710Y-135699800D01*
X252745483Y-135694501D01*
X252664467Y-135679140D01*
X252541494Y-135654522D01*
X252380399Y-135621452D01*
X252185016Y-135580737D01*
X251959177Y-135533182D01*
X251706719Y-135479592D01*
X251431473Y-135420772D01*
X251137274Y-135357528D01*
X250827957Y-135290666D01*
X250670576Y-135256509D01*
X250291763Y-135174240D01*
X249959338Y-135101955D01*
X249670090Y-135038653D01*
X249420810Y-134983332D01*
X249208286Y-134934991D01*
X249029309Y-134892628D01*
X248880667Y-134855241D01*
X248759152Y-134821829D01*
X248661553Y-134791389D01*
X248584660Y-134762921D01*
X248525261Y-134735423D01*
X248480148Y-134707892D01*
X248446109Y-134679327D01*
X248419935Y-134648727D01*
X248398415Y-134615090D01*
X248378340Y-134577414D01*
X248356498Y-134534697D01*
X248356351Y-134534416D01*
X248303142Y-134384568D01*
X248290822Y-134227299D01*
X248317254Y-134073961D01*
X248380298Y-133935906D01*
X248477817Y-133824487D01*
X248492216Y-133813080D01*
X248528998Y-133788035D01*
X248604805Y-133738749D01*
X248715530Y-133667820D01*
X248857066Y-133577847D01*
X249025307Y-133471429D01*
X249216146Y-133351163D01*
X249425477Y-133219648D01*
X249649193Y-133079482D01*
X249847500Y-132955540D01*
X250077297Y-132812047D01*
X250293983Y-132676682D01*
X250493769Y-132551817D01*
X250672865Y-132439823D01*
X250827483Y-132343070D01*
X250953832Y-132263931D01*
X251048124Y-132204775D01*
X251106569Y-132167975D01*
X251125413Y-132155908D01*
X251105915Y-132141639D01*
X251046987Y-132102877D01*
X250952330Y-132041968D01*
X250825646Y-131961256D01*
X250670637Y-131863085D01*
X250491005Y-131749799D01*
X250290451Y-131623745D01*
X250072679Y-131487265D01*
X249842713Y-131343530D01*
X249607983Y-131196578D01*
X249384161Y-131055620D01*
X249175323Y-130923280D01*
X248985547Y-130802180D01*
X248818909Y-130694944D01*
X248679486Y-130604192D01*
X248571356Y-130532548D01*
X248498593Y-130482635D01*
X248466448Y-130458210D01*
X248367313Y-130333134D01*
X248305887Y-130184359D01*
X248284714Y-130024523D01*
X248306338Y-129866263D01*
X248306338Y-129866263D01*
G37*
X248306338Y-129866263D02*
X248332787Y-129794300D01*
X248398251Y-129690944D01*
X248491318Y-129593925D01*
X248596023Y-129517568D01*
X248684010Y-129479135D01*
X248765570Y-129458762D01*
X248887868Y-129430124D01*
X249046273Y-129394198D01*
X249236154Y-129351961D01*
X249452880Y-129304389D01*
X249691819Y-129252459D01*
X249948342Y-129197146D01*
X250217816Y-129139427D01*
X250495611Y-129080280D01*
X250777096Y-129020680D01*
X251057640Y-128961604D01*
X251332611Y-128904028D01*
X251597379Y-128848929D01*
X251847313Y-128797284D01*
X252077782Y-128750068D01*
X252284155Y-128708259D01*
X252461800Y-128672832D01*
X252606087Y-128644765D01*
X252712385Y-128625034D01*
X252776062Y-128614614D01*
X252790728Y-128613200D01*
X252947999Y-128636175D01*
X253085559Y-128700084D01*
X253198945Y-128797403D01*
X253283696Y-128920609D01*
X253335349Y-129062179D01*
X253349441Y-129214588D01*
X253321510Y-129370314D01*
X253288086Y-129451733D01*
X253216591Y-129560503D01*
X253122602Y-129657506D01*
X253035727Y-129717652D01*
X252998897Y-129729357D01*
X252917368Y-129750515D01*
X252796125Y-129779973D01*
X252640150Y-129816581D01*
X252454426Y-129859185D01*
X252243935Y-129906633D01*
X252013662Y-129957775D01*
X251768588Y-130011456D01*
X251708050Y-130024606D01*
X251462785Y-130078069D01*
X251233236Y-130128646D01*
X251024061Y-130175273D01*
X250839919Y-130216884D01*
X250685469Y-130252416D01*
X250565372Y-130280804D01*
X250484287Y-130300984D01*
X250446872Y-130311892D01*
X250444855Y-130313163D01*
X250465845Y-130329059D01*
X250525879Y-130369104D01*
X250620829Y-130430670D01*
X250746570Y-130511129D01*
X250898973Y-130607853D01*
X251073913Y-130718217D01*
X251267263Y-130839591D01*
X251474895Y-130969349D01*
X251504974Y-130988100D01*
X251717704Y-131121087D01*
X251919474Y-131248007D01*
X252105724Y-131365936D01*
X252271892Y-131471952D01*
X252413419Y-131563130D01*
X252525745Y-131636548D01*
X252604308Y-131689280D01*
X252644548Y-131718404D01*
X252645793Y-131719467D01*
X252742944Y-131835559D01*
X252803579Y-131974677D01*
X252827993Y-132126100D01*
X252816484Y-132279106D01*
X252769349Y-132422974D01*
X252686885Y-132546983D01*
X252621208Y-132606922D01*
X252583729Y-132632338D01*
X252507688Y-132681696D01*
X252397655Y-132752104D01*
X252258199Y-132840666D01*
X252093891Y-132944489D01*
X251909301Y-133060678D01*
X251708998Y-133186340D01*
X251497554Y-133318580D01*
X251487621Y-133324782D01*
X251241140Y-133479032D01*
X251035119Y-133608832D01*
X250866633Y-133716158D01*
X250732756Y-133802986D01*
X250630561Y-133871294D01*
X250557124Y-133923056D01*
X250509518Y-133960249D01*
X250484819Y-133984849D01*
X250480100Y-133998832D01*
X250484321Y-134002460D01*
X250518445Y-134011856D01*
X250597154Y-134030726D01*
X250715357Y-134057933D01*
X250867959Y-134092335D01*
X251049868Y-134132794D01*
X251255992Y-134178168D01*
X251481237Y-134227318D01*
X251714400Y-134277787D01*
X251954658Y-134329766D01*
X252181817Y-134379254D01*
X252390616Y-134425079D01*
X252575793Y-134466071D01*
X252732088Y-134501061D01*
X252854241Y-134528878D01*
X252936990Y-134548351D01*
X252974354Y-134558070D01*
X253100528Y-134624135D01*
X253207973Y-134727847D01*
X253290324Y-134857584D01*
X253341219Y-135001721D01*
X253354291Y-135148634D01*
X253342195Y-135229900D01*
X253282197Y-135378571D01*
X253186544Y-135507730D01*
X253064597Y-135609544D01*
X252925717Y-135676178D01*
X252780710Y-135699800D01*
X252745483Y-135694501D01*
X252664467Y-135679140D01*
X252541494Y-135654522D01*
X252380399Y-135621452D01*
X252185016Y-135580737D01*
X251959177Y-135533182D01*
X251706719Y-135479592D01*
X251431473Y-135420772D01*
X251137274Y-135357528D01*
X250827957Y-135290666D01*
X250670576Y-135256509D01*
X250291763Y-135174240D01*
X249959338Y-135101955D01*
X249670090Y-135038653D01*
X249420810Y-134983332D01*
X249208286Y-134934991D01*
X249029309Y-134892628D01*
X248880667Y-134855241D01*
X248759152Y-134821829D01*
X248661553Y-134791389D01*
X248584660Y-134762921D01*
X248525261Y-134735423D01*
X248480148Y-134707892D01*
X248446109Y-134679327D01*
X248419935Y-134648727D01*
X248398415Y-134615090D01*
X248378340Y-134577414D01*
X248356498Y-134534697D01*
X248356351Y-134534416D01*
X248303142Y-134384568D01*
X248290822Y-134227299D01*
X248317254Y-134073961D01*
X248380298Y-133935906D01*
X248477817Y-133824487D01*
X248492216Y-133813080D01*
X248528998Y-133788035D01*
X248604805Y-133738749D01*
X248715530Y-133667820D01*
X248857066Y-133577847D01*
X249025307Y-133471429D01*
X249216146Y-133351163D01*
X249425477Y-133219648D01*
X249649193Y-133079482D01*
X249847500Y-132955540D01*
X250077297Y-132812047D01*
X250293983Y-132676682D01*
X250493769Y-132551817D01*
X250672865Y-132439823D01*
X250827483Y-132343070D01*
X250953832Y-132263931D01*
X251048124Y-132204775D01*
X251106569Y-132167975D01*
X251125413Y-132155908D01*
X251105915Y-132141639D01*
X251046987Y-132102877D01*
X250952330Y-132041968D01*
X250825646Y-131961256D01*
X250670637Y-131863085D01*
X250491005Y-131749799D01*
X250290451Y-131623745D01*
X250072679Y-131487265D01*
X249842713Y-131343530D01*
X249607983Y-131196578D01*
X249384161Y-131055620D01*
X249175323Y-130923280D01*
X248985547Y-130802180D01*
X248818909Y-130694944D01*
X248679486Y-130604192D01*
X248571356Y-130532548D01*
X248498593Y-130482635D01*
X248466448Y-130458210D01*
X248367313Y-130333134D01*
X248305887Y-130184359D01*
X248284714Y-130024523D01*
X248306338Y-129866263D01*
G36*
X248285648Y-138427354D02*
G01*
X248285896Y-136322100D01*
X248347278Y-136190264D01*
X248435107Y-136057296D01*
X248553674Y-135957595D01*
X248693542Y-135893334D01*
X248845278Y-135866685D01*
X248999447Y-135879820D01*
X249146615Y-135934911D01*
X249226232Y-135987889D01*
X249259478Y-136018473D01*
X249325162Y-136082614D01*
X249420387Y-136177376D01*
X249542255Y-136299820D01*
X249687868Y-136447009D01*
X249854328Y-136616004D01*
X250038738Y-136803868D01*
X250238199Y-137007662D01*
X250449815Y-137224449D01*
X250670686Y-137451290D01*
X250742790Y-137525464D01*
X252158900Y-138982828D01*
X252171600Y-137639764D01*
X252174444Y-137344185D01*
X252177057Y-137095059D01*
X252179641Y-136888038D01*
X252182399Y-136718777D01*
X252185533Y-136582930D01*
X252189246Y-136476150D01*
X252193740Y-136394091D01*
X252199219Y-136332408D01*
X252205885Y-136286753D01*
X252213941Y-136252782D01*
X252223590Y-136226147D01*
X252235033Y-136202503D01*
X252238978Y-136195100D01*
X252318987Y-136076195D01*
X252419763Y-135988606D01*
X252527200Y-135930535D01*
X252686294Y-135884025D01*
X252845192Y-135883744D01*
X252995735Y-135925747D01*
X253129766Y-136006090D01*
X253239126Y-136120829D01*
X253315658Y-136266020D01*
X253332272Y-136319760D01*
X253338660Y-136370228D01*
X253344385Y-136466591D01*
X253349447Y-136604027D01*
X253353850Y-136777714D01*
X253357597Y-136982833D01*
X253360689Y-137214560D01*
X253363129Y-137468076D01*
X253364921Y-137738558D01*
X253366066Y-138021186D01*
X253366568Y-138311137D01*
X253366428Y-138603592D01*
X253365650Y-138893728D01*
X253364236Y-139176724D01*
X253362188Y-139447759D01*
X253359509Y-139702012D01*
X253356203Y-139934661D01*
X253352270Y-140140885D01*
X253347715Y-140315863D01*
X253342539Y-140454773D01*
X253336745Y-140552794D01*
X253330337Y-140605105D01*
X253329967Y-140606558D01*
X253265370Y-140759517D01*
X253161376Y-140881371D01*
X253022582Y-140971373D01*
X252926897Y-141012502D01*
X252845139Y-141030123D01*
X252749584Y-141029811D01*
X252736621Y-141028889D01*
X252636146Y-141014525D01*
X252540544Y-140989976D01*
X252498627Y-140973659D01*
X252463472Y-140946924D01*
X252394762Y-140884882D01*
X252293980Y-140789010D01*
X252162608Y-140660784D01*
X252002132Y-140501679D01*
X251814033Y-140313172D01*
X251599795Y-140096737D01*
X251360902Y-139853852D01*
X251098837Y-139585992D01*
X250936527Y-139419483D01*
X249466500Y-137909539D01*
X249453800Y-139262120D01*
X249450984Y-139558533D01*
X249448427Y-139808491D01*
X249445918Y-140016337D01*
X249443249Y-140186413D01*
X249440209Y-140323063D01*
X249436589Y-140430628D01*
X249432179Y-140513451D01*
X249426770Y-140575876D01*
X249420151Y-140622245D01*
X249412113Y-140656900D01*
X249402446Y-140684185D01*
X249390941Y-140708442D01*
X249383260Y-140722991D01*
X249290879Y-140844996D01*
X249162531Y-140941638D01*
X249010236Y-141004222D01*
X248986377Y-141010066D01*
X248834356Y-141020635D01*
X248683511Y-140989503D01*
X248544345Y-140922521D01*
X248427365Y-140825538D01*
X248343076Y-140704404D01*
X248316637Y-140637154D01*
X248310667Y-140604420D01*
X248305435Y-140547021D01*
X248300906Y-140462385D01*
X248297044Y-140347941D01*
X248293812Y-140201117D01*
X248291175Y-140019342D01*
X248289096Y-139800043D01*
X248287540Y-139540650D01*
X248286470Y-139238591D01*
X248285850Y-138891293D01*
X248285644Y-138496186D01*
X248285648Y-138427354D01*
X248285648Y-138427354D01*
G37*
X248285648Y-138427354D02*
X248285896Y-136322100D01*
X248347278Y-136190264D01*
X248435107Y-136057296D01*
X248553674Y-135957595D01*
X248693542Y-135893334D01*
X248845278Y-135866685D01*
X248999447Y-135879820D01*
X249146615Y-135934911D01*
X249226232Y-135987889D01*
X249259478Y-136018473D01*
X249325162Y-136082614D01*
X249420387Y-136177376D01*
X249542255Y-136299820D01*
X249687868Y-136447009D01*
X249854328Y-136616004D01*
X250038738Y-136803868D01*
X250238199Y-137007662D01*
X250449815Y-137224449D01*
X250670686Y-137451290D01*
X250742790Y-137525464D01*
X252158900Y-138982828D01*
X252171600Y-137639764D01*
X252174444Y-137344185D01*
X252177057Y-137095059D01*
X252179641Y-136888038D01*
X252182399Y-136718777D01*
X252185533Y-136582930D01*
X252189246Y-136476150D01*
X252193740Y-136394091D01*
X252199219Y-136332408D01*
X252205885Y-136286753D01*
X252213941Y-136252782D01*
X252223590Y-136226147D01*
X252235033Y-136202503D01*
X252238978Y-136195100D01*
X252318987Y-136076195D01*
X252419763Y-135988606D01*
X252527200Y-135930535D01*
X252686294Y-135884025D01*
X252845192Y-135883744D01*
X252995735Y-135925747D01*
X253129766Y-136006090D01*
X253239126Y-136120829D01*
X253315658Y-136266020D01*
X253332272Y-136319760D01*
X253338660Y-136370228D01*
X253344385Y-136466591D01*
X253349447Y-136604027D01*
X253353850Y-136777714D01*
X253357597Y-136982833D01*
X253360689Y-137214560D01*
X253363129Y-137468076D01*
X253364921Y-137738558D01*
X253366066Y-138021186D01*
X253366568Y-138311137D01*
X253366428Y-138603592D01*
X253365650Y-138893728D01*
X253364236Y-139176724D01*
X253362188Y-139447759D01*
X253359509Y-139702012D01*
X253356203Y-139934661D01*
X253352270Y-140140885D01*
X253347715Y-140315863D01*
X253342539Y-140454773D01*
X253336745Y-140552794D01*
X253330337Y-140605105D01*
X253329967Y-140606558D01*
X253265370Y-140759517D01*
X253161376Y-140881371D01*
X253022582Y-140971373D01*
X252926897Y-141012502D01*
X252845139Y-141030123D01*
X252749584Y-141029811D01*
X252736621Y-141028889D01*
X252636146Y-141014525D01*
X252540544Y-140989976D01*
X252498627Y-140973659D01*
X252463472Y-140946924D01*
X252394762Y-140884882D01*
X252293980Y-140789010D01*
X252162608Y-140660784D01*
X252002132Y-140501679D01*
X251814033Y-140313172D01*
X251599795Y-140096737D01*
X251360902Y-139853852D01*
X251098837Y-139585992D01*
X250936527Y-139419483D01*
X249466500Y-137909539D01*
X249453800Y-139262120D01*
X249450984Y-139558533D01*
X249448427Y-139808491D01*
X249445918Y-140016337D01*
X249443249Y-140186413D01*
X249440209Y-140323063D01*
X249436589Y-140430628D01*
X249432179Y-140513451D01*
X249426770Y-140575876D01*
X249420151Y-140622245D01*
X249412113Y-140656900D01*
X249402446Y-140684185D01*
X249390941Y-140708442D01*
X249383260Y-140722991D01*
X249290879Y-140844996D01*
X249162531Y-140941638D01*
X249010236Y-141004222D01*
X248986377Y-141010066D01*
X248834356Y-141020635D01*
X248683511Y-140989503D01*
X248544345Y-140922521D01*
X248427365Y-140825538D01*
X248343076Y-140704404D01*
X248316637Y-140637154D01*
X248310667Y-140604420D01*
X248305435Y-140547021D01*
X248300906Y-140462385D01*
X248297044Y-140347941D01*
X248293812Y-140201117D01*
X248291175Y-140019342D01*
X248289096Y-139800043D01*
X248287540Y-139540650D01*
X248286470Y-139238591D01*
X248285850Y-138891293D01*
X248285644Y-138496186D01*
X248285648Y-138427354D01*
G36*
X247915424Y-125130539D02*
G01*
X247995385Y-124759144D01*
X248021225Y-124672754D01*
X248156330Y-124326196D01*
X248333088Y-124004234D01*
X248547496Y-123709531D01*
X248795546Y-123444750D01*
X249073234Y-123212557D01*
X249376554Y-123015613D01*
X249701501Y-122856584D01*
X250044070Y-122738132D01*
X250400254Y-122662922D01*
X250766048Y-122633617D01*
X251069455Y-122645624D01*
X251457154Y-122706446D01*
X251824160Y-122812553D01*
X252167964Y-122961795D01*
X252486059Y-123152026D01*
X252775935Y-123381095D01*
X253035085Y-123646855D01*
X253261001Y-123947157D01*
X253451175Y-124279852D01*
X253603099Y-124642792D01*
X253676053Y-124878618D01*
X253705462Y-125025758D01*
X253726245Y-125208985D01*
X253738184Y-125414283D01*
X253741057Y-125627640D01*
X253734645Y-125835042D01*
X253718729Y-126022475D01*
X253696185Y-126162100D01*
X253592297Y-126531273D01*
X253448261Y-126873675D01*
X253267647Y-127187842D01*
X253054026Y-127472307D01*
X252810969Y-127725606D01*
X252542046Y-127946273D01*
X252250827Y-128132844D01*
X251940884Y-128283851D01*
X251615786Y-128397831D01*
X251279103Y-128473318D01*
X250934407Y-128508846D01*
X250812700Y-128506791D01*
X250812700Y-127324801D01*
X251112645Y-127302083D01*
X251392334Y-127232824D01*
X251652591Y-127116701D01*
X251894240Y-126953391D01*
X252002137Y-126859763D01*
X252210189Y-126633350D01*
X252372513Y-126386731D01*
X252488180Y-126122754D01*
X252556264Y-125844267D01*
X252575835Y-125554116D01*
X252545966Y-125255149D01*
X252538220Y-125214880D01*
X252464566Y-124964722D01*
X252349638Y-124719826D01*
X252200892Y-124492439D01*
X252025784Y-124294807D01*
X251923741Y-124205445D01*
X251671399Y-124035789D01*
X251403940Y-123914489D01*
X251122296Y-123841847D01*
X250827399Y-123818164D01*
X250736500Y-123820650D01*
X250434190Y-123860128D01*
X250152761Y-123945287D01*
X249894958Y-124074357D01*
X249663527Y-124245567D01*
X249461214Y-124457146D01*
X249290767Y-124707323D01*
X249252358Y-124777800D01*
X249162568Y-124974160D01*
X249104399Y-125163539D01*
X249073360Y-125364797D01*
X249064928Y-125565200D01*
X249086045Y-125864250D01*
X249152402Y-126141353D01*
X249265112Y-126399733D01*
X249425292Y-126642619D01*
X249446630Y-126669485D01*
X249654692Y-126888374D01*
X249889233Y-127064610D01*
X250147130Y-127196697D01*
X250425262Y-127283136D01*
X250720505Y-127322429D01*
X250812700Y-127324801D01*
X250812700Y-128506791D01*
X250585268Y-128502950D01*
X250235256Y-128454165D01*
X249887941Y-128361025D01*
X249546895Y-128222066D01*
X249215688Y-128035820D01*
X249182998Y-128014374D01*
X248883143Y-127785428D01*
X248619613Y-127523753D01*
X248393878Y-127233573D01*
X248207406Y-126919115D01*
X248061668Y-126584605D01*
X247958131Y-126234266D01*
X247898266Y-125872325D01*
X247883540Y-125503008D01*
X247915424Y-125130539D01*
X247915424Y-125130539D01*
G37*
X247915424Y-125130539D02*
X247995385Y-124759144D01*
X248021225Y-124672754D01*
X248156330Y-124326196D01*
X248333088Y-124004234D01*
X248547496Y-123709531D01*
X248795546Y-123444750D01*
X249073234Y-123212557D01*
X249376554Y-123015613D01*
X249701501Y-122856584D01*
X250044070Y-122738132D01*
X250400254Y-122662922D01*
X250766048Y-122633617D01*
X251069455Y-122645624D01*
X251457154Y-122706446D01*
X251824160Y-122812553D01*
X252167964Y-122961795D01*
X252486059Y-123152026D01*
X252775935Y-123381095D01*
X253035085Y-123646855D01*
X253261001Y-123947157D01*
X253451175Y-124279852D01*
X253603099Y-124642792D01*
X253676053Y-124878618D01*
X253705462Y-125025758D01*
X253726245Y-125208985D01*
X253738184Y-125414283D01*
X253741057Y-125627640D01*
X253734645Y-125835042D01*
X253718729Y-126022475D01*
X253696185Y-126162100D01*
X253592297Y-126531273D01*
X253448261Y-126873675D01*
X253267647Y-127187842D01*
X253054026Y-127472307D01*
X252810969Y-127725606D01*
X252542046Y-127946273D01*
X252250827Y-128132844D01*
X251940884Y-128283851D01*
X251615786Y-128397831D01*
X251279103Y-128473318D01*
X250934407Y-128508846D01*
X250812700Y-128506791D01*
X250812700Y-127324801D01*
X251112645Y-127302083D01*
X251392334Y-127232824D01*
X251652591Y-127116701D01*
X251894240Y-126953391D01*
X252002137Y-126859763D01*
X252210189Y-126633350D01*
X252372513Y-126386731D01*
X252488180Y-126122754D01*
X252556264Y-125844267D01*
X252575835Y-125554116D01*
X252545966Y-125255149D01*
X252538220Y-125214880D01*
X252464566Y-124964722D01*
X252349638Y-124719826D01*
X252200892Y-124492439D01*
X252025784Y-124294807D01*
X251923741Y-124205445D01*
X251671399Y-124035789D01*
X251403940Y-123914489D01*
X251122296Y-123841847D01*
X250827399Y-123818164D01*
X250736500Y-123820650D01*
X250434190Y-123860128D01*
X250152761Y-123945287D01*
X249894958Y-124074357D01*
X249663527Y-124245567D01*
X249461214Y-124457146D01*
X249290767Y-124707323D01*
X249252358Y-124777800D01*
X249162568Y-124974160D01*
X249104399Y-125163539D01*
X249073360Y-125364797D01*
X249064928Y-125565200D01*
X249086045Y-125864250D01*
X249152402Y-126141353D01*
X249265112Y-126399733D01*
X249425292Y-126642619D01*
X249446630Y-126669485D01*
X249654692Y-126888374D01*
X249889233Y-127064610D01*
X250147130Y-127196697D01*
X250425262Y-127283136D01*
X250720505Y-127322429D01*
X250812700Y-127324801D01*
X250812700Y-128506791D01*
X250585268Y-128502950D01*
X250235256Y-128454165D01*
X249887941Y-128361025D01*
X249546895Y-128222066D01*
X249215688Y-128035820D01*
X249182998Y-128014374D01*
X248883143Y-127785428D01*
X248619613Y-127523753D01*
X248393878Y-127233573D01*
X248207406Y-126919115D01*
X248061668Y-126584605D01*
X247958131Y-126234266D01*
X247898266Y-125872325D01*
X247883540Y-125503008D01*
X247915424Y-125130539D01*
G36*
X247886243Y-143751314D02*
G01*
X247935715Y-143379923D01*
X248033606Y-143011688D01*
X248126330Y-142769599D01*
X248293342Y-142445441D01*
X248502444Y-142143301D01*
X248748397Y-141867802D01*
X249025964Y-141623567D01*
X249329906Y-141415220D01*
X249654986Y-141247383D01*
X249987200Y-141127186D01*
X250360210Y-141044838D01*
X250731134Y-141011019D01*
X251096441Y-141023600D01*
X251452602Y-141080447D01*
X251796089Y-141179429D01*
X252123373Y-141318415D01*
X252430924Y-141495274D01*
X252715215Y-141707872D01*
X252972715Y-141954080D01*
X253199895Y-142231765D01*
X253393228Y-142538796D01*
X253549184Y-142873040D01*
X253664234Y-143232367D01*
X253694808Y-143366719D01*
X253726394Y-143577134D01*
X253743124Y-143813719D01*
X253744971Y-144058676D01*
X253731908Y-144294208D01*
X253703909Y-144502518D01*
X253696588Y-144539000D01*
X253590635Y-144917002D01*
X253440105Y-145271745D01*
X253246102Y-145601181D01*
X253009732Y-145903263D01*
X252895090Y-146024491D01*
X252609643Y-146275680D01*
X252301544Y-146483789D01*
X251975047Y-146648738D01*
X251634405Y-146770447D01*
X251283872Y-146848835D01*
X250938250Y-146882786D01*
X250938250Y-145700484D01*
X251141490Y-145679842D01*
X251181000Y-145672292D01*
X251421990Y-145599218D01*
X251661451Y-145485433D01*
X251886127Y-145339108D01*
X252082761Y-145168415D01*
X252185404Y-145053142D01*
X252295604Y-144892950D01*
X252397215Y-144705918D01*
X252480621Y-144511957D01*
X252536205Y-144330980D01*
X252537977Y-144323100D01*
X252567142Y-144111955D01*
X252569803Y-143880168D01*
X252547042Y-143648622D01*
X252499945Y-143438197D01*
X252490498Y-143408700D01*
X252374825Y-143141604D01*
X252217368Y-142897314D01*
X252023553Y-142680882D01*
X251798805Y-142497360D01*
X251548550Y-142351798D01*
X251278213Y-142249248D01*
X251231800Y-142236748D01*
X251074236Y-142209354D01*
X250888848Y-142196663D01*
X250695783Y-142198627D01*
X250515191Y-142215193D01*
X250393600Y-142238832D01*
X250116315Y-142336876D01*
X249860945Y-142477622D01*
X249632199Y-142656369D01*
X249434788Y-142868416D01*
X249273422Y-143109064D01*
X249152811Y-143373611D01*
X249106738Y-143523000D01*
X249079550Y-143676106D01*
X249066316Y-143858537D01*
X249066972Y-144050794D01*
X249081452Y-144233376D01*
X249109642Y-144386600D01*
X249207144Y-144657822D01*
X249348209Y-144909410D01*
X249527628Y-145135941D01*
X249740190Y-145331989D01*
X249980686Y-145492128D01*
X250243906Y-145610933D01*
X250304700Y-145631094D01*
X250498138Y-145675089D01*
X250716560Y-145698559D01*
X250938250Y-145700484D01*
X250938250Y-146882786D01*
X250927702Y-146883823D01*
X250570149Y-146875331D01*
X250215465Y-146823278D01*
X249867906Y-146727584D01*
X249531724Y-146588170D01*
X249211174Y-146404955D01*
X248910509Y-146177859D01*
X248824757Y-146101100D01*
X248558936Y-145820388D01*
X248335623Y-145514640D01*
X248155663Y-145187883D01*
X248019901Y-144844144D01*
X247929181Y-144487452D01*
X247884347Y-144121832D01*
X247886243Y-143751314D01*
X247886243Y-143751314D01*
G37*
X247886243Y-143751314D02*
X247935715Y-143379923D01*
X248033606Y-143011688D01*
X248126330Y-142769599D01*
X248293342Y-142445441D01*
X248502444Y-142143301D01*
X248748397Y-141867802D01*
X249025964Y-141623567D01*
X249329906Y-141415220D01*
X249654986Y-141247383D01*
X249987200Y-141127186D01*
X250360210Y-141044838D01*
X250731134Y-141011019D01*
X251096441Y-141023600D01*
X251452602Y-141080447D01*
X251796089Y-141179429D01*
X252123373Y-141318415D01*
X252430924Y-141495274D01*
X252715215Y-141707872D01*
X252972715Y-141954080D01*
X253199895Y-142231765D01*
X253393228Y-142538796D01*
X253549184Y-142873040D01*
X253664234Y-143232367D01*
X253694808Y-143366719D01*
X253726394Y-143577134D01*
X253743124Y-143813719D01*
X253744971Y-144058676D01*
X253731908Y-144294208D01*
X253703909Y-144502518D01*
X253696588Y-144539000D01*
X253590635Y-144917002D01*
X253440105Y-145271745D01*
X253246102Y-145601181D01*
X253009732Y-145903263D01*
X252895090Y-146024491D01*
X252609643Y-146275680D01*
X252301544Y-146483789D01*
X251975047Y-146648738D01*
X251634405Y-146770447D01*
X251283872Y-146848835D01*
X250938250Y-146882786D01*
X250938250Y-145700484D01*
X251141490Y-145679842D01*
X251181000Y-145672292D01*
X251421990Y-145599218D01*
X251661451Y-145485433D01*
X251886127Y-145339108D01*
X252082761Y-145168415D01*
X252185404Y-145053142D01*
X252295604Y-144892950D01*
X252397215Y-144705918D01*
X252480621Y-144511957D01*
X252536205Y-144330980D01*
X252537977Y-144323100D01*
X252567142Y-144111955D01*
X252569803Y-143880168D01*
X252547042Y-143648622D01*
X252499945Y-143438197D01*
X252490498Y-143408700D01*
X252374825Y-143141604D01*
X252217368Y-142897314D01*
X252023553Y-142680882D01*
X251798805Y-142497360D01*
X251548550Y-142351798D01*
X251278213Y-142249248D01*
X251231800Y-142236748D01*
X251074236Y-142209354D01*
X250888848Y-142196663D01*
X250695783Y-142198627D01*
X250515191Y-142215193D01*
X250393600Y-142238832D01*
X250116315Y-142336876D01*
X249860945Y-142477622D01*
X249632199Y-142656369D01*
X249434788Y-142868416D01*
X249273422Y-143109064D01*
X249152811Y-143373611D01*
X249106738Y-143523000D01*
X249079550Y-143676106D01*
X249066316Y-143858537D01*
X249066972Y-144050794D01*
X249081452Y-144233376D01*
X249109642Y-144386600D01*
X249207144Y-144657822D01*
X249348209Y-144909410D01*
X249527628Y-145135941D01*
X249740190Y-145331989D01*
X249980686Y-145492128D01*
X250243906Y-145610933D01*
X250304700Y-145631094D01*
X250498138Y-145675089D01*
X250716560Y-145698559D01*
X250938250Y-145700484D01*
X250938250Y-146882786D01*
X250927702Y-146883823D01*
X250570149Y-146875331D01*
X250215465Y-146823278D01*
X249867906Y-146727584D01*
X249531724Y-146588170D01*
X249211174Y-146404955D01*
X248910509Y-146177859D01*
X248824757Y-146101100D01*
X248558936Y-145820388D01*
X248335623Y-145514640D01*
X248155663Y-145187883D01*
X248019901Y-144844144D01*
X247929181Y-144487452D01*
X247884347Y-144121832D01*
X247886243Y-143751314D01*
G36*
X212811536Y-119930427D02*
G01*
X212924118Y-120527618D01*
X213339531Y-120698865D01*
X213754945Y-120870112D01*
X214253302Y-120531233D01*
X214392869Y-120436877D01*
X214519029Y-120352630D01*
X214625896Y-120282338D01*
X214707583Y-120229847D01*
X214758202Y-120199004D01*
X214771987Y-120192353D01*
X214796821Y-120209458D01*
X214849889Y-120256744D01*
X214925241Y-120328172D01*
X215016930Y-120417700D01*
X215119008Y-120519289D01*
X215225527Y-120626898D01*
X215330537Y-120734487D01*
X215428092Y-120836015D01*
X215512243Y-120925441D01*
X215577041Y-120996726D01*
X215616538Y-121043828D01*
X215625981Y-121059592D01*
X215612392Y-121088653D01*
X215574294Y-121152321D01*
X215515694Y-121244367D01*
X215440598Y-121358564D01*
X215353009Y-121488684D01*
X215302255Y-121562901D01*
X215209746Y-121698422D01*
X215127541Y-121820716D01*
X215059631Y-121923695D01*
X215010001Y-122001273D01*
X214982641Y-122047361D01*
X214978530Y-122057047D01*
X214987850Y-122084574D01*
X215013255Y-122148728D01*
X215050912Y-122240490D01*
X215096987Y-122350839D01*
X215147647Y-122470755D01*
X215199060Y-122591219D01*
X215247390Y-122703209D01*
X215288807Y-122797707D01*
X215319475Y-122865692D01*
X215335562Y-122898143D01*
X215336512Y-122899420D01*
X215361773Y-122905617D01*
X215429046Y-122919440D01*
X215531361Y-122939532D01*
X215661742Y-122964534D01*
X215813217Y-122993086D01*
X215901594Y-123009551D01*
X216063453Y-123040369D01*
X216209650Y-123069694D01*
X216332788Y-123095921D01*
X216425470Y-123117446D01*
X216480302Y-123132665D01*
X216491324Y-123137493D01*
X216502119Y-123170174D01*
X216510830Y-123243985D01*
X216517461Y-123350292D01*
X216522019Y-123480467D01*
X216524510Y-123625876D01*
X216524939Y-123777890D01*
X216523312Y-123927877D01*
X216519636Y-124067206D01*
X216513916Y-124187245D01*
X216506158Y-124279365D01*
X216496369Y-124334932D01*
X216490497Y-124346500D01*
X216455400Y-124360365D01*
X216381029Y-124380188D01*
X216277224Y-124403639D01*
X216153820Y-124428391D01*
X216110742Y-124436398D01*
X215903048Y-124474441D01*
X215738985Y-124505079D01*
X215613131Y-124529529D01*
X215520066Y-124549009D01*
X215454368Y-124564736D01*
X215410618Y-124577928D01*
X215383393Y-124589804D01*
X215367273Y-124601580D01*
X215365018Y-124603908D01*
X215342504Y-124641400D01*
X215308159Y-124714365D01*
X215265412Y-124813867D01*
X215217693Y-124930973D01*
X215168431Y-125056748D01*
X215121056Y-125182257D01*
X215078996Y-125298565D01*
X215045681Y-125396739D01*
X215024542Y-125467843D01*
X215019006Y-125502942D01*
X215019467Y-125504172D01*
X215038224Y-125532861D01*
X215080777Y-125595985D01*
X215142654Y-125686973D01*
X215219383Y-125799255D01*
X215306492Y-125926260D01*
X215331299Y-125962353D01*
X215419753Y-126093203D01*
X215497589Y-126212591D01*
X215560567Y-126313662D01*
X215604446Y-126389559D01*
X215624986Y-126433427D01*
X215625981Y-126438817D01*
X215608723Y-126467144D01*
X215561036Y-126523261D01*
X215489051Y-126601137D01*
X215398898Y-126694740D01*
X215296706Y-126798041D01*
X215188606Y-126905006D01*
X215080729Y-127009606D01*
X214979205Y-127105809D01*
X214890163Y-127187584D01*
X214819734Y-127248900D01*
X214774048Y-127283726D01*
X214761410Y-127289412D01*
X214731992Y-127276020D01*
X214671762Y-127239899D01*
X214590530Y-127187136D01*
X214528031Y-127144667D01*
X214414786Y-127066740D01*
X214280675Y-126974984D01*
X214146156Y-126883375D01*
X214073834Y-126834346D01*
X213829039Y-126668770D01*
X213623551Y-126779875D01*
X213529937Y-126828548D01*
X213450331Y-126866381D01*
X213396468Y-126887958D01*
X213382758Y-126890961D01*
X213366271Y-126868793D01*
X213333746Y-126806149D01*
X213287609Y-126708809D01*
X213230291Y-126582549D01*
X213164217Y-126433150D01*
X213091816Y-126266388D01*
X213015517Y-126088042D01*
X212937747Y-125903891D01*
X212860935Y-125719712D01*
X212787507Y-125541285D01*
X212719893Y-125374387D01*
X212660521Y-125224797D01*
X212611817Y-125098293D01*
X212576211Y-125000654D01*
X212556131Y-124937657D01*
X212552901Y-124916021D01*
X212578497Y-124888424D01*
X212634539Y-124843625D01*
X212709312Y-124790934D01*
X212715588Y-124786765D01*
X212908846Y-124632069D01*
X213064675Y-124451591D01*
X213181725Y-124251102D01*
X213258646Y-124036374D01*
X213294087Y-123813177D01*
X213286698Y-123587281D01*
X213235128Y-123364459D01*
X213138027Y-123150479D01*
X213109459Y-123103664D01*
X212960869Y-122914618D01*
X212785328Y-122762812D01*
X212588911Y-122649034D01*
X212377694Y-122574075D01*
X212157754Y-122538722D01*
X211935164Y-122543767D01*
X211716002Y-122589999D01*
X211506343Y-122678206D01*
X211312262Y-122809179D01*
X211252227Y-122862337D01*
X211099436Y-123028739D01*
X210988098Y-123203912D01*
X210911724Y-123400266D01*
X210869188Y-123594717D01*
X210858687Y-123813342D01*
X210893701Y-124033052D01*
X210970674Y-124246420D01*
X211086048Y-124446022D01*
X211236266Y-124624429D01*
X211417774Y-124774217D01*
X211441628Y-124790006D01*
X211517202Y-124841712D01*
X211574652Y-124886512D01*
X211602118Y-124915117D01*
X211602518Y-124916021D01*
X211596621Y-124946964D01*
X211573246Y-125017191D01*
X211534822Y-125120925D01*
X211483778Y-125252390D01*
X211422543Y-125405807D01*
X211353545Y-125575401D01*
X211279214Y-125755393D01*
X211201979Y-125940008D01*
X211124269Y-126123468D01*
X211048512Y-126299996D01*
X210977138Y-126463814D01*
X210912575Y-126609147D01*
X210857253Y-126730217D01*
X210813601Y-126821247D01*
X210784047Y-126876460D01*
X210772145Y-126890961D01*
X210735778Y-126879669D01*
X210667731Y-126849385D01*
X210579737Y-126805520D01*
X210531351Y-126779875D01*
X210325864Y-126668770D01*
X210081069Y-126834346D01*
X209956107Y-126919170D01*
X209819296Y-127012516D01*
X209691089Y-127100408D01*
X209626872Y-127144667D01*
X209536552Y-127205318D01*
X209460072Y-127253381D01*
X209407408Y-127282770D01*
X209390303Y-127288982D01*
X209365406Y-127272223D01*
X209310306Y-127225436D01*
X209230344Y-127153480D01*
X209130861Y-127061212D01*
X209017201Y-126953490D01*
X208945316Y-126884326D01*
X208819552Y-126760757D01*
X208710864Y-126650234D01*
X208623646Y-126557485D01*
X208562290Y-126487237D01*
X208531192Y-126444220D01*
X208528209Y-126435490D01*
X208542054Y-126402284D01*
X208580313Y-126335142D01*
X208638742Y-126240863D01*
X208713098Y-126126245D01*
X208799136Y-125998083D01*
X208823603Y-125962353D01*
X208912755Y-125832489D01*
X208992739Y-125715569D01*
X209059081Y-125618162D01*
X209107312Y-125546839D01*
X209132958Y-125508170D01*
X209135436Y-125504172D01*
X209131730Y-125473355D01*
X209112062Y-125405599D01*
X209079861Y-125309839D01*
X209038556Y-125195009D01*
X208991576Y-125070044D01*
X208942350Y-124943879D01*
X208894309Y-124825448D01*
X208850882Y-124723685D01*
X208815497Y-124647526D01*
X208791585Y-124605904D01*
X208789885Y-124603908D01*
X208775263Y-124592013D01*
X208750566Y-124580250D01*
X208710373Y-124567401D01*
X208649264Y-124552249D01*
X208561818Y-124533576D01*
X208442613Y-124510165D01*
X208286228Y-124480797D01*
X208087244Y-124444255D01*
X208044161Y-124436398D01*
X207916471Y-124411727D01*
X207805154Y-124387593D01*
X207720046Y-124366324D01*
X207670984Y-124350248D01*
X207664406Y-124346500D01*
X207653565Y-124313273D01*
X207644754Y-124239021D01*
X207637977Y-124132376D01*
X207633241Y-124001967D01*
X207630551Y-123856427D01*
X207629914Y-123704386D01*
X207631335Y-123554476D01*
X207634821Y-123415328D01*
X207640377Y-123295572D01*
X207648009Y-123203841D01*
X207657723Y-123148766D01*
X207663579Y-123137493D01*
X207696181Y-123126123D01*
X207770419Y-123107624D01*
X207878897Y-123083602D01*
X208014218Y-123055662D01*
X208168986Y-123025408D01*
X208253308Y-123009551D01*
X208413297Y-122979644D01*
X208555968Y-122952550D01*
X208674349Y-122929631D01*
X208761466Y-122912243D01*
X208810346Y-122901747D01*
X208818391Y-122899420D01*
X208831988Y-122873186D01*
X208860730Y-122809995D01*
X208900786Y-122718877D01*
X208948325Y-122608857D01*
X208999516Y-122488965D01*
X209050527Y-122368227D01*
X209097527Y-122255671D01*
X209136685Y-122160326D01*
X209164170Y-122091217D01*
X209176150Y-122057374D01*
X209176373Y-122055895D01*
X209162792Y-122029197D01*
X209124716Y-121967760D01*
X209066148Y-121877689D01*
X208991089Y-121765090D01*
X208903541Y-121636070D01*
X208852648Y-121561961D01*
X208759910Y-121426077D01*
X208677542Y-121302709D01*
X208609562Y-121198097D01*
X208559989Y-121118483D01*
X208532843Y-121070107D01*
X208528922Y-121059262D01*
X208545776Y-121034020D01*
X208592369Y-120980124D01*
X208662749Y-120903613D01*
X208750966Y-120810523D01*
X208851066Y-120706895D01*
X208957099Y-120598764D01*
X209063112Y-120492170D01*
X209163153Y-120393150D01*
X209251271Y-120307742D01*
X209321514Y-120241985D01*
X209367929Y-120201916D01*
X209383457Y-120192353D01*
X209408740Y-120205800D01*
X209469212Y-120243575D01*
X209558993Y-120301835D01*
X209672204Y-120376734D01*
X209802964Y-120464425D01*
X209901600Y-120531233D01*
X210399958Y-120870112D01*
X210815371Y-120698865D01*
X211230785Y-120527618D01*
X211343367Y-119930427D01*
X211455950Y-119333235D01*
X212698953Y-119333235D01*
X212811536Y-119930427D01*
X212811536Y-119930427D01*
G37*
X212811536Y-119930427D02*
X212924118Y-120527618D01*
X213339531Y-120698865D01*
X213754945Y-120870112D01*
X214253302Y-120531233D01*
X214392869Y-120436877D01*
X214519029Y-120352630D01*
X214625896Y-120282338D01*
X214707583Y-120229847D01*
X214758202Y-120199004D01*
X214771987Y-120192353D01*
X214796821Y-120209458D01*
X214849889Y-120256744D01*
X214925241Y-120328172D01*
X215016930Y-120417700D01*
X215119008Y-120519289D01*
X215225527Y-120626898D01*
X215330537Y-120734487D01*
X215428092Y-120836015D01*
X215512243Y-120925441D01*
X215577041Y-120996726D01*
X215616538Y-121043828D01*
X215625981Y-121059592D01*
X215612392Y-121088653D01*
X215574294Y-121152321D01*
X215515694Y-121244367D01*
X215440598Y-121358564D01*
X215353009Y-121488684D01*
X215302255Y-121562901D01*
X215209746Y-121698422D01*
X215127541Y-121820716D01*
X215059631Y-121923695D01*
X215010001Y-122001273D01*
X214982641Y-122047361D01*
X214978530Y-122057047D01*
X214987850Y-122084574D01*
X215013255Y-122148728D01*
X215050912Y-122240490D01*
X215096987Y-122350839D01*
X215147647Y-122470755D01*
X215199060Y-122591219D01*
X215247390Y-122703209D01*
X215288807Y-122797707D01*
X215319475Y-122865692D01*
X215335562Y-122898143D01*
X215336512Y-122899420D01*
X215361773Y-122905617D01*
X215429046Y-122919440D01*
X215531361Y-122939532D01*
X215661742Y-122964534D01*
X215813217Y-122993086D01*
X215901594Y-123009551D01*
X216063453Y-123040369D01*
X216209650Y-123069694D01*
X216332788Y-123095921D01*
X216425470Y-123117446D01*
X216480302Y-123132665D01*
X216491324Y-123137493D01*
X216502119Y-123170174D01*
X216510830Y-123243985D01*
X216517461Y-123350292D01*
X216522019Y-123480467D01*
X216524510Y-123625876D01*
X216524939Y-123777890D01*
X216523312Y-123927877D01*
X216519636Y-124067206D01*
X216513916Y-124187245D01*
X216506158Y-124279365D01*
X216496369Y-124334932D01*
X216490497Y-124346500D01*
X216455400Y-124360365D01*
X216381029Y-124380188D01*
X216277224Y-124403639D01*
X216153820Y-124428391D01*
X216110742Y-124436398D01*
X215903048Y-124474441D01*
X215738985Y-124505079D01*
X215613131Y-124529529D01*
X215520066Y-124549009D01*
X215454368Y-124564736D01*
X215410618Y-124577928D01*
X215383393Y-124589804D01*
X215367273Y-124601580D01*
X215365018Y-124603908D01*
X215342504Y-124641400D01*
X215308159Y-124714365D01*
X215265412Y-124813867D01*
X215217693Y-124930973D01*
X215168431Y-125056748D01*
X215121056Y-125182257D01*
X215078996Y-125298565D01*
X215045681Y-125396739D01*
X215024542Y-125467843D01*
X215019006Y-125502942D01*
X215019467Y-125504172D01*
X215038224Y-125532861D01*
X215080777Y-125595985D01*
X215142654Y-125686973D01*
X215219383Y-125799255D01*
X215306492Y-125926260D01*
X215331299Y-125962353D01*
X215419753Y-126093203D01*
X215497589Y-126212591D01*
X215560567Y-126313662D01*
X215604446Y-126389559D01*
X215624986Y-126433427D01*
X215625981Y-126438817D01*
X215608723Y-126467144D01*
X215561036Y-126523261D01*
X215489051Y-126601137D01*
X215398898Y-126694740D01*
X215296706Y-126798041D01*
X215188606Y-126905006D01*
X215080729Y-127009606D01*
X214979205Y-127105809D01*
X214890163Y-127187584D01*
X214819734Y-127248900D01*
X214774048Y-127283726D01*
X214761410Y-127289412D01*
X214731992Y-127276020D01*
X214671762Y-127239899D01*
X214590530Y-127187136D01*
X214528031Y-127144667D01*
X214414786Y-127066740D01*
X214280675Y-126974984D01*
X214146156Y-126883375D01*
X214073834Y-126834346D01*
X213829039Y-126668770D01*
X213623551Y-126779875D01*
X213529937Y-126828548D01*
X213450331Y-126866381D01*
X213396468Y-126887958D01*
X213382758Y-126890961D01*
X213366271Y-126868793D01*
X213333746Y-126806149D01*
X213287609Y-126708809D01*
X213230291Y-126582549D01*
X213164217Y-126433150D01*
X213091816Y-126266388D01*
X213015517Y-126088042D01*
X212937747Y-125903891D01*
X212860935Y-125719712D01*
X212787507Y-125541285D01*
X212719893Y-125374387D01*
X212660521Y-125224797D01*
X212611817Y-125098293D01*
X212576211Y-125000654D01*
X212556131Y-124937657D01*
X212552901Y-124916021D01*
X212578497Y-124888424D01*
X212634539Y-124843625D01*
X212709312Y-124790934D01*
X212715588Y-124786765D01*
X212908846Y-124632069D01*
X213064675Y-124451591D01*
X213181725Y-124251102D01*
X213258646Y-124036374D01*
X213294087Y-123813177D01*
X213286698Y-123587281D01*
X213235128Y-123364459D01*
X213138027Y-123150479D01*
X213109459Y-123103664D01*
X212960869Y-122914618D01*
X212785328Y-122762812D01*
X212588911Y-122649034D01*
X212377694Y-122574075D01*
X212157754Y-122538722D01*
X211935164Y-122543767D01*
X211716002Y-122589999D01*
X211506343Y-122678206D01*
X211312262Y-122809179D01*
X211252227Y-122862337D01*
X211099436Y-123028739D01*
X210988098Y-123203912D01*
X210911724Y-123400266D01*
X210869188Y-123594717D01*
X210858687Y-123813342D01*
X210893701Y-124033052D01*
X210970674Y-124246420D01*
X211086048Y-124446022D01*
X211236266Y-124624429D01*
X211417774Y-124774217D01*
X211441628Y-124790006D01*
X211517202Y-124841712D01*
X211574652Y-124886512D01*
X211602118Y-124915117D01*
X211602518Y-124916021D01*
X211596621Y-124946964D01*
X211573246Y-125017191D01*
X211534822Y-125120925D01*
X211483778Y-125252390D01*
X211422543Y-125405807D01*
X211353545Y-125575401D01*
X211279214Y-125755393D01*
X211201979Y-125940008D01*
X211124269Y-126123468D01*
X211048512Y-126299996D01*
X210977138Y-126463814D01*
X210912575Y-126609147D01*
X210857253Y-126730217D01*
X210813601Y-126821247D01*
X210784047Y-126876460D01*
X210772145Y-126890961D01*
X210735778Y-126879669D01*
X210667731Y-126849385D01*
X210579737Y-126805520D01*
X210531351Y-126779875D01*
X210325864Y-126668770D01*
X210081069Y-126834346D01*
X209956107Y-126919170D01*
X209819296Y-127012516D01*
X209691089Y-127100408D01*
X209626872Y-127144667D01*
X209536552Y-127205318D01*
X209460072Y-127253381D01*
X209407408Y-127282770D01*
X209390303Y-127288982D01*
X209365406Y-127272223D01*
X209310306Y-127225436D01*
X209230344Y-127153480D01*
X209130861Y-127061212D01*
X209017201Y-126953490D01*
X208945316Y-126884326D01*
X208819552Y-126760757D01*
X208710864Y-126650234D01*
X208623646Y-126557485D01*
X208562290Y-126487237D01*
X208531192Y-126444220D01*
X208528209Y-126435490D01*
X208542054Y-126402284D01*
X208580313Y-126335142D01*
X208638742Y-126240863D01*
X208713098Y-126126245D01*
X208799136Y-125998083D01*
X208823603Y-125962353D01*
X208912755Y-125832489D01*
X208992739Y-125715569D01*
X209059081Y-125618162D01*
X209107312Y-125546839D01*
X209132958Y-125508170D01*
X209135436Y-125504172D01*
X209131730Y-125473355D01*
X209112062Y-125405599D01*
X209079861Y-125309839D01*
X209038556Y-125195009D01*
X208991576Y-125070044D01*
X208942350Y-124943879D01*
X208894309Y-124825448D01*
X208850882Y-124723685D01*
X208815497Y-124647526D01*
X208791585Y-124605904D01*
X208789885Y-124603908D01*
X208775263Y-124592013D01*
X208750566Y-124580250D01*
X208710373Y-124567401D01*
X208649264Y-124552249D01*
X208561818Y-124533576D01*
X208442613Y-124510165D01*
X208286228Y-124480797D01*
X208087244Y-124444255D01*
X208044161Y-124436398D01*
X207916471Y-124411727D01*
X207805154Y-124387593D01*
X207720046Y-124366324D01*
X207670984Y-124350248D01*
X207664406Y-124346500D01*
X207653565Y-124313273D01*
X207644754Y-124239021D01*
X207637977Y-124132376D01*
X207633241Y-124001967D01*
X207630551Y-123856427D01*
X207629914Y-123704386D01*
X207631335Y-123554476D01*
X207634821Y-123415328D01*
X207640377Y-123295572D01*
X207648009Y-123203841D01*
X207657723Y-123148766D01*
X207663579Y-123137493D01*
X207696181Y-123126123D01*
X207770419Y-123107624D01*
X207878897Y-123083602D01*
X208014218Y-123055662D01*
X208168986Y-123025408D01*
X208253308Y-123009551D01*
X208413297Y-122979644D01*
X208555968Y-122952550D01*
X208674349Y-122929631D01*
X208761466Y-122912243D01*
X208810346Y-122901747D01*
X208818391Y-122899420D01*
X208831988Y-122873186D01*
X208860730Y-122809995D01*
X208900786Y-122718877D01*
X208948325Y-122608857D01*
X208999516Y-122488965D01*
X209050527Y-122368227D01*
X209097527Y-122255671D01*
X209136685Y-122160326D01*
X209164170Y-122091217D01*
X209176150Y-122057374D01*
X209176373Y-122055895D01*
X209162792Y-122029197D01*
X209124716Y-121967760D01*
X209066148Y-121877689D01*
X208991089Y-121765090D01*
X208903541Y-121636070D01*
X208852648Y-121561961D01*
X208759910Y-121426077D01*
X208677542Y-121302709D01*
X208609562Y-121198097D01*
X208559989Y-121118483D01*
X208532843Y-121070107D01*
X208528922Y-121059262D01*
X208545776Y-121034020D01*
X208592369Y-120980124D01*
X208662749Y-120903613D01*
X208750966Y-120810523D01*
X208851066Y-120706895D01*
X208957099Y-120598764D01*
X209063112Y-120492170D01*
X209163153Y-120393150D01*
X209251271Y-120307742D01*
X209321514Y-120241985D01*
X209367929Y-120201916D01*
X209383457Y-120192353D01*
X209408740Y-120205800D01*
X209469212Y-120243575D01*
X209558993Y-120301835D01*
X209672204Y-120376734D01*
X209802964Y-120464425D01*
X209901600Y-120531233D01*
X210399958Y-120870112D01*
X210815371Y-120698865D01*
X211230785Y-120527618D01*
X211343367Y-119930427D01*
X211455950Y-119333235D01*
X212698953Y-119333235D01*
X212811536Y-119930427D01*
D12*
X214240000Y-136000000D02*
X216240000Y-136000000D01*
X210130000Y-149410000D02*
X210130000Y-146350000D01*
X220350000Y-149410000D02*
X210130000Y-149410000D01*
X220350000Y-146350000D02*
X220350000Y-149410000D01*
X220350000Y-136190000D02*
X220350000Y-142250000D01*
X217540000Y-136190000D02*
X220350000Y-136190000D01*
X210130000Y-136190000D02*
X212940000Y-136190000D01*
X210130000Y-142250000D02*
X210130000Y-136190000D01*
X202744000Y-110056000D02*
X198744000Y-110056000D01*
X202744000Y-111956000D02*
X202744000Y-110056000D01*
X216984000Y-111956000D02*
X202744000Y-111956000D01*
X216984000Y-103516000D02*
X216984000Y-111956000D01*
X202744000Y-103516000D02*
X216984000Y-103516000D01*
X202744000Y-103816000D02*
X202744000Y-103516000D01*
X198744000Y-103816000D02*
X202744000Y-103816000D01*
X198744000Y-110056000D02*
X198744000Y-103816000D01*
X220260000Y-124490000D02*
X220260000Y-126140000D01*
X238160000Y-124490000D02*
X220260000Y-124490000D01*
X238160000Y-129790000D02*
X238160000Y-124490000D01*
X220260000Y-129790000D02*
X238160000Y-129790000D01*
X220260000Y-128140000D02*
X220260000Y-129790000D01*
X220260000Y-126140000D02*
G75*
G02X220260000Y-128140000I0J-1000000D01*
G01*
X239690000Y-145220000D02*
X239090000Y-144920000D01*
X239690000Y-144620000D02*
X239690000Y-145220000D01*
X239090000Y-144920000D02*
X239690000Y-144620000D01*
X226850000Y-140010000D02*
X238890000Y-140010000D01*
X226850000Y-147030000D02*
X226850000Y-140010000D01*
X228050000Y-147030000D02*
X226850000Y-147030000D01*
X228050000Y-148730000D02*
X228050000Y-147030000D01*
X237690000Y-148730000D02*
X228050000Y-148730000D01*
X237690000Y-147030000D02*
X237690000Y-148730000D01*
X238890000Y-147030000D02*
X237690000Y-147030000D01*
X238890000Y-140010000D02*
X238890000Y-147030000D01*
X231182000Y-106964000D02*
X231182000Y-108614000D01*
X241462000Y-106964000D02*
X231182000Y-106964000D01*
X241462000Y-112264000D02*
X241462000Y-106964000D01*
X231182000Y-112264000D02*
X241462000Y-112264000D01*
X231182000Y-110614000D02*
X231182000Y-112264000D01*
X231182000Y-108614000D02*
G75*
G02X231182000Y-110614000I0J-1000000D01*
G01*
X252638000Y-112264000D02*
X252638000Y-110614000D01*
X242358000Y-112264000D02*
X252638000Y-112264000D01*
X242358000Y-106964000D02*
X242358000Y-112264000D01*
X252638000Y-106964000D02*
X242358000Y-106964000D01*
X252638000Y-108614000D02*
X252638000Y-106964000D01*
X252638000Y-110614000D02*
G75*
G02X252638000Y-108614000I0J1000000D01*
G01*
X259436000Y-113908000D02*
X259436000Y-113138000D01*
X259436000Y-105828000D02*
X259436000Y-106598000D01*
X260806000Y-113138000D02*
X260806000Y-106598000D01*
X258066000Y-113138000D02*
X260806000Y-113138000D01*
X258066000Y-106598000D02*
X258066000Y-113138000D01*
X260806000Y-106598000D02*
X258066000Y-106598000D01*
X221844000Y-105320000D02*
X221844000Y-106090000D01*
X221844000Y-113400000D02*
X221844000Y-112630000D01*
X220474000Y-106090000D02*
X220474000Y-112630000D01*
X223214000Y-106090000D02*
X220474000Y-106090000D01*
X223214000Y-112630000D02*
X223214000Y-106090000D01*
X220474000Y-112630000D02*
X223214000Y-112630000D01*
X226924000Y-105320000D02*
X226924000Y-106090000D01*
X226924000Y-113400000D02*
X226924000Y-112630000D01*
X225554000Y-106090000D02*
X225554000Y-112630000D01*
X228294000Y-106090000D02*
X225554000Y-106090000D01*
X228294000Y-112630000D02*
X228294000Y-106090000D01*
X225554000Y-112630000D02*
X228294000Y-112630000D01*
X254754000Y-119051000D02*
X254754000Y-119366000D01*
X254754000Y-116626000D02*
X254754000Y-116941000D01*
X249814000Y-119051000D02*
X249814000Y-119366000D01*
X249814000Y-116626000D02*
X249814000Y-116941000D01*
X249814000Y-119366000D02*
X254754000Y-119366000D01*
X249814000Y-116626000D02*
X254754000Y-116626000D01*
X238498000Y-119051000D02*
X238498000Y-119366000D01*
X238498000Y-116626000D02*
X238498000Y-116941000D01*
X233558000Y-119051000D02*
X233558000Y-119366000D01*
X233558000Y-116626000D02*
X233558000Y-116941000D01*
X233558000Y-119366000D02*
X238498000Y-119366000D01*
X233558000Y-116626000D02*
X238498000Y-116626000D01*
X256800000Y-110263000D02*
X256800000Y-109005000D01*
X254960000Y-110263000D02*
X254960000Y-109005000D01*
X256786000Y-103303000D02*
X256786000Y-103618000D01*
X256786000Y-100878000D02*
X256786000Y-101193000D01*
X251846000Y-103303000D02*
X251846000Y-103618000D01*
X251846000Y-100878000D02*
X251846000Y-101193000D01*
X251846000Y-103618000D02*
X256786000Y-103618000D01*
X251846000Y-100878000D02*
X256786000Y-100878000D01*
D10*
X214906666Y-134452380D02*
X214906666Y-135166666D01*
X214859047Y-135309523D01*
X214763809Y-135404761D01*
X214620952Y-135452380D01*
X214525714Y-135452380D01*
X215287619Y-134452380D02*
X215906666Y-134452380D01*
X215573333Y-134833333D01*
X215716190Y-134833333D01*
X215811428Y-134880952D01*
X215859047Y-134928571D01*
X215906666Y-135023809D01*
X215906666Y-135261904D01*
X215859047Y-135357142D01*
X215811428Y-135404761D01*
X215716190Y-135452380D01*
X215430476Y-135452380D01*
X215335238Y-135404761D01*
X215287619Y-135357142D01*
X200722380Y-111598333D02*
X201436666Y-111598333D01*
X201579523Y-111645952D01*
X201674761Y-111741190D01*
X201722380Y-111884047D01*
X201722380Y-111979285D01*
X201722380Y-110598333D02*
X201722380Y-111169761D01*
X201722380Y-110884047D02*
X200722380Y-110884047D01*
X200865238Y-110979285D01*
X200960476Y-111074523D01*
X201008095Y-111169761D01*
X218712380Y-127901904D02*
X219521904Y-127901904D01*
X219617142Y-127854285D01*
X219664761Y-127806666D01*
X219712380Y-127711428D01*
X219712380Y-127520952D01*
X219664761Y-127425714D01*
X219617142Y-127378095D01*
X219521904Y-127330476D01*
X218712380Y-127330476D01*
X218712380Y-126949523D02*
X218712380Y-126330476D01*
X219093333Y-126663809D01*
X219093333Y-126520952D01*
X219140952Y-126425714D01*
X219188571Y-126378095D01*
X219283809Y-126330476D01*
X219521904Y-126330476D01*
X219617142Y-126378095D01*
X219664761Y-126425714D01*
X219712380Y-126520952D01*
X219712380Y-126806666D01*
X219664761Y-126901904D01*
X219617142Y-126949523D01*
X232051666Y-138022380D02*
X232051666Y-138736666D01*
X232004047Y-138879523D01*
X231908809Y-138974761D01*
X231765952Y-139022380D01*
X231670714Y-139022380D01*
X232480238Y-138117619D02*
X232527857Y-138070000D01*
X232623095Y-138022380D01*
X232861190Y-138022380D01*
X232956428Y-138070000D01*
X233004047Y-138117619D01*
X233051666Y-138212857D01*
X233051666Y-138308095D01*
X233004047Y-138450952D01*
X232432619Y-139022380D01*
X233051666Y-139022380D01*
X229634380Y-110375904D02*
X230443904Y-110375904D01*
X230539142Y-110328285D01*
X230586761Y-110280666D01*
X230634380Y-110185428D01*
X230634380Y-109994952D01*
X230586761Y-109899714D01*
X230539142Y-109852095D01*
X230443904Y-109804476D01*
X229634380Y-109804476D01*
X229729619Y-109375904D02*
X229682000Y-109328285D01*
X229634380Y-109233047D01*
X229634380Y-108994952D01*
X229682000Y-108899714D01*
X229729619Y-108852095D01*
X229824857Y-108804476D01*
X229920095Y-108804476D01*
X230062952Y-108852095D01*
X230634380Y-109423523D01*
X230634380Y-108804476D01*
X253090380Y-110375904D02*
X253899904Y-110375904D01*
X253995142Y-110328285D01*
X254042761Y-110280666D01*
X254090380Y-110185428D01*
X254090380Y-109994952D01*
X254042761Y-109899714D01*
X253995142Y-109852095D01*
X253899904Y-109804476D01*
X253090380Y-109804476D01*
X254090380Y-108804476D02*
X254090380Y-109375904D01*
X254090380Y-109090190D02*
X253090380Y-109090190D01*
X253233238Y-109185428D01*
X253328476Y-109280666D01*
X253376095Y-109375904D01*
X262258380Y-110034666D02*
X261782190Y-110368000D01*
X262258380Y-110606095D02*
X261258380Y-110606095D01*
X261258380Y-110225142D01*
X261306000Y-110129904D01*
X261353619Y-110082285D01*
X261448857Y-110034666D01*
X261591714Y-110034666D01*
X261686952Y-110082285D01*
X261734571Y-110129904D01*
X261782190Y-110225142D01*
X261782190Y-110606095D01*
X261258380Y-109701333D02*
X261258380Y-109082285D01*
X261639333Y-109415619D01*
X261639333Y-109272761D01*
X261686952Y-109177523D01*
X261734571Y-109129904D01*
X261829809Y-109082285D01*
X262067904Y-109082285D01*
X262163142Y-109129904D01*
X262210761Y-109177523D01*
X262258380Y-109272761D01*
X262258380Y-109558476D01*
X262210761Y-109653714D01*
X262163142Y-109701333D01*
X219926380Y-109526666D02*
X219450190Y-109860000D01*
X219926380Y-110098095D02*
X218926380Y-110098095D01*
X218926380Y-109717142D01*
X218974000Y-109621904D01*
X219021619Y-109574285D01*
X219116857Y-109526666D01*
X219259714Y-109526666D01*
X219354952Y-109574285D01*
X219402571Y-109621904D01*
X219450190Y-109717142D01*
X219450190Y-110098095D01*
X219021619Y-109145714D02*
X218974000Y-109098095D01*
X218926380Y-109002857D01*
X218926380Y-108764761D01*
X218974000Y-108669523D01*
X219021619Y-108621904D01*
X219116857Y-108574285D01*
X219212095Y-108574285D01*
X219354952Y-108621904D01*
X219926380Y-109193333D01*
X219926380Y-108574285D01*
X225006380Y-109526666D02*
X224530190Y-109860000D01*
X225006380Y-110098095D02*
X224006380Y-110098095D01*
X224006380Y-109717142D01*
X224054000Y-109621904D01*
X224101619Y-109574285D01*
X224196857Y-109526666D01*
X224339714Y-109526666D01*
X224434952Y-109574285D01*
X224482571Y-109621904D01*
X224530190Y-109717142D01*
X224530190Y-110098095D01*
X225006380Y-108574285D02*
X225006380Y-109145714D01*
X225006380Y-108860000D02*
X224006380Y-108860000D01*
X224149238Y-108955238D01*
X224244476Y-109050476D01*
X224292095Y-109145714D01*
X252117333Y-115853142D02*
X252069714Y-115900761D01*
X251926857Y-115948380D01*
X251831619Y-115948380D01*
X251688761Y-115900761D01*
X251593523Y-115805523D01*
X251545904Y-115710285D01*
X251498285Y-115519809D01*
X251498285Y-115376952D01*
X251545904Y-115186476D01*
X251593523Y-115091238D01*
X251688761Y-114996000D01*
X251831619Y-114948380D01*
X251926857Y-114948380D01*
X252069714Y-114996000D01*
X252117333Y-115043619D01*
X252974476Y-115281714D02*
X252974476Y-115948380D01*
X252736380Y-114900761D02*
X252498285Y-115615047D01*
X253117333Y-115615047D01*
X235861333Y-115853142D02*
X235813714Y-115900761D01*
X235670857Y-115948380D01*
X235575619Y-115948380D01*
X235432761Y-115900761D01*
X235337523Y-115805523D01*
X235289904Y-115710285D01*
X235242285Y-115519809D01*
X235242285Y-115376952D01*
X235289904Y-115186476D01*
X235337523Y-115091238D01*
X235432761Y-114996000D01*
X235575619Y-114948380D01*
X235670857Y-114948380D01*
X235813714Y-114996000D01*
X235861333Y-115043619D01*
X236194666Y-114948380D02*
X236813714Y-114948380D01*
X236480380Y-115329333D01*
X236623238Y-115329333D01*
X236718476Y-115376952D01*
X236766095Y-115424571D01*
X236813714Y-115519809D01*
X236813714Y-115757904D01*
X236766095Y-115853142D01*
X236718476Y-115900761D01*
X236623238Y-115948380D01*
X236337523Y-115948380D01*
X236242285Y-115900761D01*
X236194666Y-115853142D01*
X255713333Y-106709142D02*
X255665714Y-106756761D01*
X255522857Y-106804380D01*
X255427619Y-106804380D01*
X255284761Y-106756761D01*
X255189523Y-106661523D01*
X255141904Y-106566285D01*
X255094285Y-106375809D01*
X255094285Y-106232952D01*
X255141904Y-106042476D01*
X255189523Y-105947238D01*
X255284761Y-105852000D01*
X255427619Y-105804380D01*
X255522857Y-105804380D01*
X255665714Y-105852000D01*
X255713333Y-105899619D01*
X256094285Y-105899619D02*
X256141904Y-105852000D01*
X256237142Y-105804380D01*
X256475238Y-105804380D01*
X256570476Y-105852000D01*
X256618095Y-105899619D01*
X256665714Y-105994857D01*
X256665714Y-106090095D01*
X256618095Y-106232952D01*
X256046666Y-106804380D01*
X256665714Y-106804380D01*
X254189333Y-105145142D02*
X254141714Y-105192761D01*
X253998857Y-105240380D01*
X253903619Y-105240380D01*
X253760761Y-105192761D01*
X253665523Y-105097523D01*
X253617904Y-105002285D01*
X253570285Y-104811809D01*
X253570285Y-104668952D01*
X253617904Y-104478476D01*
X253665523Y-104383238D01*
X253760761Y-104288000D01*
X253903619Y-104240380D01*
X253998857Y-104240380D01*
X254141714Y-104288000D01*
X254189333Y-104335619D01*
X255141714Y-105240380D02*
X254570285Y-105240380D01*
X254856000Y-105240380D02*
X254856000Y-104240380D01*
X254760761Y-104383238D01*
X254665523Y-104478476D01*
X254570285Y-104526095D01*
M02*
