M48
; DRILL file {KiCad (5.1.4)-1} date 11/5/2019 5:04:39 PM
; FORMAT={-:-/ absolute / inch / decimal}
; #@! TF.CreationDate,2019-11-05T17:04:39-05:00
; #@! TF.GenerationSoftware,Kicad,Pcbnew,(5.1.4)-1
; #@! TF.FileFunction,Plated,1,2,PTH
FMAT,2
INCH
T1C0.0236
T2C0.0315
T3C0.0394
T4C0.0669
%
G90
G05
T1
X8.9069Y-4.0055
T2
X8.734Y-4.1055
X8.734Y-4.5055
X9.154Y-4.1655
X9.154Y-4.4655
X9.254Y-4.1655
X9.254Y-4.4655
X9.354Y-4.1655
X9.354Y-4.4655
X9.454Y-4.1655
X9.454Y-4.4655
X8.724Y-4.8555
X8.724Y-5.1555
X8.824Y-4.8555
X8.824Y-5.1555
X8.924Y-4.8555
X8.924Y-5.1555
X9.024Y-4.8555
X9.024Y-5.1555
X9.124Y-4.8555
X9.124Y-5.1555
X9.224Y-4.8555
X9.224Y-5.1555
X9.324Y-4.8555
X9.324Y-5.1555
X10.214Y-4.1255
X10.214Y-4.5255
X9.194Y-4.6455
X9.3909Y-4.6455
X9.594Y-4.1655
X9.594Y-4.4655
X9.694Y-4.1655
X9.694Y-4.4655
X9.794Y-4.1655
X9.794Y-4.4655
X9.894Y-4.1655
X9.894Y-4.4655
X8.934Y-4.1055
X8.934Y-4.5055
X9.834Y-4.6455
X10.0309Y-4.6455
X9.914Y-4.0255
X10.1109Y-4.0255
X10.074Y-4.2671
X10.074Y-4.3655
T3
X8.2035Y-3.7886
X8.2035Y-3.8886
X8.3035Y-3.7886
X8.3035Y-3.8886
X8.4035Y-3.7886
X8.4035Y-3.8886
X8.5035Y-3.7886
X8.5035Y-3.8886
X8.6035Y-3.7886
X8.6035Y-3.8886
X8.7035Y-3.7886
X8.7035Y-3.8886
X8.8035Y-3.7886
X8.8035Y-3.8886
X8.9035Y-3.7886
X8.9035Y-3.8886
X9.0035Y-3.7886
X9.0035Y-3.8886
X9.1035Y-3.7886
X9.1035Y-3.8886
X9.2035Y-3.7886
X9.2035Y-3.8886
X9.3035Y-3.7886
X9.3035Y-3.8886
X9.4035Y-3.7886
X9.4035Y-3.8886
X9.5035Y-3.7886
X9.5035Y-3.8886
X9.6035Y-3.7886
X9.6035Y-3.8886
X9.7035Y-3.7886
X9.7035Y-3.8886
X9.8035Y-3.7886
X9.8035Y-3.8886
X9.9035Y-3.7886
X9.9035Y-3.8886
X10.0035Y-3.7886
X10.0035Y-3.8886
X10.1035Y-3.7886
X10.1035Y-3.8886
T4
X9.0122Y-5.7055
X9.1681Y-5.7055
X9.324Y-5.7055
T3
G00X8.2969Y-5.6516
M15
G01X8.2969Y-5.7106
M16
G05
G00X8.4346Y-5.4055
M15
G01X8.5134Y-5.4055
M16
G05
G00X8.4484Y-5.6417
M15
G01X8.4996Y-5.6417
M16
G05
G00X8.6512Y-5.6516
M15
G01X8.6512Y-5.7106
M16
G05
G00X8.034Y-4.2652
M15
G01X8.034Y-4.2258
M16
G05
G00X8.1285Y-4.1865
M15
G01X8.1285Y-4.1471
M16
G05
G00X8.345Y-4.1865
M15
G01X8.345Y-4.1471
M16
G05
T0
M30
