G04 #@! TF.GenerationSoftware,KiCad,Pcbnew,(5.1.4)-1*
G04 #@! TF.CreationDate,2019-11-05T17:04:05-05:00*
G04 #@! TF.ProjectId,graphic_equalizer_expansion_pi,67726170-6869-4635-9f65-7175616c697a,rev?*
G04 #@! TF.SameCoordinates,Original*
G04 #@! TF.FileFunction,Copper,L1,Top*
G04 #@! TF.FilePolarity,Positive*
%FSLAX46Y46*%
G04 Gerber Fmt 4.6, Leading zero omitted, Abs format (unit mm)*
G04 Created by KiCad (PCBNEW (5.1.4)-1) date 2019-11-05 17:04:05*
%MOMM*%
%LPD*%
G04 APERTURE LIST*
%ADD10O,2.000000X3.500000*%
%ADD11O,3.300000X2.000000*%
%ADD12R,4.000000X2.000000*%
%ADD13O,1.800000X2.800000*%
%ADD14O,1.600000X1.600000*%
%ADD15R,1.600000X1.600000*%
%ADD16C,2.700000*%
%ADD17C,0.150000*%
%ADD18C,1.600000*%
%ADD19R,1.700000X1.700000*%
%ADD20O,1.700000X1.700000*%
%ADD21C,0.900000*%
%ADD22C,0.500000*%
%ADD23C,0.200000*%
%ADD24C,0.254000*%
G04 APERTURE END LIST*
D10*
X219740000Y-144300000D03*
X210740000Y-144300000D03*
D11*
X215240000Y-143300000D03*
D12*
X215240000Y-137300000D03*
D13*
X211964000Y-105836000D03*
X206464000Y-105836000D03*
X204064000Y-107836000D03*
D14*
X221590000Y-123330000D03*
X236830000Y-130950000D03*
X224130000Y-123330000D03*
X234290000Y-130950000D03*
X226670000Y-123330000D03*
X231750000Y-130950000D03*
X229210000Y-123330000D03*
X229210000Y-130950000D03*
X231750000Y-123330000D03*
X226670000Y-130950000D03*
X234290000Y-123330000D03*
X224130000Y-130950000D03*
X236830000Y-123330000D03*
D15*
X221590000Y-130950000D03*
D16*
X228910000Y-144920000D03*
X232870000Y-144920000D03*
D17*
G36*
X237954503Y-143571204D02*
G01*
X237978772Y-143574804D01*
X238002570Y-143580765D01*
X238025670Y-143589030D01*
X238047849Y-143599520D01*
X238068892Y-143612133D01*
X238088598Y-143626748D01*
X238106776Y-143643224D01*
X238123252Y-143661402D01*
X238137867Y-143681108D01*
X238150480Y-143702151D01*
X238160970Y-143724330D01*
X238169235Y-143747430D01*
X238175196Y-143771228D01*
X238178796Y-143795497D01*
X238180000Y-143820001D01*
X238180000Y-146019999D01*
X238178796Y-146044503D01*
X238175196Y-146068772D01*
X238169235Y-146092570D01*
X238160970Y-146115670D01*
X238150480Y-146137849D01*
X238137867Y-146158892D01*
X238123252Y-146178598D01*
X238106776Y-146196776D01*
X238088598Y-146213252D01*
X238068892Y-146227867D01*
X238047849Y-146240480D01*
X238025670Y-146250970D01*
X238002570Y-146259235D01*
X237978772Y-146265196D01*
X237954503Y-146268796D01*
X237929999Y-146270000D01*
X235730001Y-146270000D01*
X235705497Y-146268796D01*
X235681228Y-146265196D01*
X235657430Y-146259235D01*
X235634330Y-146250970D01*
X235612151Y-146240480D01*
X235591108Y-146227867D01*
X235571402Y-146213252D01*
X235553224Y-146196776D01*
X235536748Y-146178598D01*
X235522133Y-146158892D01*
X235509520Y-146137849D01*
X235499030Y-146115670D01*
X235490765Y-146092570D01*
X235484804Y-146068772D01*
X235481204Y-146044503D01*
X235480000Y-146019999D01*
X235480000Y-143820001D01*
X235481204Y-143795497D01*
X235484804Y-143771228D01*
X235490765Y-143747430D01*
X235499030Y-143724330D01*
X235509520Y-143702151D01*
X235522133Y-143681108D01*
X235536748Y-143661402D01*
X235553224Y-143643224D01*
X235571402Y-143626748D01*
X235591108Y-143612133D01*
X235612151Y-143599520D01*
X235634330Y-143589030D01*
X235657430Y-143580765D01*
X235681228Y-143574804D01*
X235705497Y-143571204D01*
X235730001Y-143570000D01*
X237929999Y-143570000D01*
X237954503Y-143571204D01*
X237954503Y-143571204D01*
G37*
D16*
X236830000Y-144920000D03*
D14*
X232512000Y-105804000D03*
X240132000Y-113424000D03*
X235052000Y-105804000D03*
X237592000Y-113424000D03*
X237592000Y-105804000D03*
X235052000Y-113424000D03*
X240132000Y-105804000D03*
D15*
X232512000Y-113424000D03*
D14*
X251308000Y-113424000D03*
X243688000Y-105804000D03*
X248768000Y-113424000D03*
X246228000Y-105804000D03*
X246228000Y-113424000D03*
X248768000Y-105804000D03*
X243688000Y-113424000D03*
D15*
X251308000Y-105804000D03*
D14*
X259436000Y-114948000D03*
D18*
X259436000Y-104788000D03*
D14*
X221844000Y-104280000D03*
D18*
X221844000Y-114440000D03*
D14*
X226924000Y-104280000D03*
D18*
X226924000Y-114440000D03*
X254784000Y-117996000D03*
X249784000Y-117996000D03*
X238528000Y-117996000D03*
X233528000Y-117996000D03*
X255880000Y-108384000D03*
X255880000Y-110884000D03*
X256816000Y-102248000D03*
X251816000Y-102248000D03*
D19*
X208370000Y-98770000D03*
D20*
X208370000Y-96230000D03*
X210910000Y-98770000D03*
X210910000Y-96230000D03*
X213450000Y-98770000D03*
X213450000Y-96230000D03*
X215990000Y-98770000D03*
X215990000Y-96230000D03*
X218530000Y-98770000D03*
X218530000Y-96230000D03*
X221070000Y-98770000D03*
X221070000Y-96230000D03*
X223610000Y-98770000D03*
X223610000Y-96230000D03*
X226150000Y-98770000D03*
X226150000Y-96230000D03*
X228690000Y-98770000D03*
X228690000Y-96230000D03*
X231230000Y-98770000D03*
X231230000Y-96230000D03*
X233770000Y-98770000D03*
X233770000Y-96230000D03*
X236310000Y-98770000D03*
X236310000Y-96230000D03*
X238850000Y-98770000D03*
X238850000Y-96230000D03*
X241390000Y-98770000D03*
X241390000Y-96230000D03*
X243930000Y-98770000D03*
X243930000Y-96230000D03*
X246470000Y-98770000D03*
X246470000Y-96230000D03*
X249010000Y-98770000D03*
X249010000Y-96230000D03*
X251550000Y-98770000D03*
X251550000Y-96230000D03*
X254090000Y-98770000D03*
X254090000Y-96230000D03*
X256630000Y-98770000D03*
X256630000Y-96230000D03*
D21*
X226234002Y-101740000D03*
D22*
X259356000Y-104788000D02*
X256816000Y-102248000D01*
X259436000Y-104788000D02*
X259356000Y-104788000D01*
X254864000Y-102248000D02*
X251308000Y-105804000D01*
X256816000Y-102248000D02*
X254864000Y-102248000D01*
X233311999Y-106603999D02*
X232512000Y-105804000D01*
X233762001Y-107054001D02*
X233311999Y-106603999D01*
X250057999Y-107054001D02*
X233762001Y-107054001D01*
X251308000Y-105804000D02*
X250057999Y-107054001D01*
X232512000Y-105804000D02*
X232512000Y-113424000D01*
X207520001Y-97079999D02*
X208370000Y-96230000D01*
X207069999Y-97530001D02*
X207520001Y-97079999D01*
X207069999Y-99980001D02*
X207069999Y-97530001D01*
X207159999Y-100070001D02*
X207069999Y-99980001D01*
X226778001Y-100070001D02*
X207159999Y-100070001D01*
X232512000Y-105804000D02*
X226778001Y-100070001D01*
X232512000Y-114724000D02*
X232512000Y-113424000D01*
X234778001Y-116990001D02*
X232512000Y-114724000D01*
X234778001Y-118596001D02*
X234778001Y-116990001D01*
X234128001Y-119246001D02*
X234778001Y-118596001D01*
X225673999Y-119246001D02*
X234128001Y-119246001D01*
X221590000Y-123330000D02*
X225673999Y-119246001D01*
X259436000Y-114440000D02*
X259436000Y-114948000D01*
X255880000Y-110884000D02*
X259436000Y-114440000D01*
X253848000Y-110884000D02*
X251308000Y-113424000D01*
X255880000Y-110884000D02*
X253848000Y-110884000D01*
X243100000Y-113424000D02*
X243688000Y-113424000D01*
X238528000Y-117996000D02*
X243100000Y-113424000D01*
X221844000Y-114440000D02*
X226924000Y-114440000D01*
X232396630Y-117996000D02*
X233528000Y-117996000D01*
X229348630Y-117996000D02*
X232396630Y-117996000D01*
X226924000Y-115571370D02*
X229348630Y-117996000D01*
X226924000Y-114440000D02*
X226924000Y-115571370D01*
X246228000Y-114555370D02*
X246228000Y-113424000D01*
X246228000Y-115571370D02*
X246228000Y-114555370D01*
X248652630Y-117996000D02*
X246228000Y-115571370D01*
X249784000Y-117996000D02*
X248652630Y-117996000D01*
X225368000Y-105836000D02*
X226924000Y-104280000D01*
X211964000Y-105836000D02*
X225368000Y-105836000D01*
X221044001Y-103480001D02*
X221844000Y-104280000D01*
X208819999Y-103480001D02*
X221044001Y-103480001D01*
X206464000Y-105836000D02*
X208819999Y-103480001D01*
D23*
X233770000Y-101982000D02*
X233770000Y-98770000D01*
X237592000Y-105804000D02*
X233770000Y-101982000D01*
X235460001Y-97920001D02*
X236310000Y-98770000D01*
X235159999Y-97619999D02*
X235460001Y-97920001D01*
X233217999Y-97619999D02*
X235159999Y-97619999D01*
X232619999Y-98217999D02*
X233217999Y-97619999D01*
X232619999Y-103371999D02*
X232619999Y-98217999D01*
X235052000Y-105804000D02*
X232619999Y-103371999D01*
X237159999Y-97079999D02*
X236310000Y-96230000D01*
X237460001Y-97380001D02*
X237159999Y-97079999D01*
X237460001Y-102000631D02*
X237460001Y-97380001D01*
X240132000Y-104672630D02*
X237460001Y-102000631D01*
X240132000Y-105804000D02*
X240132000Y-104672630D01*
D22*
X237592000Y-113424000D02*
X240132000Y-113424000D01*
X226670000Y-138720000D02*
X232870000Y-144920000D01*
X226670000Y-130950000D02*
X226670000Y-138720000D01*
D23*
X224130000Y-101740000D02*
X224130000Y-101740000D01*
D22*
X223330001Y-130150001D02*
X224130000Y-130950000D01*
X220339999Y-127159999D02*
X223330001Y-130150001D01*
X220339999Y-114093999D02*
X220339999Y-127159999D01*
X228174001Y-103679999D02*
X228174001Y-106259997D01*
X228174001Y-106259997D02*
X220339999Y-114093999D01*
X226234002Y-101740000D02*
X226234002Y-101740000D01*
X226234002Y-101740000D02*
X228174001Y-103679999D01*
D24*
G36*
X262449016Y-94732312D02*
G01*
X262880930Y-94862714D01*
X263279285Y-95074524D01*
X263628914Y-95359675D01*
X263916497Y-95707303D01*
X264131086Y-96104177D01*
X264264498Y-96535161D01*
X264315001Y-97015663D01*
X264315000Y-146966495D01*
X264267688Y-147449016D01*
X264137287Y-147880927D01*
X263925480Y-148279280D01*
X263640325Y-148628914D01*
X263292697Y-148916497D01*
X262895825Y-149131085D01*
X262464834Y-149264500D01*
X261984346Y-149315000D01*
X203033504Y-149315000D01*
X202550984Y-149267688D01*
X202119073Y-149137287D01*
X201720720Y-148925480D01*
X201371086Y-148640325D01*
X201083503Y-148292697D01*
X200868915Y-147895825D01*
X200735500Y-147464834D01*
X200685000Y-146984346D01*
X200685000Y-146304495D01*
X201515000Y-146304495D01*
X201515000Y-146695505D01*
X201591282Y-147079003D01*
X201740915Y-147440250D01*
X201958149Y-147765364D01*
X202234636Y-148041851D01*
X202559750Y-148259085D01*
X202920997Y-148408718D01*
X203304495Y-148485000D01*
X203695505Y-148485000D01*
X204079003Y-148408718D01*
X204440250Y-148259085D01*
X204765364Y-148041851D01*
X205041851Y-147765364D01*
X205259085Y-147440250D01*
X205408718Y-147079003D01*
X205485000Y-146695505D01*
X205485000Y-146304495D01*
X205408718Y-145920997D01*
X205259085Y-145559750D01*
X205041851Y-145234636D01*
X204765364Y-144958149D01*
X204440250Y-144740915D01*
X204079003Y-144591282D01*
X203695505Y-144515000D01*
X203304495Y-144515000D01*
X202920997Y-144591282D01*
X202559750Y-144740915D01*
X202234636Y-144958149D01*
X201958149Y-145234636D01*
X201740915Y-145559750D01*
X201591282Y-145920997D01*
X201515000Y-146304495D01*
X200685000Y-146304495D01*
X200685000Y-143469679D01*
X209105000Y-143469679D01*
X209105000Y-145130322D01*
X209128657Y-145370516D01*
X209222149Y-145678715D01*
X209373970Y-145962752D01*
X209578287Y-146211714D01*
X209827249Y-146416031D01*
X210111286Y-146567852D01*
X210419485Y-146661343D01*
X210740000Y-146692911D01*
X211060516Y-146661343D01*
X211368715Y-146567852D01*
X211652752Y-146416031D01*
X211901714Y-146211714D01*
X212106031Y-145962752D01*
X212257852Y-145678715D01*
X212351343Y-145370516D01*
X212375000Y-145130322D01*
X212375000Y-143680434D01*
X212999876Y-143680434D01*
X213030856Y-143808355D01*
X213159990Y-144102761D01*
X213344078Y-144366317D01*
X213576046Y-144588895D01*
X213846980Y-144761942D01*
X214146468Y-144878807D01*
X214463000Y-144935000D01*
X214785568Y-144935000D01*
X214560273Y-145028320D01*
X214325241Y-145185363D01*
X214125363Y-145385241D01*
X213968320Y-145620273D01*
X213860147Y-145881426D01*
X213805000Y-146158665D01*
X213805000Y-146441335D01*
X213860147Y-146718574D01*
X213968320Y-146979727D01*
X214125363Y-147214759D01*
X214325241Y-147414637D01*
X214560273Y-147571680D01*
X214821426Y-147679853D01*
X215098665Y-147735000D01*
X215381335Y-147735000D01*
X215658574Y-147679853D01*
X215919727Y-147571680D01*
X216154759Y-147414637D01*
X216354637Y-147214759D01*
X216511680Y-146979727D01*
X216619853Y-146718574D01*
X216675000Y-146441335D01*
X216675000Y-146158665D01*
X216619853Y-145881426D01*
X216511680Y-145620273D01*
X216354637Y-145385241D01*
X216154759Y-145185363D01*
X215919727Y-145028320D01*
X215694432Y-144935000D01*
X216017000Y-144935000D01*
X216333532Y-144878807D01*
X216633020Y-144761942D01*
X216903954Y-144588895D01*
X217135922Y-144366317D01*
X217320010Y-144102761D01*
X217449144Y-143808355D01*
X217480124Y-143680434D01*
X217380876Y-143469679D01*
X218105000Y-143469679D01*
X218105000Y-145130322D01*
X218128657Y-145370516D01*
X218222149Y-145678715D01*
X218373970Y-145962752D01*
X218578287Y-146211714D01*
X218827249Y-146416031D01*
X219111286Y-146567852D01*
X219419485Y-146661343D01*
X219740000Y-146692911D01*
X220060516Y-146661343D01*
X220368715Y-146567852D01*
X220652752Y-146416031D01*
X220788241Y-146304838D01*
X227704767Y-146304838D01*
X227842724Y-146605044D01*
X228191967Y-146780882D01*
X228568804Y-146885207D01*
X228958753Y-146914009D01*
X229346828Y-146866184D01*
X229718116Y-146743568D01*
X229977276Y-146605044D01*
X230115233Y-146304838D01*
X228910000Y-145099605D01*
X227704767Y-146304838D01*
X220788241Y-146304838D01*
X220901714Y-146211714D01*
X221106031Y-145962752D01*
X221257852Y-145678715D01*
X221351343Y-145370516D01*
X221375000Y-145130322D01*
X221375000Y-144968753D01*
X226915991Y-144968753D01*
X226963816Y-145356828D01*
X227086432Y-145728116D01*
X227224956Y-145987276D01*
X227525162Y-146125233D01*
X228730395Y-144920000D01*
X227525162Y-143714767D01*
X227224956Y-143852724D01*
X227049118Y-144201967D01*
X226944793Y-144578804D01*
X226915991Y-144968753D01*
X221375000Y-144968753D01*
X221375000Y-143469678D01*
X221351343Y-143229484D01*
X221257852Y-142921285D01*
X221106031Y-142637248D01*
X220901714Y-142388286D01*
X220652751Y-142183969D01*
X220368714Y-142032148D01*
X220060515Y-141938657D01*
X219740000Y-141907089D01*
X219419484Y-141938657D01*
X219111285Y-142032148D01*
X218827248Y-142183969D01*
X218578286Y-142388286D01*
X218373969Y-142637249D01*
X218222148Y-142921286D01*
X218128657Y-143229485D01*
X218105000Y-143469679D01*
X217380876Y-143469679D01*
X217360777Y-143427000D01*
X215367000Y-143427000D01*
X215367000Y-143447000D01*
X215113000Y-143447000D01*
X215113000Y-143427000D01*
X213119223Y-143427000D01*
X212999876Y-143680434D01*
X212375000Y-143680434D01*
X212375000Y-143469678D01*
X212351343Y-143229484D01*
X212257852Y-142921285D01*
X212256934Y-142919566D01*
X212999876Y-142919566D01*
X213119223Y-143173000D01*
X215113000Y-143173000D01*
X215113000Y-141665000D01*
X215367000Y-141665000D01*
X215367000Y-143173000D01*
X217360777Y-143173000D01*
X217480124Y-142919566D01*
X217449144Y-142791645D01*
X217320010Y-142497239D01*
X217135922Y-142233683D01*
X216903954Y-142011105D01*
X216633020Y-141838058D01*
X216333532Y-141721193D01*
X216017000Y-141665000D01*
X215367000Y-141665000D01*
X215113000Y-141665000D01*
X214463000Y-141665000D01*
X214146468Y-141721193D01*
X213846980Y-141838058D01*
X213576046Y-142011105D01*
X213344078Y-142233683D01*
X213159990Y-142497239D01*
X213030856Y-142791645D01*
X212999876Y-142919566D01*
X212256934Y-142919566D01*
X212106031Y-142637248D01*
X211901714Y-142388286D01*
X211652751Y-142183969D01*
X211368714Y-142032148D01*
X211060515Y-141938657D01*
X210740000Y-141907089D01*
X210419484Y-141938657D01*
X210111285Y-142032148D01*
X209827248Y-142183969D01*
X209578286Y-142388286D01*
X209373969Y-142637249D01*
X209222148Y-142921286D01*
X209128657Y-143229485D01*
X209105000Y-143469679D01*
X200685000Y-143469679D01*
X200685000Y-136300000D01*
X212601928Y-136300000D01*
X212601928Y-138300000D01*
X212614188Y-138424482D01*
X212650498Y-138544180D01*
X212709463Y-138654494D01*
X212788815Y-138751185D01*
X212885506Y-138830537D01*
X212995820Y-138889502D01*
X213115518Y-138925812D01*
X213240000Y-138938072D01*
X217240000Y-138938072D01*
X217364482Y-138925812D01*
X217484180Y-138889502D01*
X217594494Y-138830537D01*
X217691185Y-138751185D01*
X217770537Y-138654494D01*
X217829502Y-138544180D01*
X217865812Y-138424482D01*
X217878072Y-138300000D01*
X217878072Y-136300000D01*
X217865812Y-136175518D01*
X217829502Y-136055820D01*
X217770537Y-135945506D01*
X217691185Y-135848815D01*
X217594494Y-135769463D01*
X217484180Y-135710498D01*
X217364482Y-135674188D01*
X217240000Y-135661928D01*
X213240000Y-135661928D01*
X213115518Y-135674188D01*
X212995820Y-135710498D01*
X212885506Y-135769463D01*
X212788815Y-135848815D01*
X212709463Y-135945506D01*
X212650498Y-136055820D01*
X212614188Y-136175518D01*
X212601928Y-136300000D01*
X200685000Y-136300000D01*
X200685000Y-131750000D01*
X220151928Y-131750000D01*
X220164188Y-131874482D01*
X220200498Y-131994180D01*
X220259463Y-132104494D01*
X220338815Y-132201185D01*
X220435506Y-132280537D01*
X220545820Y-132339502D01*
X220665518Y-132375812D01*
X220790000Y-132388072D01*
X221304250Y-132385000D01*
X221463000Y-132226250D01*
X221463000Y-131077000D01*
X220313750Y-131077000D01*
X220155000Y-131235750D01*
X220151928Y-131750000D01*
X200685000Y-131750000D01*
X200685000Y-131185000D01*
X204533647Y-131185000D01*
X204562601Y-131182148D01*
X204565573Y-131182169D01*
X204575092Y-131181236D01*
X204623218Y-131176178D01*
X204634283Y-131175088D01*
X204634652Y-131174976D01*
X204672140Y-131171036D01*
X204732990Y-131158545D01*
X204793942Y-131146918D01*
X204803096Y-131144155D01*
X204803102Y-131144153D01*
X204896317Y-131115298D01*
X204953533Y-131091246D01*
X205011119Y-131067980D01*
X205019564Y-131063490D01*
X205105401Y-131017077D01*
X205156867Y-130982362D01*
X205208821Y-130948364D01*
X205216232Y-130942320D01*
X205291421Y-130880118D01*
X205335162Y-130836070D01*
X205379522Y-130792631D01*
X205385618Y-130785261D01*
X205385623Y-130785256D01*
X205385627Y-130785250D01*
X205447294Y-130709640D01*
X205481632Y-130657959D01*
X205516733Y-130606694D01*
X205521282Y-130598281D01*
X205567094Y-130512120D01*
X205590758Y-130454704D01*
X205615208Y-130397661D01*
X205618036Y-130388525D01*
X205646241Y-130295107D01*
X205658303Y-130234187D01*
X205671209Y-130173470D01*
X205672209Y-130163958D01*
X205681731Y-130066841D01*
X205681731Y-130066837D01*
X205685000Y-130033647D01*
X205685000Y-113966353D01*
X205682148Y-113937399D01*
X205682169Y-113934427D01*
X205681236Y-113924909D01*
X205676179Y-113876790D01*
X205675088Y-113865717D01*
X205674976Y-113865348D01*
X205671036Y-113827860D01*
X205658547Y-113767017D01*
X205646918Y-113706058D01*
X205644154Y-113696902D01*
X205615298Y-113603683D01*
X205591232Y-113546434D01*
X205567979Y-113488881D01*
X205563489Y-113480436D01*
X205517077Y-113394598D01*
X205482350Y-113343115D01*
X205448364Y-113291179D01*
X205442320Y-113283767D01*
X205380118Y-113208579D01*
X205336051Y-113164818D01*
X205292630Y-113120478D01*
X205285261Y-113114381D01*
X205209640Y-113052706D01*
X205157959Y-113018368D01*
X205106694Y-112983267D01*
X205098281Y-112978718D01*
X205012120Y-112932906D01*
X204954704Y-112909242D01*
X204897661Y-112884792D01*
X204888525Y-112881964D01*
X204795107Y-112853759D01*
X204734195Y-112841698D01*
X204673471Y-112828791D01*
X204663959Y-112827791D01*
X204566841Y-112818269D01*
X204566837Y-112818269D01*
X204533647Y-112815000D01*
X200685000Y-112815000D01*
X200685000Y-107963000D01*
X202529000Y-107963000D01*
X202529000Y-108463000D01*
X202583271Y-108760023D01*
X202694446Y-109040751D01*
X202858252Y-109294396D01*
X203068394Y-109511210D01*
X203316796Y-109682862D01*
X203593913Y-109802755D01*
X203699260Y-109827036D01*
X203937000Y-109706378D01*
X203937000Y-107963000D01*
X204191000Y-107963000D01*
X204191000Y-109706378D01*
X204428740Y-109827036D01*
X204534087Y-109802755D01*
X204811204Y-109682862D01*
X205059606Y-109511210D01*
X205269748Y-109294396D01*
X205433554Y-109040751D01*
X205544729Y-108760023D01*
X205599000Y-108463000D01*
X205599000Y-107963000D01*
X204191000Y-107963000D01*
X203937000Y-107963000D01*
X202529000Y-107963000D01*
X200685000Y-107963000D01*
X200685000Y-107209000D01*
X202529000Y-107209000D01*
X202529000Y-107709000D01*
X203937000Y-107709000D01*
X203937000Y-105965622D01*
X204191000Y-105965622D01*
X204191000Y-107709000D01*
X205599000Y-107709000D01*
X205599000Y-107611855D01*
X205607074Y-107618481D01*
X205873740Y-107761017D01*
X206163088Y-107848790D01*
X206464000Y-107878427D01*
X206764913Y-107848790D01*
X207054261Y-107761017D01*
X207320927Y-107618481D01*
X207554661Y-107426661D01*
X207746481Y-107192927D01*
X207889017Y-106926261D01*
X207976790Y-106636913D01*
X207999000Y-106411408D01*
X207999000Y-105552578D01*
X209186578Y-104365001D01*
X210775136Y-104365001D01*
X210681519Y-104479074D01*
X210538983Y-104745740D01*
X210451210Y-105035088D01*
X210429000Y-105260593D01*
X210429000Y-106411408D01*
X210451210Y-106636913D01*
X210538983Y-106926261D01*
X210681519Y-107192927D01*
X210873340Y-107426661D01*
X211107074Y-107618481D01*
X211373740Y-107761017D01*
X211663088Y-107848790D01*
X211964000Y-107878427D01*
X212264913Y-107848790D01*
X212554261Y-107761017D01*
X212820927Y-107618481D01*
X213054661Y-107426661D01*
X213246481Y-107192927D01*
X213389017Y-106926261D01*
X213451282Y-106721000D01*
X225324531Y-106721000D01*
X225368000Y-106725281D01*
X225411469Y-106721000D01*
X225411477Y-106721000D01*
X225541490Y-106708195D01*
X225708313Y-106657589D01*
X225862059Y-106575411D01*
X225996817Y-106464817D01*
X226024534Y-106431044D01*
X226750704Y-105704875D01*
X226853508Y-105715000D01*
X226994492Y-105715000D01*
X227205309Y-105694236D01*
X227289002Y-105668848D01*
X227289002Y-105893417D01*
X219744955Y-113437465D01*
X219711182Y-113465182D01*
X219600588Y-113599941D01*
X219518410Y-113753687D01*
X219489867Y-113847780D01*
X219468548Y-113918059D01*
X219467804Y-113920510D01*
X219454999Y-114050523D01*
X219454999Y-114050530D01*
X219450718Y-114093999D01*
X219454999Y-114137468D01*
X219455000Y-127116520D01*
X219450718Y-127159999D01*
X219467804Y-127333489D01*
X219518411Y-127500312D01*
X219600589Y-127654058D01*
X219683467Y-127755045D01*
X219683470Y-127755048D01*
X219711183Y-127788816D01*
X219744950Y-127816528D01*
X221462998Y-129534577D01*
X221462998Y-129673748D01*
X221304250Y-129515000D01*
X220790000Y-129511928D01*
X220665518Y-129524188D01*
X220545820Y-129560498D01*
X220435506Y-129619463D01*
X220338815Y-129698815D01*
X220259463Y-129795506D01*
X220200498Y-129905820D01*
X220164188Y-130025518D01*
X220151928Y-130150000D01*
X220155000Y-130664250D01*
X220313750Y-130823000D01*
X221463000Y-130823000D01*
X221463000Y-130803000D01*
X221717000Y-130803000D01*
X221717000Y-130823000D01*
X221737000Y-130823000D01*
X221737000Y-131077000D01*
X221717000Y-131077000D01*
X221717000Y-132226250D01*
X221875750Y-132385000D01*
X222390000Y-132388072D01*
X222514482Y-132375812D01*
X222634180Y-132339502D01*
X222744494Y-132280537D01*
X222841185Y-132201185D01*
X222920537Y-132104494D01*
X222979502Y-131994180D01*
X223015812Y-131874482D01*
X223017581Y-131856518D01*
X223110392Y-131969608D01*
X223328899Y-132148932D01*
X223578192Y-132282182D01*
X223848691Y-132364236D01*
X224059508Y-132385000D01*
X224200492Y-132385000D01*
X224411309Y-132364236D01*
X224681808Y-132282182D01*
X224931101Y-132148932D01*
X225149608Y-131969608D01*
X225328932Y-131751101D01*
X225400000Y-131618142D01*
X225471068Y-131751101D01*
X225650392Y-131969608D01*
X225785000Y-132080078D01*
X225785001Y-138676521D01*
X225780719Y-138720000D01*
X225797805Y-138893490D01*
X225848412Y-139060313D01*
X225930590Y-139214059D01*
X226013468Y-139315046D01*
X226013471Y-139315049D01*
X226041184Y-139348817D01*
X226074952Y-139376530D01*
X229888863Y-143190441D01*
X229628033Y-143059118D01*
X229251196Y-142954793D01*
X228861247Y-142925991D01*
X228473172Y-142973816D01*
X228101884Y-143096432D01*
X227842724Y-143234956D01*
X227704767Y-143535162D01*
X228910000Y-144740395D01*
X228924143Y-144726253D01*
X229103748Y-144905858D01*
X229089605Y-144920000D01*
X230294838Y-146125233D01*
X230595044Y-145987276D01*
X230770882Y-145638033D01*
X230875207Y-145261196D01*
X230885706Y-145119053D01*
X230961282Y-145499003D01*
X231110915Y-145860250D01*
X231328149Y-146185364D01*
X231604636Y-146461851D01*
X231929750Y-146679085D01*
X232290997Y-146828718D01*
X232674495Y-146905000D01*
X233065505Y-146905000D01*
X233449003Y-146828718D01*
X233810250Y-146679085D01*
X234135364Y-146461851D01*
X234411851Y-146185364D01*
X234629085Y-145860250D01*
X234778718Y-145499003D01*
X234841928Y-145181223D01*
X234841928Y-146019999D01*
X234858992Y-146193253D01*
X234909529Y-146359850D01*
X234991595Y-146513386D01*
X235102039Y-146647961D01*
X235236614Y-146758405D01*
X235390150Y-146840471D01*
X235556747Y-146891008D01*
X235730001Y-146908072D01*
X237929999Y-146908072D01*
X238103253Y-146891008D01*
X238269850Y-146840471D01*
X238423386Y-146758405D01*
X238557961Y-146647961D01*
X238668405Y-146513386D01*
X238750471Y-146359850D01*
X238801008Y-146193253D01*
X238816727Y-146033646D01*
X243315000Y-146033646D01*
X243318366Y-146067821D01*
X243318366Y-146080806D01*
X243319366Y-146090318D01*
X243341121Y-146284268D01*
X243354025Y-146344976D01*
X243366089Y-146405901D01*
X243368917Y-146415038D01*
X243427930Y-146601068D01*
X243452377Y-146658105D01*
X243476046Y-146715531D01*
X243480595Y-146723944D01*
X243574617Y-146894969D01*
X243609692Y-146946194D01*
X243644050Y-146997906D01*
X243650146Y-147005276D01*
X243775596Y-147154782D01*
X243819974Y-147198240D01*
X243863703Y-147242275D01*
X243871109Y-147248315D01*
X243871113Y-147248319D01*
X243871115Y-147248320D01*
X244023214Y-147370611D01*
X244075139Y-147404589D01*
X244126632Y-147439322D01*
X244135077Y-147443812D01*
X244308033Y-147534232D01*
X244365590Y-147557487D01*
X244422835Y-147581550D01*
X244431991Y-147584315D01*
X244619217Y-147639418D01*
X244680218Y-147651054D01*
X244741015Y-147663534D01*
X244750533Y-147664468D01*
X244944895Y-147682157D01*
X245006986Y-147681723D01*
X245069066Y-147682156D01*
X245078585Y-147681223D01*
X245272682Y-147660822D01*
X245333496Y-147648339D01*
X245394481Y-147636705D01*
X245403637Y-147633941D01*
X245590075Y-147576229D01*
X245647279Y-147552182D01*
X245704873Y-147528913D01*
X245713317Y-147524423D01*
X245884994Y-147431598D01*
X245936468Y-147396878D01*
X245988418Y-147362883D01*
X245995829Y-147356839D01*
X246146207Y-147232435D01*
X246189973Y-147188362D01*
X246234311Y-147144943D01*
X246240408Y-147137574D01*
X246363758Y-146986332D01*
X246398126Y-146934603D01*
X246433191Y-146883392D01*
X246437739Y-146874981D01*
X246437740Y-146874980D01*
X246437742Y-146874976D01*
X246529366Y-146702657D01*
X246553022Y-146645261D01*
X246577482Y-146588193D01*
X246580310Y-146579056D01*
X246636719Y-146392220D01*
X246648780Y-146331310D01*
X246654479Y-146304495D01*
X259515000Y-146304495D01*
X259515000Y-146695505D01*
X259591282Y-147079003D01*
X259740915Y-147440250D01*
X259958149Y-147765364D01*
X260234636Y-148041851D01*
X260559750Y-148259085D01*
X260920997Y-148408718D01*
X261304495Y-148485000D01*
X261695505Y-148485000D01*
X262079003Y-148408718D01*
X262440250Y-148259085D01*
X262765364Y-148041851D01*
X263041851Y-147765364D01*
X263259085Y-147440250D01*
X263408718Y-147079003D01*
X263485000Y-146695505D01*
X263485000Y-146304495D01*
X263408718Y-145920997D01*
X263259085Y-145559750D01*
X263041851Y-145234636D01*
X262765364Y-144958149D01*
X262440250Y-144740915D01*
X262079003Y-144591282D01*
X261695505Y-144515000D01*
X261304495Y-144515000D01*
X260920997Y-144591282D01*
X260559750Y-144740915D01*
X260234636Y-144958149D01*
X259958149Y-145234636D01*
X259740915Y-145559750D01*
X259591282Y-145920997D01*
X259515000Y-146304495D01*
X246654479Y-146304495D01*
X246661686Y-146270591D01*
X246662686Y-146261079D01*
X246681731Y-146066845D01*
X246681731Y-146066837D01*
X246685000Y-146033647D01*
X246685000Y-130966353D01*
X246681633Y-130932169D01*
X246681633Y-130919193D01*
X246680634Y-130909681D01*
X246658879Y-130715732D01*
X246645975Y-130655024D01*
X246633911Y-130594099D01*
X246631083Y-130584962D01*
X246572070Y-130398932D01*
X246547618Y-130341882D01*
X246523954Y-130284470D01*
X246519405Y-130276056D01*
X246425383Y-130105031D01*
X246390310Y-130053809D01*
X246355951Y-130002094D01*
X246349854Y-129994724D01*
X246224404Y-129845218D01*
X246180046Y-129801779D01*
X246136297Y-129757724D01*
X246128885Y-129751679D01*
X245976785Y-129629389D01*
X245924845Y-129595401D01*
X245873367Y-129560678D01*
X245864923Y-129556187D01*
X245691967Y-129465768D01*
X245634410Y-129442513D01*
X245577165Y-129418450D01*
X245568009Y-129415685D01*
X245380783Y-129360582D01*
X245319775Y-129348945D01*
X245258985Y-129336466D01*
X245249466Y-129335532D01*
X245055105Y-129317843D01*
X244992981Y-129318277D01*
X244930933Y-129317844D01*
X244921426Y-129318776D01*
X244921419Y-129318776D01*
X244921413Y-129318777D01*
X244727318Y-129339178D01*
X244666504Y-129351661D01*
X244605519Y-129363295D01*
X244596363Y-129366059D01*
X244409925Y-129423771D01*
X244352692Y-129447830D01*
X244295127Y-129471087D01*
X244286682Y-129475577D01*
X244115006Y-129568402D01*
X244063532Y-129603122D01*
X244011582Y-129637117D01*
X244004170Y-129643162D01*
X243853793Y-129767565D01*
X243810027Y-129811638D01*
X243765689Y-129855057D01*
X243759592Y-129862426D01*
X243636242Y-130013668D01*
X243601881Y-130065386D01*
X243566809Y-130116607D01*
X243562260Y-130125020D01*
X243470635Y-130297343D01*
X243446978Y-130354739D01*
X243422519Y-130411807D01*
X243419690Y-130420943D01*
X243363281Y-130607780D01*
X243351220Y-130668691D01*
X243338314Y-130729410D01*
X243337314Y-130738922D01*
X243318269Y-130933155D01*
X243318269Y-130933173D01*
X243315001Y-130966353D01*
X243315000Y-146033646D01*
X238816727Y-146033646D01*
X238818072Y-146019999D01*
X238818072Y-143820001D01*
X238801008Y-143646747D01*
X238750471Y-143480150D01*
X238668405Y-143326614D01*
X238557961Y-143192039D01*
X238423386Y-143081595D01*
X238269850Y-142999529D01*
X238103253Y-142948992D01*
X237929999Y-142931928D01*
X235730001Y-142931928D01*
X235556747Y-142948992D01*
X235390150Y-142999529D01*
X235236614Y-143081595D01*
X235102039Y-143192039D01*
X234991595Y-143326614D01*
X234909529Y-143480150D01*
X234858992Y-143646747D01*
X234841928Y-143820001D01*
X234841928Y-144658777D01*
X234778718Y-144340997D01*
X234629085Y-143979750D01*
X234411851Y-143654636D01*
X234135364Y-143378149D01*
X233810250Y-143160915D01*
X233449003Y-143011282D01*
X233065505Y-142935000D01*
X232674495Y-142935000D01*
X232290997Y-143011282D01*
X232235746Y-143034168D01*
X227555000Y-138353422D01*
X227555000Y-132080078D01*
X227689608Y-131969608D01*
X227868932Y-131751101D01*
X227940000Y-131618142D01*
X228011068Y-131751101D01*
X228190392Y-131969608D01*
X228408899Y-132148932D01*
X228658192Y-132282182D01*
X228928691Y-132364236D01*
X229139508Y-132385000D01*
X229280492Y-132385000D01*
X229491309Y-132364236D01*
X229761808Y-132282182D01*
X230011101Y-132148932D01*
X230229608Y-131969608D01*
X230408932Y-131751101D01*
X230480000Y-131618142D01*
X230551068Y-131751101D01*
X230730392Y-131969608D01*
X230948899Y-132148932D01*
X231198192Y-132282182D01*
X231468691Y-132364236D01*
X231679508Y-132385000D01*
X231820492Y-132385000D01*
X232031309Y-132364236D01*
X232301808Y-132282182D01*
X232551101Y-132148932D01*
X232769608Y-131969608D01*
X232948932Y-131751101D01*
X233020000Y-131618142D01*
X233091068Y-131751101D01*
X233270392Y-131969608D01*
X233488899Y-132148932D01*
X233738192Y-132282182D01*
X234008691Y-132364236D01*
X234219508Y-132385000D01*
X234360492Y-132385000D01*
X234571309Y-132364236D01*
X234841808Y-132282182D01*
X235091101Y-132148932D01*
X235309608Y-131969608D01*
X235488932Y-131751101D01*
X235562579Y-131613318D01*
X235677615Y-131805131D01*
X235866586Y-132013519D01*
X236092580Y-132181037D01*
X236346913Y-132301246D01*
X236480961Y-132341904D01*
X236703000Y-132219915D01*
X236703000Y-131077000D01*
X236957000Y-131077000D01*
X236957000Y-132219915D01*
X237179039Y-132341904D01*
X237313087Y-132301246D01*
X237567420Y-132181037D01*
X237793414Y-132013519D01*
X237982385Y-131805131D01*
X238127070Y-131563881D01*
X238221909Y-131299040D01*
X238100624Y-131077000D01*
X236957000Y-131077000D01*
X236703000Y-131077000D01*
X236683000Y-131077000D01*
X236683000Y-130823000D01*
X236703000Y-130823000D01*
X236703000Y-129680085D01*
X236957000Y-129680085D01*
X236957000Y-130823000D01*
X238100624Y-130823000D01*
X238221909Y-130600960D01*
X238127070Y-130336119D01*
X237982385Y-130094869D01*
X237793414Y-129886481D01*
X237567420Y-129718963D01*
X237313087Y-129598754D01*
X237179039Y-129558096D01*
X236957000Y-129680085D01*
X236703000Y-129680085D01*
X236480961Y-129558096D01*
X236346913Y-129598754D01*
X236092580Y-129718963D01*
X235866586Y-129886481D01*
X235677615Y-130094869D01*
X235562579Y-130286682D01*
X235488932Y-130148899D01*
X235309608Y-129930392D01*
X235091101Y-129751068D01*
X234841808Y-129617818D01*
X234571309Y-129535764D01*
X234360492Y-129515000D01*
X234219508Y-129515000D01*
X234008691Y-129535764D01*
X233738192Y-129617818D01*
X233488899Y-129751068D01*
X233270392Y-129930392D01*
X233091068Y-130148899D01*
X233020000Y-130281858D01*
X232948932Y-130148899D01*
X232769608Y-129930392D01*
X232551101Y-129751068D01*
X232301808Y-129617818D01*
X232031309Y-129535764D01*
X231820492Y-129515000D01*
X231679508Y-129515000D01*
X231468691Y-129535764D01*
X231198192Y-129617818D01*
X230948899Y-129751068D01*
X230730392Y-129930392D01*
X230551068Y-130148899D01*
X230480000Y-130281858D01*
X230408932Y-130148899D01*
X230229608Y-129930392D01*
X230011101Y-129751068D01*
X229761808Y-129617818D01*
X229491309Y-129535764D01*
X229280492Y-129515000D01*
X229139508Y-129515000D01*
X228928691Y-129535764D01*
X228658192Y-129617818D01*
X228408899Y-129751068D01*
X228190392Y-129930392D01*
X228011068Y-130148899D01*
X227940000Y-130281858D01*
X227868932Y-130148899D01*
X227689608Y-129930392D01*
X227471101Y-129751068D01*
X227221808Y-129617818D01*
X226951309Y-129535764D01*
X226740492Y-129515000D01*
X226599508Y-129515000D01*
X226388691Y-129535764D01*
X226118192Y-129617818D01*
X225868899Y-129751068D01*
X225650392Y-129930392D01*
X225471068Y-130148899D01*
X225400000Y-130281858D01*
X225328932Y-130148899D01*
X225149608Y-129930392D01*
X224931101Y-129751068D01*
X224681808Y-129617818D01*
X224411309Y-129535764D01*
X224200492Y-129515000D01*
X224059508Y-129515000D01*
X223956704Y-129525125D01*
X221224999Y-126793421D01*
X221224999Y-124718849D01*
X221308691Y-124744236D01*
X221519508Y-124765000D01*
X221660492Y-124765000D01*
X221871309Y-124744236D01*
X222141808Y-124662182D01*
X222391101Y-124528932D01*
X222609608Y-124349608D01*
X222788932Y-124131101D01*
X222860000Y-123998142D01*
X222931068Y-124131101D01*
X223110392Y-124349608D01*
X223328899Y-124528932D01*
X223578192Y-124662182D01*
X223848691Y-124744236D01*
X224059508Y-124765000D01*
X224200492Y-124765000D01*
X224411309Y-124744236D01*
X224681808Y-124662182D01*
X224931101Y-124528932D01*
X225149608Y-124349608D01*
X225328932Y-124131101D01*
X225400000Y-123998142D01*
X225471068Y-124131101D01*
X225650392Y-124349608D01*
X225868899Y-124528932D01*
X226118192Y-124662182D01*
X226388691Y-124744236D01*
X226599508Y-124765000D01*
X226740492Y-124765000D01*
X226951309Y-124744236D01*
X227221808Y-124662182D01*
X227471101Y-124528932D01*
X227689608Y-124349608D01*
X227868932Y-124131101D01*
X227940000Y-123998142D01*
X228011068Y-124131101D01*
X228190392Y-124349608D01*
X228408899Y-124528932D01*
X228658192Y-124662182D01*
X228928691Y-124744236D01*
X229139508Y-124765000D01*
X229280492Y-124765000D01*
X229491309Y-124744236D01*
X229761808Y-124662182D01*
X230011101Y-124528932D01*
X230229608Y-124349608D01*
X230408932Y-124131101D01*
X230480000Y-123998142D01*
X230551068Y-124131101D01*
X230730392Y-124349608D01*
X230948899Y-124528932D01*
X231198192Y-124662182D01*
X231468691Y-124744236D01*
X231679508Y-124765000D01*
X231820492Y-124765000D01*
X232031309Y-124744236D01*
X232301808Y-124662182D01*
X232551101Y-124528932D01*
X232769608Y-124349608D01*
X232948932Y-124131101D01*
X233020000Y-123998142D01*
X233091068Y-124131101D01*
X233270392Y-124349608D01*
X233488899Y-124528932D01*
X233738192Y-124662182D01*
X234008691Y-124744236D01*
X234219508Y-124765000D01*
X234360492Y-124765000D01*
X234571309Y-124744236D01*
X234841808Y-124662182D01*
X235091101Y-124528932D01*
X235309608Y-124349608D01*
X235488932Y-124131101D01*
X235560000Y-123998142D01*
X235631068Y-124131101D01*
X235810392Y-124349608D01*
X236028899Y-124528932D01*
X236278192Y-124662182D01*
X236548691Y-124744236D01*
X236759508Y-124765000D01*
X236900492Y-124765000D01*
X237111309Y-124744236D01*
X237381808Y-124662182D01*
X237631101Y-124528932D01*
X237849608Y-124349608D01*
X238028932Y-124131101D01*
X238162182Y-123881808D01*
X238244236Y-123611309D01*
X238271943Y-123330000D01*
X238244236Y-123048691D01*
X238162182Y-122778192D01*
X238028932Y-122528899D01*
X237849608Y-122310392D01*
X237631101Y-122131068D01*
X237381808Y-121997818D01*
X237111309Y-121915764D01*
X236900492Y-121895000D01*
X236759508Y-121895000D01*
X236548691Y-121915764D01*
X236278192Y-121997818D01*
X236028899Y-122131068D01*
X235810392Y-122310392D01*
X235631068Y-122528899D01*
X235560000Y-122661858D01*
X235488932Y-122528899D01*
X235309608Y-122310392D01*
X235091101Y-122131068D01*
X234841808Y-121997818D01*
X234571309Y-121915764D01*
X234360492Y-121895000D01*
X234219508Y-121895000D01*
X234008691Y-121915764D01*
X233738192Y-121997818D01*
X233488899Y-122131068D01*
X233270392Y-122310392D01*
X233091068Y-122528899D01*
X233020000Y-122661858D01*
X232948932Y-122528899D01*
X232769608Y-122310392D01*
X232551101Y-122131068D01*
X232301808Y-121997818D01*
X232031309Y-121915764D01*
X231820492Y-121895000D01*
X231679508Y-121895000D01*
X231468691Y-121915764D01*
X231198192Y-121997818D01*
X230948899Y-122131068D01*
X230730392Y-122310392D01*
X230551068Y-122528899D01*
X230480000Y-122661858D01*
X230408932Y-122528899D01*
X230229608Y-122310392D01*
X230011101Y-122131068D01*
X229761808Y-121997818D01*
X229491309Y-121915764D01*
X229280492Y-121895000D01*
X229139508Y-121895000D01*
X228928691Y-121915764D01*
X228658192Y-121997818D01*
X228408899Y-122131068D01*
X228190392Y-122310392D01*
X228011068Y-122528899D01*
X227940000Y-122661858D01*
X227868932Y-122528899D01*
X227689608Y-122310392D01*
X227471101Y-122131068D01*
X227221808Y-121997818D01*
X226951309Y-121915764D01*
X226740492Y-121895000D01*
X226599508Y-121895000D01*
X226388691Y-121915764D01*
X226118192Y-121997818D01*
X225868899Y-122131068D01*
X225650392Y-122310392D01*
X225471068Y-122528899D01*
X225400000Y-122661858D01*
X225328932Y-122528899D01*
X225149608Y-122310392D01*
X224931101Y-122131068D01*
X224681808Y-121997818D01*
X224411309Y-121915764D01*
X224269756Y-121901822D01*
X226040578Y-120131001D01*
X234084532Y-120131001D01*
X234128001Y-120135282D01*
X234171470Y-120131001D01*
X234171478Y-120131001D01*
X234301491Y-120118196D01*
X234468314Y-120067590D01*
X234622060Y-119985412D01*
X234756818Y-119874818D01*
X234784535Y-119841045D01*
X235373051Y-119252530D01*
X235406818Y-119224818D01*
X235517412Y-119090060D01*
X235599590Y-118936314D01*
X235650196Y-118769491D01*
X235663001Y-118639478D01*
X235663001Y-118639470D01*
X235667282Y-118596001D01*
X235663001Y-118552532D01*
X235663001Y-117033466D01*
X235667282Y-116990000D01*
X235663001Y-116946534D01*
X235663001Y-116946524D01*
X235650196Y-116816511D01*
X235599590Y-116649688D01*
X235517412Y-116495942D01*
X235406818Y-116361184D01*
X235373050Y-116333471D01*
X233736590Y-114697011D01*
X233763185Y-114675185D01*
X233842537Y-114578494D01*
X233901502Y-114468180D01*
X233937812Y-114348482D01*
X233939581Y-114330518D01*
X234032392Y-114443608D01*
X234250899Y-114622932D01*
X234500192Y-114756182D01*
X234770691Y-114838236D01*
X234981508Y-114859000D01*
X235122492Y-114859000D01*
X235333309Y-114838236D01*
X235603808Y-114756182D01*
X235853101Y-114622932D01*
X236071608Y-114443608D01*
X236250932Y-114225101D01*
X236322000Y-114092142D01*
X236393068Y-114225101D01*
X236572392Y-114443608D01*
X236790899Y-114622932D01*
X237040192Y-114756182D01*
X237310691Y-114838236D01*
X237521508Y-114859000D01*
X237662492Y-114859000D01*
X237873309Y-114838236D01*
X238143808Y-114756182D01*
X238393101Y-114622932D01*
X238611608Y-114443608D01*
X238722078Y-114309000D01*
X239001922Y-114309000D01*
X239112392Y-114443608D01*
X239330899Y-114622932D01*
X239580192Y-114756182D01*
X239850691Y-114838236D01*
X240061508Y-114859000D01*
X240202492Y-114859000D01*
X240413309Y-114838236D01*
X240443276Y-114829146D01*
X238704439Y-116567983D01*
X238669335Y-116561000D01*
X238386665Y-116561000D01*
X238109426Y-116616147D01*
X237848273Y-116724320D01*
X237613241Y-116881363D01*
X237413363Y-117081241D01*
X237256320Y-117316273D01*
X237148147Y-117577426D01*
X237093000Y-117854665D01*
X237093000Y-118137335D01*
X237148147Y-118414574D01*
X237256320Y-118675727D01*
X237413363Y-118910759D01*
X237613241Y-119110637D01*
X237848273Y-119267680D01*
X238109426Y-119375853D01*
X238386665Y-119431000D01*
X238669335Y-119431000D01*
X238946574Y-119375853D01*
X239207727Y-119267680D01*
X239442759Y-119110637D01*
X239642637Y-118910759D01*
X239799680Y-118675727D01*
X239907853Y-118414574D01*
X239963000Y-118137335D01*
X239963000Y-117854665D01*
X239956017Y-117819561D01*
X243060080Y-114715499D01*
X243136192Y-114756182D01*
X243406691Y-114838236D01*
X243617508Y-114859000D01*
X243758492Y-114859000D01*
X243969309Y-114838236D01*
X244239808Y-114756182D01*
X244489101Y-114622932D01*
X244707608Y-114443608D01*
X244886932Y-114225101D01*
X244958000Y-114092142D01*
X245029068Y-114225101D01*
X245208392Y-114443608D01*
X245343000Y-114554078D01*
X245343000Y-114598846D01*
X245343001Y-114598855D01*
X245343000Y-115527900D01*
X245338719Y-115571370D01*
X245343000Y-115614839D01*
X245343000Y-115614846D01*
X245355805Y-115744859D01*
X245406411Y-115911682D01*
X245488589Y-116065428D01*
X245599183Y-116200187D01*
X245632956Y-116227904D01*
X247996100Y-118591049D01*
X248023813Y-118624817D01*
X248057581Y-118652530D01*
X248057583Y-118652532D01*
X248158571Y-118735411D01*
X248312316Y-118817589D01*
X248479140Y-118868195D01*
X248609153Y-118881000D01*
X248609161Y-118881000D01*
X248652319Y-118885250D01*
X248669363Y-118910759D01*
X248869241Y-119110637D01*
X249104273Y-119267680D01*
X249365426Y-119375853D01*
X249642665Y-119431000D01*
X249925335Y-119431000D01*
X250202574Y-119375853D01*
X250463727Y-119267680D01*
X250698759Y-119110637D01*
X250820694Y-118988702D01*
X253970903Y-118988702D01*
X254042486Y-119232671D01*
X254297996Y-119353571D01*
X254572184Y-119422300D01*
X254854512Y-119436217D01*
X255134130Y-119394787D01*
X255400292Y-119299603D01*
X255525514Y-119232671D01*
X255597097Y-118988702D01*
X254784000Y-118175605D01*
X253970903Y-118988702D01*
X250820694Y-118988702D01*
X250898637Y-118910759D01*
X251055680Y-118675727D01*
X251163853Y-118414574D01*
X251219000Y-118137335D01*
X251219000Y-118066512D01*
X253343783Y-118066512D01*
X253385213Y-118346130D01*
X253480397Y-118612292D01*
X253547329Y-118737514D01*
X253791298Y-118809097D01*
X254604395Y-117996000D01*
X254963605Y-117996000D01*
X255776702Y-118809097D01*
X256020671Y-118737514D01*
X256141571Y-118482004D01*
X256210300Y-118207816D01*
X256224217Y-117925488D01*
X256182787Y-117645870D01*
X256087603Y-117379708D01*
X256020671Y-117254486D01*
X255776702Y-117182903D01*
X254963605Y-117996000D01*
X254604395Y-117996000D01*
X253791298Y-117182903D01*
X253547329Y-117254486D01*
X253426429Y-117509996D01*
X253357700Y-117784184D01*
X253343783Y-118066512D01*
X251219000Y-118066512D01*
X251219000Y-117854665D01*
X251163853Y-117577426D01*
X251055680Y-117316273D01*
X250898637Y-117081241D01*
X250820694Y-117003298D01*
X253970903Y-117003298D01*
X254784000Y-117816395D01*
X255597097Y-117003298D01*
X255525514Y-116759329D01*
X255270004Y-116638429D01*
X254995816Y-116569700D01*
X254713488Y-116555783D01*
X254433870Y-116597213D01*
X254167708Y-116692397D01*
X254042486Y-116759329D01*
X253970903Y-117003298D01*
X250820694Y-117003298D01*
X250698759Y-116881363D01*
X250463727Y-116724320D01*
X250202574Y-116616147D01*
X249925335Y-116561000D01*
X249642665Y-116561000D01*
X249365426Y-116616147D01*
X249104273Y-116724320D01*
X248869241Y-116881363D01*
X248829406Y-116921198D01*
X247113000Y-115204792D01*
X247113000Y-114554078D01*
X247247608Y-114443608D01*
X247426932Y-114225101D01*
X247498000Y-114092142D01*
X247569068Y-114225101D01*
X247748392Y-114443608D01*
X247966899Y-114622932D01*
X248216192Y-114756182D01*
X248486691Y-114838236D01*
X248697508Y-114859000D01*
X248838492Y-114859000D01*
X249049309Y-114838236D01*
X249319808Y-114756182D01*
X249569101Y-114622932D01*
X249787608Y-114443608D01*
X249966932Y-114225101D01*
X250038000Y-114092142D01*
X250109068Y-114225101D01*
X250288392Y-114443608D01*
X250506899Y-114622932D01*
X250756192Y-114756182D01*
X251026691Y-114838236D01*
X251237508Y-114859000D01*
X251378492Y-114859000D01*
X251589309Y-114838236D01*
X251859808Y-114756182D01*
X252109101Y-114622932D01*
X252327608Y-114443608D01*
X252506932Y-114225101D01*
X252640182Y-113975808D01*
X252722236Y-113705309D01*
X252749943Y-113424000D01*
X252732875Y-113250704D01*
X254214579Y-111769000D01*
X254745479Y-111769000D01*
X254765363Y-111798759D01*
X254965241Y-111998637D01*
X255200273Y-112155680D01*
X255461426Y-112263853D01*
X255738665Y-112319000D01*
X256021335Y-112319000D01*
X256056439Y-112312017D01*
X258116635Y-114372214D01*
X258103818Y-114396192D01*
X258021764Y-114666691D01*
X257994057Y-114948000D01*
X258021764Y-115229309D01*
X258103818Y-115499808D01*
X258237068Y-115749101D01*
X258416392Y-115967608D01*
X258634899Y-116146932D01*
X258884192Y-116280182D01*
X259154691Y-116362236D01*
X259365508Y-116383000D01*
X259506492Y-116383000D01*
X259717309Y-116362236D01*
X259987808Y-116280182D01*
X260237101Y-116146932D01*
X260455608Y-115967608D01*
X260634932Y-115749101D01*
X260768182Y-115499808D01*
X260850236Y-115229309D01*
X260877943Y-114948000D01*
X260850236Y-114666691D01*
X260768182Y-114396192D01*
X260634932Y-114146899D01*
X260455608Y-113928392D01*
X260237101Y-113749068D01*
X259987808Y-113615818D01*
X259809225Y-113561646D01*
X257308017Y-111060439D01*
X257315000Y-111025335D01*
X257315000Y-110742665D01*
X257259853Y-110465426D01*
X257151680Y-110204273D01*
X256994637Y-109969241D01*
X256794759Y-109769363D01*
X256594131Y-109635308D01*
X256621514Y-109620671D01*
X256693097Y-109376702D01*
X255880000Y-108563605D01*
X255066903Y-109376702D01*
X255138486Y-109620671D01*
X255167341Y-109634324D01*
X254965241Y-109769363D01*
X254765363Y-109969241D01*
X254745479Y-109999000D01*
X253891465Y-109999000D01*
X253847999Y-109994719D01*
X253804533Y-109999000D01*
X253804523Y-109999000D01*
X253674510Y-110011805D01*
X253507687Y-110062411D01*
X253353941Y-110144589D01*
X253353939Y-110144590D01*
X253353940Y-110144590D01*
X253252953Y-110227468D01*
X253252951Y-110227470D01*
X253219183Y-110255183D01*
X253191470Y-110288951D01*
X251481296Y-111999125D01*
X251378492Y-111989000D01*
X251237508Y-111989000D01*
X251026691Y-112009764D01*
X250756192Y-112091818D01*
X250506899Y-112225068D01*
X250288392Y-112404392D01*
X250109068Y-112622899D01*
X250038000Y-112755858D01*
X249966932Y-112622899D01*
X249787608Y-112404392D01*
X249569101Y-112225068D01*
X249319808Y-112091818D01*
X249049309Y-112009764D01*
X248838492Y-111989000D01*
X248697508Y-111989000D01*
X248486691Y-112009764D01*
X248216192Y-112091818D01*
X247966899Y-112225068D01*
X247748392Y-112404392D01*
X247569068Y-112622899D01*
X247498000Y-112755858D01*
X247426932Y-112622899D01*
X247247608Y-112404392D01*
X247029101Y-112225068D01*
X246779808Y-112091818D01*
X246509309Y-112009764D01*
X246298492Y-111989000D01*
X246157508Y-111989000D01*
X245946691Y-112009764D01*
X245676192Y-112091818D01*
X245426899Y-112225068D01*
X245208392Y-112404392D01*
X245029068Y-112622899D01*
X244958000Y-112755858D01*
X244886932Y-112622899D01*
X244707608Y-112404392D01*
X244489101Y-112225068D01*
X244239808Y-112091818D01*
X243969309Y-112009764D01*
X243758492Y-111989000D01*
X243617508Y-111989000D01*
X243406691Y-112009764D01*
X243136192Y-112091818D01*
X242886899Y-112225068D01*
X242668392Y-112404392D01*
X242489068Y-112622899D01*
X242355818Y-112872192D01*
X242336480Y-112935941D01*
X241537146Y-113735275D01*
X241546236Y-113705309D01*
X241573943Y-113424000D01*
X241546236Y-113142691D01*
X241464182Y-112872192D01*
X241330932Y-112622899D01*
X241151608Y-112404392D01*
X240933101Y-112225068D01*
X240683808Y-112091818D01*
X240413309Y-112009764D01*
X240202492Y-111989000D01*
X240061508Y-111989000D01*
X239850691Y-112009764D01*
X239580192Y-112091818D01*
X239330899Y-112225068D01*
X239112392Y-112404392D01*
X239001922Y-112539000D01*
X238722078Y-112539000D01*
X238611608Y-112404392D01*
X238393101Y-112225068D01*
X238143808Y-112091818D01*
X237873309Y-112009764D01*
X237662492Y-111989000D01*
X237521508Y-111989000D01*
X237310691Y-112009764D01*
X237040192Y-112091818D01*
X236790899Y-112225068D01*
X236572392Y-112404392D01*
X236393068Y-112622899D01*
X236322000Y-112755858D01*
X236250932Y-112622899D01*
X236071608Y-112404392D01*
X235853101Y-112225068D01*
X235603808Y-112091818D01*
X235333309Y-112009764D01*
X235122492Y-111989000D01*
X234981508Y-111989000D01*
X234770691Y-112009764D01*
X234500192Y-112091818D01*
X234250899Y-112225068D01*
X234032392Y-112404392D01*
X233939581Y-112517482D01*
X233937812Y-112499518D01*
X233901502Y-112379820D01*
X233842537Y-112269506D01*
X233763185Y-112172815D01*
X233666494Y-112093463D01*
X233556180Y-112034498D01*
X233436482Y-111998188D01*
X233397000Y-111994299D01*
X233397000Y-108454512D01*
X254439783Y-108454512D01*
X254481213Y-108734130D01*
X254576397Y-109000292D01*
X254643329Y-109125514D01*
X254887298Y-109197097D01*
X255700395Y-108384000D01*
X256059605Y-108384000D01*
X256872702Y-109197097D01*
X257116671Y-109125514D01*
X257237571Y-108870004D01*
X257306300Y-108595816D01*
X257320217Y-108313488D01*
X257278787Y-108033870D01*
X257183603Y-107767708D01*
X257116671Y-107642486D01*
X256872702Y-107570903D01*
X256059605Y-108384000D01*
X255700395Y-108384000D01*
X254887298Y-107570903D01*
X254643329Y-107642486D01*
X254522429Y-107897996D01*
X254453700Y-108172184D01*
X254439783Y-108454512D01*
X233397000Y-108454512D01*
X233397000Y-107862394D01*
X233421688Y-107875590D01*
X233495550Y-107897996D01*
X233588510Y-107926196D01*
X233603307Y-107927653D01*
X233718524Y-107939001D01*
X233718532Y-107939001D01*
X233762001Y-107943282D01*
X233805470Y-107939001D01*
X250014530Y-107939001D01*
X250057999Y-107943282D01*
X250101468Y-107939001D01*
X250101476Y-107939001D01*
X250231489Y-107926196D01*
X250398312Y-107875590D01*
X250552058Y-107793412D01*
X250686816Y-107682818D01*
X250714533Y-107649045D01*
X250972280Y-107391298D01*
X255066903Y-107391298D01*
X255880000Y-108204395D01*
X256693097Y-107391298D01*
X256621514Y-107147329D01*
X256366004Y-107026429D01*
X256091816Y-106957700D01*
X255809488Y-106943783D01*
X255529870Y-106985213D01*
X255263708Y-107080397D01*
X255138486Y-107147329D01*
X255066903Y-107391298D01*
X250972280Y-107391298D01*
X251121506Y-107242072D01*
X252108000Y-107242072D01*
X252232482Y-107229812D01*
X252352180Y-107193502D01*
X252462494Y-107134537D01*
X252559185Y-107055185D01*
X252638537Y-106958494D01*
X252697502Y-106848180D01*
X252733812Y-106728482D01*
X252746072Y-106604000D01*
X252746072Y-105617506D01*
X255230579Y-103133000D01*
X255681479Y-103133000D01*
X255701363Y-103162759D01*
X255901241Y-103362637D01*
X256136273Y-103519680D01*
X256397426Y-103627853D01*
X256674665Y-103683000D01*
X256957335Y-103683000D01*
X256992439Y-103676017D01*
X258001000Y-104684579D01*
X258001000Y-104929335D01*
X258056147Y-105206574D01*
X258164320Y-105467727D01*
X258321363Y-105702759D01*
X258521241Y-105902637D01*
X258756273Y-106059680D01*
X259017426Y-106167853D01*
X259294665Y-106223000D01*
X259577335Y-106223000D01*
X259854574Y-106167853D01*
X260115727Y-106059680D01*
X260350759Y-105902637D01*
X260550637Y-105702759D01*
X260707680Y-105467727D01*
X260815853Y-105206574D01*
X260871000Y-104929335D01*
X260871000Y-104646665D01*
X260815853Y-104369426D01*
X260707680Y-104108273D01*
X260550637Y-103873241D01*
X260350759Y-103673363D01*
X260115727Y-103516320D01*
X259854574Y-103408147D01*
X259577335Y-103353000D01*
X259294665Y-103353000D01*
X259192834Y-103373256D01*
X258244017Y-102424439D01*
X258251000Y-102389335D01*
X258251000Y-102106665D01*
X258195853Y-101829426D01*
X258087680Y-101568273D01*
X257930637Y-101333241D01*
X257730759Y-101133363D01*
X257495727Y-100976320D01*
X257234574Y-100868147D01*
X256957335Y-100813000D01*
X256674665Y-100813000D01*
X256397426Y-100868147D01*
X256136273Y-100976320D01*
X255901241Y-101133363D01*
X255701363Y-101333241D01*
X255681479Y-101363000D01*
X254907465Y-101363000D01*
X254863999Y-101358719D01*
X254820533Y-101363000D01*
X254820523Y-101363000D01*
X254690510Y-101375805D01*
X254523687Y-101426411D01*
X254369941Y-101508589D01*
X254369939Y-101508590D01*
X254369940Y-101508590D01*
X254268953Y-101591468D01*
X254268951Y-101591470D01*
X254235183Y-101619183D01*
X254207470Y-101652951D01*
X253189345Y-102671077D01*
X253242300Y-102459816D01*
X253256217Y-102177488D01*
X253214787Y-101897870D01*
X253119603Y-101631708D01*
X253052671Y-101506486D01*
X252808702Y-101434903D01*
X251995605Y-102248000D01*
X252009748Y-102262143D01*
X251830143Y-102441748D01*
X251816000Y-102427605D01*
X251002903Y-103240702D01*
X251074486Y-103484671D01*
X251329996Y-103605571D01*
X251604184Y-103674300D01*
X251886512Y-103688217D01*
X252166130Y-103646787D01*
X252240081Y-103620341D01*
X251494494Y-104365928D01*
X250508000Y-104365928D01*
X250383518Y-104378188D01*
X250263820Y-104414498D01*
X250153506Y-104473463D01*
X250056815Y-104552815D01*
X249977463Y-104649506D01*
X249918498Y-104759820D01*
X249882188Y-104879518D01*
X249879769Y-104904080D01*
X249731414Y-104740481D01*
X249505420Y-104572963D01*
X249251087Y-104452754D01*
X249117039Y-104412096D01*
X248895000Y-104534085D01*
X248895000Y-105677000D01*
X248915000Y-105677000D01*
X248915000Y-105931000D01*
X248895000Y-105931000D01*
X248895000Y-105951000D01*
X248641000Y-105951000D01*
X248641000Y-105931000D01*
X248621000Y-105931000D01*
X248621000Y-105677000D01*
X248641000Y-105677000D01*
X248641000Y-104534085D01*
X248418961Y-104412096D01*
X248284913Y-104452754D01*
X248030580Y-104572963D01*
X247804586Y-104740481D01*
X247615615Y-104948869D01*
X247500579Y-105140682D01*
X247426932Y-105002899D01*
X247247608Y-104784392D01*
X247029101Y-104605068D01*
X246779808Y-104471818D01*
X246509309Y-104389764D01*
X246298492Y-104369000D01*
X246157508Y-104369000D01*
X245946691Y-104389764D01*
X245676192Y-104471818D01*
X245426899Y-104605068D01*
X245208392Y-104784392D01*
X245029068Y-105002899D01*
X244958000Y-105135858D01*
X244886932Y-105002899D01*
X244707608Y-104784392D01*
X244489101Y-104605068D01*
X244239808Y-104471818D01*
X243969309Y-104389764D01*
X243758492Y-104369000D01*
X243617508Y-104369000D01*
X243406691Y-104389764D01*
X243136192Y-104471818D01*
X242886899Y-104605068D01*
X242668392Y-104784392D01*
X242489068Y-105002899D01*
X242355818Y-105252192D01*
X242273764Y-105522691D01*
X242246057Y-105804000D01*
X242273764Y-106085309D01*
X242299151Y-106169001D01*
X241520849Y-106169001D01*
X241546236Y-106085309D01*
X241573943Y-105804000D01*
X241546236Y-105522691D01*
X241464182Y-105252192D01*
X241330932Y-105002899D01*
X241151608Y-104784392D01*
X240933101Y-104605068D01*
X240860056Y-104566025D01*
X240856365Y-104528545D01*
X240814337Y-104389997D01*
X240746087Y-104262310D01*
X240654238Y-104150392D01*
X240626193Y-104127376D01*
X238817329Y-102318512D01*
X250375783Y-102318512D01*
X250417213Y-102598130D01*
X250512397Y-102864292D01*
X250579329Y-102989514D01*
X250823298Y-103061097D01*
X251636395Y-102248000D01*
X250823298Y-101434903D01*
X250579329Y-101506486D01*
X250458429Y-101761996D01*
X250389700Y-102036184D01*
X250375783Y-102318512D01*
X238817329Y-102318512D01*
X238195001Y-101696185D01*
X238195001Y-101255298D01*
X251002903Y-101255298D01*
X251816000Y-102068395D01*
X252629097Y-101255298D01*
X252557514Y-101011329D01*
X252302004Y-100890429D01*
X252027816Y-100821700D01*
X251745488Y-100807783D01*
X251465870Y-100849213D01*
X251199708Y-100944397D01*
X251074486Y-101011329D01*
X251002903Y-101255298D01*
X238195001Y-101255298D01*
X238195001Y-100094950D01*
X238345901Y-100166825D01*
X238493110Y-100211476D01*
X238723000Y-100090155D01*
X238723000Y-98897000D01*
X238703000Y-98897000D01*
X238703000Y-98643000D01*
X238723000Y-98643000D01*
X238723000Y-98623000D01*
X238977000Y-98623000D01*
X238977000Y-98643000D01*
X238997000Y-98643000D01*
X238997000Y-98897000D01*
X238977000Y-98897000D01*
X238977000Y-100090155D01*
X239206890Y-100211476D01*
X239354099Y-100166825D01*
X239616920Y-100041641D01*
X239850269Y-99867588D01*
X240045178Y-99651355D01*
X240114799Y-99534477D01*
X240149294Y-99599014D01*
X240334866Y-99825134D01*
X240560986Y-100010706D01*
X240818966Y-100148599D01*
X241098889Y-100233513D01*
X241317050Y-100255000D01*
X241462950Y-100255000D01*
X241681111Y-100233513D01*
X241961034Y-100148599D01*
X242219014Y-100010706D01*
X242445134Y-99825134D01*
X242630706Y-99599014D01*
X242660000Y-99544209D01*
X242689294Y-99599014D01*
X242874866Y-99825134D01*
X243100986Y-100010706D01*
X243358966Y-100148599D01*
X243638889Y-100233513D01*
X243857050Y-100255000D01*
X244002950Y-100255000D01*
X244221111Y-100233513D01*
X244501034Y-100148599D01*
X244759014Y-100010706D01*
X244985134Y-99825134D01*
X245170706Y-99599014D01*
X245200000Y-99544209D01*
X245229294Y-99599014D01*
X245414866Y-99825134D01*
X245640986Y-100010706D01*
X245898966Y-100148599D01*
X246178889Y-100233513D01*
X246397050Y-100255000D01*
X246542950Y-100255000D01*
X246761111Y-100233513D01*
X247041034Y-100148599D01*
X247299014Y-100010706D01*
X247525134Y-99825134D01*
X247710706Y-99599014D01*
X247740000Y-99544209D01*
X247769294Y-99599014D01*
X247954866Y-99825134D01*
X248180986Y-100010706D01*
X248438966Y-100148599D01*
X248718889Y-100233513D01*
X248937050Y-100255000D01*
X249082950Y-100255000D01*
X249301111Y-100233513D01*
X249581034Y-100148599D01*
X249839014Y-100010706D01*
X250065134Y-99825134D01*
X250250706Y-99599014D01*
X250280000Y-99544209D01*
X250309294Y-99599014D01*
X250494866Y-99825134D01*
X250720986Y-100010706D01*
X250978966Y-100148599D01*
X251258889Y-100233513D01*
X251477050Y-100255000D01*
X251622950Y-100255000D01*
X251841111Y-100233513D01*
X252121034Y-100148599D01*
X252379014Y-100010706D01*
X252605134Y-99825134D01*
X252790706Y-99599014D01*
X252820000Y-99544209D01*
X252849294Y-99599014D01*
X253034866Y-99825134D01*
X253260986Y-100010706D01*
X253518966Y-100148599D01*
X253798889Y-100233513D01*
X254017050Y-100255000D01*
X254162950Y-100255000D01*
X254381111Y-100233513D01*
X254661034Y-100148599D01*
X254919014Y-100010706D01*
X255145134Y-99825134D01*
X255330706Y-99599014D01*
X255365201Y-99534477D01*
X255434822Y-99651355D01*
X255629731Y-99867588D01*
X255863080Y-100041641D01*
X256125901Y-100166825D01*
X256273110Y-100211476D01*
X256503000Y-100090155D01*
X256503000Y-98897000D01*
X256757000Y-98897000D01*
X256757000Y-100090155D01*
X256986890Y-100211476D01*
X257134099Y-100166825D01*
X257396920Y-100041641D01*
X257630269Y-99867588D01*
X257825178Y-99651355D01*
X257974157Y-99401252D01*
X258071481Y-99126891D01*
X257950814Y-98897000D01*
X256757000Y-98897000D01*
X256503000Y-98897000D01*
X256483000Y-98897000D01*
X256483000Y-98643000D01*
X256503000Y-98643000D01*
X256503000Y-98623000D01*
X256757000Y-98623000D01*
X256757000Y-98643000D01*
X257950814Y-98643000D01*
X258071481Y-98413109D01*
X257974157Y-98138748D01*
X257825178Y-97888645D01*
X257630269Y-97672412D01*
X257401244Y-97501584D01*
X257459014Y-97470706D01*
X257661542Y-97304495D01*
X259515000Y-97304495D01*
X259515000Y-97695505D01*
X259591282Y-98079003D01*
X259740915Y-98440250D01*
X259958149Y-98765364D01*
X260234636Y-99041851D01*
X260559750Y-99259085D01*
X260920997Y-99408718D01*
X261304495Y-99485000D01*
X261695505Y-99485000D01*
X262079003Y-99408718D01*
X262440250Y-99259085D01*
X262765364Y-99041851D01*
X263041851Y-98765364D01*
X263259085Y-98440250D01*
X263408718Y-98079003D01*
X263485000Y-97695505D01*
X263485000Y-97304495D01*
X263408718Y-96920997D01*
X263259085Y-96559750D01*
X263041851Y-96234636D01*
X262765364Y-95958149D01*
X262440250Y-95740915D01*
X262079003Y-95591282D01*
X261695505Y-95515000D01*
X261304495Y-95515000D01*
X260920997Y-95591282D01*
X260559750Y-95740915D01*
X260234636Y-95958149D01*
X259958149Y-96234636D01*
X259740915Y-96559750D01*
X259591282Y-96920997D01*
X259515000Y-97304495D01*
X257661542Y-97304495D01*
X257685134Y-97285134D01*
X257870706Y-97059014D01*
X258008599Y-96801034D01*
X258093513Y-96521111D01*
X258122185Y-96230000D01*
X258093513Y-95938889D01*
X258008599Y-95658966D01*
X257870706Y-95400986D01*
X257685134Y-95174866D01*
X257459014Y-94989294D01*
X257201034Y-94851401D01*
X256921111Y-94766487D01*
X256702950Y-94745000D01*
X256557050Y-94745000D01*
X256338889Y-94766487D01*
X256058966Y-94851401D01*
X255800986Y-94989294D01*
X255574866Y-95174866D01*
X255389294Y-95400986D01*
X255360000Y-95455791D01*
X255330706Y-95400986D01*
X255145134Y-95174866D01*
X254919014Y-94989294D01*
X254661034Y-94851401D01*
X254381111Y-94766487D01*
X254162950Y-94745000D01*
X254017050Y-94745000D01*
X253798889Y-94766487D01*
X253518966Y-94851401D01*
X253260986Y-94989294D01*
X253034866Y-95174866D01*
X252849294Y-95400986D01*
X252820000Y-95455791D01*
X252790706Y-95400986D01*
X252605134Y-95174866D01*
X252379014Y-94989294D01*
X252121034Y-94851401D01*
X251841111Y-94766487D01*
X251622950Y-94745000D01*
X251477050Y-94745000D01*
X251258889Y-94766487D01*
X250978966Y-94851401D01*
X250720986Y-94989294D01*
X250494866Y-95174866D01*
X250309294Y-95400986D01*
X250274799Y-95465523D01*
X250205178Y-95348645D01*
X250010269Y-95132412D01*
X249776920Y-94958359D01*
X249514099Y-94833175D01*
X249366890Y-94788524D01*
X249137000Y-94909845D01*
X249137000Y-96103000D01*
X249157000Y-96103000D01*
X249157000Y-96357000D01*
X249137000Y-96357000D01*
X249137000Y-96377000D01*
X248883000Y-96377000D01*
X248883000Y-96357000D01*
X248863000Y-96357000D01*
X248863000Y-96103000D01*
X248883000Y-96103000D01*
X248883000Y-94909845D01*
X248653110Y-94788524D01*
X248505901Y-94833175D01*
X248243080Y-94958359D01*
X248009731Y-95132412D01*
X247814822Y-95348645D01*
X247745201Y-95465523D01*
X247710706Y-95400986D01*
X247525134Y-95174866D01*
X247299014Y-94989294D01*
X247041034Y-94851401D01*
X246761111Y-94766487D01*
X246542950Y-94745000D01*
X246397050Y-94745000D01*
X246178889Y-94766487D01*
X245898966Y-94851401D01*
X245640986Y-94989294D01*
X245414866Y-95174866D01*
X245229294Y-95400986D01*
X245194799Y-95465523D01*
X245125178Y-95348645D01*
X244930269Y-95132412D01*
X244696920Y-94958359D01*
X244434099Y-94833175D01*
X244286890Y-94788524D01*
X244057000Y-94909845D01*
X244057000Y-96103000D01*
X244077000Y-96103000D01*
X244077000Y-96357000D01*
X244057000Y-96357000D01*
X244057000Y-96377000D01*
X243803000Y-96377000D01*
X243803000Y-96357000D01*
X243783000Y-96357000D01*
X243783000Y-96103000D01*
X243803000Y-96103000D01*
X243803000Y-94909845D01*
X243573110Y-94788524D01*
X243425901Y-94833175D01*
X243163080Y-94958359D01*
X242929731Y-95132412D01*
X242734822Y-95348645D01*
X242665201Y-95465523D01*
X242630706Y-95400986D01*
X242445134Y-95174866D01*
X242219014Y-94989294D01*
X241961034Y-94851401D01*
X241681111Y-94766487D01*
X241462950Y-94745000D01*
X241317050Y-94745000D01*
X241098889Y-94766487D01*
X240818966Y-94851401D01*
X240560986Y-94989294D01*
X240334866Y-95174866D01*
X240149294Y-95400986D01*
X240120000Y-95455791D01*
X240090706Y-95400986D01*
X239905134Y-95174866D01*
X239679014Y-94989294D01*
X239421034Y-94851401D01*
X239141111Y-94766487D01*
X238922950Y-94745000D01*
X238777050Y-94745000D01*
X238558889Y-94766487D01*
X238278966Y-94851401D01*
X238020986Y-94989294D01*
X237794866Y-95174866D01*
X237609294Y-95400986D01*
X237580000Y-95455791D01*
X237550706Y-95400986D01*
X237365134Y-95174866D01*
X237139014Y-94989294D01*
X236881034Y-94851401D01*
X236601111Y-94766487D01*
X236382950Y-94745000D01*
X236237050Y-94745000D01*
X236018889Y-94766487D01*
X235738966Y-94851401D01*
X235480986Y-94989294D01*
X235254866Y-95174866D01*
X235069294Y-95400986D01*
X235040000Y-95455791D01*
X235010706Y-95400986D01*
X234825134Y-95174866D01*
X234599014Y-94989294D01*
X234341034Y-94851401D01*
X234061111Y-94766487D01*
X233842950Y-94745000D01*
X233697050Y-94745000D01*
X233478889Y-94766487D01*
X233198966Y-94851401D01*
X232940986Y-94989294D01*
X232714866Y-95174866D01*
X232529294Y-95400986D01*
X232494799Y-95465523D01*
X232425178Y-95348645D01*
X232230269Y-95132412D01*
X231996920Y-94958359D01*
X231734099Y-94833175D01*
X231586890Y-94788524D01*
X231357000Y-94909845D01*
X231357000Y-96103000D01*
X231377000Y-96103000D01*
X231377000Y-96357000D01*
X231357000Y-96357000D01*
X231357000Y-96377000D01*
X231103000Y-96377000D01*
X231103000Y-96357000D01*
X231083000Y-96357000D01*
X231083000Y-96103000D01*
X231103000Y-96103000D01*
X231103000Y-94909845D01*
X230873110Y-94788524D01*
X230725901Y-94833175D01*
X230463080Y-94958359D01*
X230229731Y-95132412D01*
X230034822Y-95348645D01*
X229965201Y-95465523D01*
X229930706Y-95400986D01*
X229745134Y-95174866D01*
X229519014Y-94989294D01*
X229261034Y-94851401D01*
X228981111Y-94766487D01*
X228762950Y-94745000D01*
X228617050Y-94745000D01*
X228398889Y-94766487D01*
X228118966Y-94851401D01*
X227860986Y-94989294D01*
X227634866Y-95174866D01*
X227449294Y-95400986D01*
X227420000Y-95455791D01*
X227390706Y-95400986D01*
X227205134Y-95174866D01*
X226979014Y-94989294D01*
X226721034Y-94851401D01*
X226441111Y-94766487D01*
X226222950Y-94745000D01*
X226077050Y-94745000D01*
X225858889Y-94766487D01*
X225578966Y-94851401D01*
X225320986Y-94989294D01*
X225094866Y-95174866D01*
X224909294Y-95400986D01*
X224874799Y-95465523D01*
X224805178Y-95348645D01*
X224610269Y-95132412D01*
X224376920Y-94958359D01*
X224114099Y-94833175D01*
X223966890Y-94788524D01*
X223737000Y-94909845D01*
X223737000Y-96103000D01*
X223757000Y-96103000D01*
X223757000Y-96357000D01*
X223737000Y-96357000D01*
X223737000Y-96377000D01*
X223483000Y-96377000D01*
X223483000Y-96357000D01*
X223463000Y-96357000D01*
X223463000Y-96103000D01*
X223483000Y-96103000D01*
X223483000Y-94909845D01*
X223253110Y-94788524D01*
X223105901Y-94833175D01*
X222843080Y-94958359D01*
X222609731Y-95132412D01*
X222414822Y-95348645D01*
X222345201Y-95465523D01*
X222310706Y-95400986D01*
X222125134Y-95174866D01*
X221899014Y-94989294D01*
X221641034Y-94851401D01*
X221361111Y-94766487D01*
X221142950Y-94745000D01*
X220997050Y-94745000D01*
X220778889Y-94766487D01*
X220498966Y-94851401D01*
X220240986Y-94989294D01*
X220014866Y-95174866D01*
X219829294Y-95400986D01*
X219800000Y-95455791D01*
X219770706Y-95400986D01*
X219585134Y-95174866D01*
X219359014Y-94989294D01*
X219101034Y-94851401D01*
X218821111Y-94766487D01*
X218602950Y-94745000D01*
X218457050Y-94745000D01*
X218238889Y-94766487D01*
X217958966Y-94851401D01*
X217700986Y-94989294D01*
X217474866Y-95174866D01*
X217289294Y-95400986D01*
X217260000Y-95455791D01*
X217230706Y-95400986D01*
X217045134Y-95174866D01*
X216819014Y-94989294D01*
X216561034Y-94851401D01*
X216281111Y-94766487D01*
X216062950Y-94745000D01*
X215917050Y-94745000D01*
X215698889Y-94766487D01*
X215418966Y-94851401D01*
X215160986Y-94989294D01*
X214934866Y-95174866D01*
X214749294Y-95400986D01*
X214714799Y-95465523D01*
X214645178Y-95348645D01*
X214450269Y-95132412D01*
X214216920Y-94958359D01*
X213954099Y-94833175D01*
X213806890Y-94788524D01*
X213577000Y-94909845D01*
X213577000Y-96103000D01*
X213597000Y-96103000D01*
X213597000Y-96357000D01*
X213577000Y-96357000D01*
X213577000Y-96377000D01*
X213323000Y-96377000D01*
X213323000Y-96357000D01*
X213303000Y-96357000D01*
X213303000Y-96103000D01*
X213323000Y-96103000D01*
X213323000Y-94909845D01*
X213093110Y-94788524D01*
X212945901Y-94833175D01*
X212683080Y-94958359D01*
X212449731Y-95132412D01*
X212254822Y-95348645D01*
X212185201Y-95465523D01*
X212150706Y-95400986D01*
X211965134Y-95174866D01*
X211739014Y-94989294D01*
X211481034Y-94851401D01*
X211201111Y-94766487D01*
X210982950Y-94745000D01*
X210837050Y-94745000D01*
X210618889Y-94766487D01*
X210338966Y-94851401D01*
X210080986Y-94989294D01*
X209854866Y-95174866D01*
X209669294Y-95400986D01*
X209640000Y-95455791D01*
X209610706Y-95400986D01*
X209425134Y-95174866D01*
X209199014Y-94989294D01*
X208941034Y-94851401D01*
X208661111Y-94766487D01*
X208442950Y-94745000D01*
X208297050Y-94745000D01*
X208078889Y-94766487D01*
X207798966Y-94851401D01*
X207540986Y-94989294D01*
X207314866Y-95174866D01*
X207129294Y-95400986D01*
X206991401Y-95658966D01*
X206906487Y-95938889D01*
X206877815Y-96230000D01*
X206899388Y-96449034D01*
X206474951Y-96873471D01*
X206441183Y-96901184D01*
X206413470Y-96934952D01*
X206413467Y-96934955D01*
X206330589Y-97035942D01*
X206248411Y-97189688D01*
X206197804Y-97356511D01*
X206180718Y-97530001D01*
X206185000Y-97573480D01*
X206184999Y-99936532D01*
X206180718Y-99980001D01*
X206184999Y-100023470D01*
X206184999Y-100023477D01*
X206197804Y-100153490D01*
X206248410Y-100320313D01*
X206330588Y-100474059D01*
X206441182Y-100608818D01*
X206474955Y-100636535D01*
X206503465Y-100665045D01*
X206531182Y-100698818D01*
X206665940Y-100809412D01*
X206819686Y-100891590D01*
X206986509Y-100942196D01*
X207116522Y-100955001D01*
X207116532Y-100955001D01*
X207159998Y-100959282D01*
X207203464Y-100955001D01*
X225484579Y-100955001D01*
X225391227Y-101048353D01*
X225272487Y-101226060D01*
X225190698Y-101423517D01*
X225149002Y-101633137D01*
X225149002Y-101846863D01*
X225190698Y-102056483D01*
X225272487Y-102253940D01*
X225391227Y-102431647D01*
X225542355Y-102582775D01*
X225720062Y-102701515D01*
X225917519Y-102783304D01*
X226052596Y-102810173D01*
X226253620Y-103011196D01*
X226122899Y-103081068D01*
X225904392Y-103260392D01*
X225725068Y-103478899D01*
X225591818Y-103728192D01*
X225509764Y-103998691D01*
X225482057Y-104280000D01*
X225499125Y-104453296D01*
X225001422Y-104951000D01*
X223112472Y-104951000D01*
X223176182Y-104831808D01*
X223258236Y-104561309D01*
X223285943Y-104280000D01*
X223258236Y-103998691D01*
X223176182Y-103728192D01*
X223042932Y-103478899D01*
X222863608Y-103260392D01*
X222645101Y-103081068D01*
X222395808Y-102947818D01*
X222125309Y-102865764D01*
X221914492Y-102845000D01*
X221773508Y-102845000D01*
X221675653Y-102854638D01*
X221672818Y-102851184D01*
X221538060Y-102740590D01*
X221384314Y-102658412D01*
X221217491Y-102607806D01*
X221087478Y-102595001D01*
X221087470Y-102595001D01*
X221044001Y-102590720D01*
X221000532Y-102595001D01*
X208863468Y-102595001D01*
X208819999Y-102590720D01*
X208776530Y-102595001D01*
X208776522Y-102595001D01*
X208646509Y-102607806D01*
X208479686Y-102658412D01*
X208355115Y-102724996D01*
X208325940Y-102740590D01*
X208224952Y-102823469D01*
X208224950Y-102823471D01*
X208191182Y-102851184D01*
X208163469Y-102884952D01*
X207108465Y-103939956D01*
X207054260Y-103910983D01*
X206764912Y-103823210D01*
X206464000Y-103793573D01*
X206163087Y-103823210D01*
X205873739Y-103910983D01*
X205607073Y-104053519D01*
X205373339Y-104245339D01*
X205181519Y-104479074D01*
X205038983Y-104745740D01*
X204951210Y-105035088D01*
X204929000Y-105260593D01*
X204929000Y-106070538D01*
X204811204Y-105989138D01*
X204534087Y-105869245D01*
X204428740Y-105844964D01*
X204191000Y-105965622D01*
X203937000Y-105965622D01*
X203699260Y-105844964D01*
X203593913Y-105869245D01*
X203316796Y-105989138D01*
X203068394Y-106160790D01*
X202858252Y-106377604D01*
X202694446Y-106631249D01*
X202583271Y-106911977D01*
X202529000Y-107209000D01*
X200685000Y-107209000D01*
X200685000Y-101740000D01*
X223391444Y-101740000D01*
X223405635Y-101884085D01*
X223447663Y-102022633D01*
X223515913Y-102150320D01*
X223607762Y-102262238D01*
X223719680Y-102354087D01*
X223847367Y-102422337D01*
X223985915Y-102464365D01*
X224093895Y-102475000D01*
X224166105Y-102475000D01*
X224274085Y-102464365D01*
X224412633Y-102422337D01*
X224540320Y-102354087D01*
X224652238Y-102262238D01*
X224744087Y-102150320D01*
X224812337Y-102022633D01*
X224854365Y-101884085D01*
X224868556Y-101740000D01*
X224854365Y-101595915D01*
X224812337Y-101457367D01*
X224744087Y-101329680D01*
X224652238Y-101217762D01*
X224540320Y-101125913D01*
X224412633Y-101057663D01*
X224274085Y-101015635D01*
X224166105Y-101005000D01*
X224093895Y-101005000D01*
X223985915Y-101015635D01*
X223847367Y-101057663D01*
X223719680Y-101125913D01*
X223607762Y-101217762D01*
X223515913Y-101329680D01*
X223447663Y-101457367D01*
X223405635Y-101595915D01*
X223391444Y-101740000D01*
X200685000Y-101740000D01*
X200685000Y-97304495D01*
X201515000Y-97304495D01*
X201515000Y-97695505D01*
X201591282Y-98079003D01*
X201740915Y-98440250D01*
X201958149Y-98765364D01*
X202234636Y-99041851D01*
X202559750Y-99259085D01*
X202920997Y-99408718D01*
X203304495Y-99485000D01*
X203695505Y-99485000D01*
X204079003Y-99408718D01*
X204440250Y-99259085D01*
X204765364Y-99041851D01*
X205041851Y-98765364D01*
X205259085Y-98440250D01*
X205408718Y-98079003D01*
X205485000Y-97695505D01*
X205485000Y-97304495D01*
X205408718Y-96920997D01*
X205259085Y-96559750D01*
X205041851Y-96234636D01*
X204765364Y-95958149D01*
X204440250Y-95740915D01*
X204079003Y-95591282D01*
X203695505Y-95515000D01*
X203304495Y-95515000D01*
X202920997Y-95591282D01*
X202559750Y-95740915D01*
X202234636Y-95958149D01*
X201958149Y-96234636D01*
X201740915Y-96559750D01*
X201591282Y-96920997D01*
X201515000Y-97304495D01*
X200685000Y-97304495D01*
X200685000Y-97033505D01*
X200732312Y-96550984D01*
X200862714Y-96119070D01*
X201074524Y-95720715D01*
X201359675Y-95371086D01*
X201707303Y-95083503D01*
X202104177Y-94868914D01*
X202535161Y-94735502D01*
X203015654Y-94685000D01*
X261966495Y-94685000D01*
X262449016Y-94732312D01*
X262449016Y-94732312D01*
G37*
X262449016Y-94732312D02*
X262880930Y-94862714D01*
X263279285Y-95074524D01*
X263628914Y-95359675D01*
X263916497Y-95707303D01*
X264131086Y-96104177D01*
X264264498Y-96535161D01*
X264315001Y-97015663D01*
X264315000Y-146966495D01*
X264267688Y-147449016D01*
X264137287Y-147880927D01*
X263925480Y-148279280D01*
X263640325Y-148628914D01*
X263292697Y-148916497D01*
X262895825Y-149131085D01*
X262464834Y-149264500D01*
X261984346Y-149315000D01*
X203033504Y-149315000D01*
X202550984Y-149267688D01*
X202119073Y-149137287D01*
X201720720Y-148925480D01*
X201371086Y-148640325D01*
X201083503Y-148292697D01*
X200868915Y-147895825D01*
X200735500Y-147464834D01*
X200685000Y-146984346D01*
X200685000Y-146304495D01*
X201515000Y-146304495D01*
X201515000Y-146695505D01*
X201591282Y-147079003D01*
X201740915Y-147440250D01*
X201958149Y-147765364D01*
X202234636Y-148041851D01*
X202559750Y-148259085D01*
X202920997Y-148408718D01*
X203304495Y-148485000D01*
X203695505Y-148485000D01*
X204079003Y-148408718D01*
X204440250Y-148259085D01*
X204765364Y-148041851D01*
X205041851Y-147765364D01*
X205259085Y-147440250D01*
X205408718Y-147079003D01*
X205485000Y-146695505D01*
X205485000Y-146304495D01*
X205408718Y-145920997D01*
X205259085Y-145559750D01*
X205041851Y-145234636D01*
X204765364Y-144958149D01*
X204440250Y-144740915D01*
X204079003Y-144591282D01*
X203695505Y-144515000D01*
X203304495Y-144515000D01*
X202920997Y-144591282D01*
X202559750Y-144740915D01*
X202234636Y-144958149D01*
X201958149Y-145234636D01*
X201740915Y-145559750D01*
X201591282Y-145920997D01*
X201515000Y-146304495D01*
X200685000Y-146304495D01*
X200685000Y-143469679D01*
X209105000Y-143469679D01*
X209105000Y-145130322D01*
X209128657Y-145370516D01*
X209222149Y-145678715D01*
X209373970Y-145962752D01*
X209578287Y-146211714D01*
X209827249Y-146416031D01*
X210111286Y-146567852D01*
X210419485Y-146661343D01*
X210740000Y-146692911D01*
X211060516Y-146661343D01*
X211368715Y-146567852D01*
X211652752Y-146416031D01*
X211901714Y-146211714D01*
X212106031Y-145962752D01*
X212257852Y-145678715D01*
X212351343Y-145370516D01*
X212375000Y-145130322D01*
X212375000Y-143680434D01*
X212999876Y-143680434D01*
X213030856Y-143808355D01*
X213159990Y-144102761D01*
X213344078Y-144366317D01*
X213576046Y-144588895D01*
X213846980Y-144761942D01*
X214146468Y-144878807D01*
X214463000Y-144935000D01*
X214785568Y-144935000D01*
X214560273Y-145028320D01*
X214325241Y-145185363D01*
X214125363Y-145385241D01*
X213968320Y-145620273D01*
X213860147Y-145881426D01*
X213805000Y-146158665D01*
X213805000Y-146441335D01*
X213860147Y-146718574D01*
X213968320Y-146979727D01*
X214125363Y-147214759D01*
X214325241Y-147414637D01*
X214560273Y-147571680D01*
X214821426Y-147679853D01*
X215098665Y-147735000D01*
X215381335Y-147735000D01*
X215658574Y-147679853D01*
X215919727Y-147571680D01*
X216154759Y-147414637D01*
X216354637Y-147214759D01*
X216511680Y-146979727D01*
X216619853Y-146718574D01*
X216675000Y-146441335D01*
X216675000Y-146158665D01*
X216619853Y-145881426D01*
X216511680Y-145620273D01*
X216354637Y-145385241D01*
X216154759Y-145185363D01*
X215919727Y-145028320D01*
X215694432Y-144935000D01*
X216017000Y-144935000D01*
X216333532Y-144878807D01*
X216633020Y-144761942D01*
X216903954Y-144588895D01*
X217135922Y-144366317D01*
X217320010Y-144102761D01*
X217449144Y-143808355D01*
X217480124Y-143680434D01*
X217380876Y-143469679D01*
X218105000Y-143469679D01*
X218105000Y-145130322D01*
X218128657Y-145370516D01*
X218222149Y-145678715D01*
X218373970Y-145962752D01*
X218578287Y-146211714D01*
X218827249Y-146416031D01*
X219111286Y-146567852D01*
X219419485Y-146661343D01*
X219740000Y-146692911D01*
X220060516Y-146661343D01*
X220368715Y-146567852D01*
X220652752Y-146416031D01*
X220788241Y-146304838D01*
X227704767Y-146304838D01*
X227842724Y-146605044D01*
X228191967Y-146780882D01*
X228568804Y-146885207D01*
X228958753Y-146914009D01*
X229346828Y-146866184D01*
X229718116Y-146743568D01*
X229977276Y-146605044D01*
X230115233Y-146304838D01*
X228910000Y-145099605D01*
X227704767Y-146304838D01*
X220788241Y-146304838D01*
X220901714Y-146211714D01*
X221106031Y-145962752D01*
X221257852Y-145678715D01*
X221351343Y-145370516D01*
X221375000Y-145130322D01*
X221375000Y-144968753D01*
X226915991Y-144968753D01*
X226963816Y-145356828D01*
X227086432Y-145728116D01*
X227224956Y-145987276D01*
X227525162Y-146125233D01*
X228730395Y-144920000D01*
X227525162Y-143714767D01*
X227224956Y-143852724D01*
X227049118Y-144201967D01*
X226944793Y-144578804D01*
X226915991Y-144968753D01*
X221375000Y-144968753D01*
X221375000Y-143469678D01*
X221351343Y-143229484D01*
X221257852Y-142921285D01*
X221106031Y-142637248D01*
X220901714Y-142388286D01*
X220652751Y-142183969D01*
X220368714Y-142032148D01*
X220060515Y-141938657D01*
X219740000Y-141907089D01*
X219419484Y-141938657D01*
X219111285Y-142032148D01*
X218827248Y-142183969D01*
X218578286Y-142388286D01*
X218373969Y-142637249D01*
X218222148Y-142921286D01*
X218128657Y-143229485D01*
X218105000Y-143469679D01*
X217380876Y-143469679D01*
X217360777Y-143427000D01*
X215367000Y-143427000D01*
X215367000Y-143447000D01*
X215113000Y-143447000D01*
X215113000Y-143427000D01*
X213119223Y-143427000D01*
X212999876Y-143680434D01*
X212375000Y-143680434D01*
X212375000Y-143469678D01*
X212351343Y-143229484D01*
X212257852Y-142921285D01*
X212256934Y-142919566D01*
X212999876Y-142919566D01*
X213119223Y-143173000D01*
X215113000Y-143173000D01*
X215113000Y-141665000D01*
X215367000Y-141665000D01*
X215367000Y-143173000D01*
X217360777Y-143173000D01*
X217480124Y-142919566D01*
X217449144Y-142791645D01*
X217320010Y-142497239D01*
X217135922Y-142233683D01*
X216903954Y-142011105D01*
X216633020Y-141838058D01*
X216333532Y-141721193D01*
X216017000Y-141665000D01*
X215367000Y-141665000D01*
X215113000Y-141665000D01*
X214463000Y-141665000D01*
X214146468Y-141721193D01*
X213846980Y-141838058D01*
X213576046Y-142011105D01*
X213344078Y-142233683D01*
X213159990Y-142497239D01*
X213030856Y-142791645D01*
X212999876Y-142919566D01*
X212256934Y-142919566D01*
X212106031Y-142637248D01*
X211901714Y-142388286D01*
X211652751Y-142183969D01*
X211368714Y-142032148D01*
X211060515Y-141938657D01*
X210740000Y-141907089D01*
X210419484Y-141938657D01*
X210111285Y-142032148D01*
X209827248Y-142183969D01*
X209578286Y-142388286D01*
X209373969Y-142637249D01*
X209222148Y-142921286D01*
X209128657Y-143229485D01*
X209105000Y-143469679D01*
X200685000Y-143469679D01*
X200685000Y-136300000D01*
X212601928Y-136300000D01*
X212601928Y-138300000D01*
X212614188Y-138424482D01*
X212650498Y-138544180D01*
X212709463Y-138654494D01*
X212788815Y-138751185D01*
X212885506Y-138830537D01*
X212995820Y-138889502D01*
X213115518Y-138925812D01*
X213240000Y-138938072D01*
X217240000Y-138938072D01*
X217364482Y-138925812D01*
X217484180Y-138889502D01*
X217594494Y-138830537D01*
X217691185Y-138751185D01*
X217770537Y-138654494D01*
X217829502Y-138544180D01*
X217865812Y-138424482D01*
X217878072Y-138300000D01*
X217878072Y-136300000D01*
X217865812Y-136175518D01*
X217829502Y-136055820D01*
X217770537Y-135945506D01*
X217691185Y-135848815D01*
X217594494Y-135769463D01*
X217484180Y-135710498D01*
X217364482Y-135674188D01*
X217240000Y-135661928D01*
X213240000Y-135661928D01*
X213115518Y-135674188D01*
X212995820Y-135710498D01*
X212885506Y-135769463D01*
X212788815Y-135848815D01*
X212709463Y-135945506D01*
X212650498Y-136055820D01*
X212614188Y-136175518D01*
X212601928Y-136300000D01*
X200685000Y-136300000D01*
X200685000Y-131750000D01*
X220151928Y-131750000D01*
X220164188Y-131874482D01*
X220200498Y-131994180D01*
X220259463Y-132104494D01*
X220338815Y-132201185D01*
X220435506Y-132280537D01*
X220545820Y-132339502D01*
X220665518Y-132375812D01*
X220790000Y-132388072D01*
X221304250Y-132385000D01*
X221463000Y-132226250D01*
X221463000Y-131077000D01*
X220313750Y-131077000D01*
X220155000Y-131235750D01*
X220151928Y-131750000D01*
X200685000Y-131750000D01*
X200685000Y-131185000D01*
X204533647Y-131185000D01*
X204562601Y-131182148D01*
X204565573Y-131182169D01*
X204575092Y-131181236D01*
X204623218Y-131176178D01*
X204634283Y-131175088D01*
X204634652Y-131174976D01*
X204672140Y-131171036D01*
X204732990Y-131158545D01*
X204793942Y-131146918D01*
X204803096Y-131144155D01*
X204803102Y-131144153D01*
X204896317Y-131115298D01*
X204953533Y-131091246D01*
X205011119Y-131067980D01*
X205019564Y-131063490D01*
X205105401Y-131017077D01*
X205156867Y-130982362D01*
X205208821Y-130948364D01*
X205216232Y-130942320D01*
X205291421Y-130880118D01*
X205335162Y-130836070D01*
X205379522Y-130792631D01*
X205385618Y-130785261D01*
X205385623Y-130785256D01*
X205385627Y-130785250D01*
X205447294Y-130709640D01*
X205481632Y-130657959D01*
X205516733Y-130606694D01*
X205521282Y-130598281D01*
X205567094Y-130512120D01*
X205590758Y-130454704D01*
X205615208Y-130397661D01*
X205618036Y-130388525D01*
X205646241Y-130295107D01*
X205658303Y-130234187D01*
X205671209Y-130173470D01*
X205672209Y-130163958D01*
X205681731Y-130066841D01*
X205681731Y-130066837D01*
X205685000Y-130033647D01*
X205685000Y-113966353D01*
X205682148Y-113937399D01*
X205682169Y-113934427D01*
X205681236Y-113924909D01*
X205676179Y-113876790D01*
X205675088Y-113865717D01*
X205674976Y-113865348D01*
X205671036Y-113827860D01*
X205658547Y-113767017D01*
X205646918Y-113706058D01*
X205644154Y-113696902D01*
X205615298Y-113603683D01*
X205591232Y-113546434D01*
X205567979Y-113488881D01*
X205563489Y-113480436D01*
X205517077Y-113394598D01*
X205482350Y-113343115D01*
X205448364Y-113291179D01*
X205442320Y-113283767D01*
X205380118Y-113208579D01*
X205336051Y-113164818D01*
X205292630Y-113120478D01*
X205285261Y-113114381D01*
X205209640Y-113052706D01*
X205157959Y-113018368D01*
X205106694Y-112983267D01*
X205098281Y-112978718D01*
X205012120Y-112932906D01*
X204954704Y-112909242D01*
X204897661Y-112884792D01*
X204888525Y-112881964D01*
X204795107Y-112853759D01*
X204734195Y-112841698D01*
X204673471Y-112828791D01*
X204663959Y-112827791D01*
X204566841Y-112818269D01*
X204566837Y-112818269D01*
X204533647Y-112815000D01*
X200685000Y-112815000D01*
X200685000Y-107963000D01*
X202529000Y-107963000D01*
X202529000Y-108463000D01*
X202583271Y-108760023D01*
X202694446Y-109040751D01*
X202858252Y-109294396D01*
X203068394Y-109511210D01*
X203316796Y-109682862D01*
X203593913Y-109802755D01*
X203699260Y-109827036D01*
X203937000Y-109706378D01*
X203937000Y-107963000D01*
X204191000Y-107963000D01*
X204191000Y-109706378D01*
X204428740Y-109827036D01*
X204534087Y-109802755D01*
X204811204Y-109682862D01*
X205059606Y-109511210D01*
X205269748Y-109294396D01*
X205433554Y-109040751D01*
X205544729Y-108760023D01*
X205599000Y-108463000D01*
X205599000Y-107963000D01*
X204191000Y-107963000D01*
X203937000Y-107963000D01*
X202529000Y-107963000D01*
X200685000Y-107963000D01*
X200685000Y-107209000D01*
X202529000Y-107209000D01*
X202529000Y-107709000D01*
X203937000Y-107709000D01*
X203937000Y-105965622D01*
X204191000Y-105965622D01*
X204191000Y-107709000D01*
X205599000Y-107709000D01*
X205599000Y-107611855D01*
X205607074Y-107618481D01*
X205873740Y-107761017D01*
X206163088Y-107848790D01*
X206464000Y-107878427D01*
X206764913Y-107848790D01*
X207054261Y-107761017D01*
X207320927Y-107618481D01*
X207554661Y-107426661D01*
X207746481Y-107192927D01*
X207889017Y-106926261D01*
X207976790Y-106636913D01*
X207999000Y-106411408D01*
X207999000Y-105552578D01*
X209186578Y-104365001D01*
X210775136Y-104365001D01*
X210681519Y-104479074D01*
X210538983Y-104745740D01*
X210451210Y-105035088D01*
X210429000Y-105260593D01*
X210429000Y-106411408D01*
X210451210Y-106636913D01*
X210538983Y-106926261D01*
X210681519Y-107192927D01*
X210873340Y-107426661D01*
X211107074Y-107618481D01*
X211373740Y-107761017D01*
X211663088Y-107848790D01*
X211964000Y-107878427D01*
X212264913Y-107848790D01*
X212554261Y-107761017D01*
X212820927Y-107618481D01*
X213054661Y-107426661D01*
X213246481Y-107192927D01*
X213389017Y-106926261D01*
X213451282Y-106721000D01*
X225324531Y-106721000D01*
X225368000Y-106725281D01*
X225411469Y-106721000D01*
X225411477Y-106721000D01*
X225541490Y-106708195D01*
X225708313Y-106657589D01*
X225862059Y-106575411D01*
X225996817Y-106464817D01*
X226024534Y-106431044D01*
X226750704Y-105704875D01*
X226853508Y-105715000D01*
X226994492Y-105715000D01*
X227205309Y-105694236D01*
X227289002Y-105668848D01*
X227289002Y-105893417D01*
X219744955Y-113437465D01*
X219711182Y-113465182D01*
X219600588Y-113599941D01*
X219518410Y-113753687D01*
X219489867Y-113847780D01*
X219468548Y-113918059D01*
X219467804Y-113920510D01*
X219454999Y-114050523D01*
X219454999Y-114050530D01*
X219450718Y-114093999D01*
X219454999Y-114137468D01*
X219455000Y-127116520D01*
X219450718Y-127159999D01*
X219467804Y-127333489D01*
X219518411Y-127500312D01*
X219600589Y-127654058D01*
X219683467Y-127755045D01*
X219683470Y-127755048D01*
X219711183Y-127788816D01*
X219744950Y-127816528D01*
X221462998Y-129534577D01*
X221462998Y-129673748D01*
X221304250Y-129515000D01*
X220790000Y-129511928D01*
X220665518Y-129524188D01*
X220545820Y-129560498D01*
X220435506Y-129619463D01*
X220338815Y-129698815D01*
X220259463Y-129795506D01*
X220200498Y-129905820D01*
X220164188Y-130025518D01*
X220151928Y-130150000D01*
X220155000Y-130664250D01*
X220313750Y-130823000D01*
X221463000Y-130823000D01*
X221463000Y-130803000D01*
X221717000Y-130803000D01*
X221717000Y-130823000D01*
X221737000Y-130823000D01*
X221737000Y-131077000D01*
X221717000Y-131077000D01*
X221717000Y-132226250D01*
X221875750Y-132385000D01*
X222390000Y-132388072D01*
X222514482Y-132375812D01*
X222634180Y-132339502D01*
X222744494Y-132280537D01*
X222841185Y-132201185D01*
X222920537Y-132104494D01*
X222979502Y-131994180D01*
X223015812Y-131874482D01*
X223017581Y-131856518D01*
X223110392Y-131969608D01*
X223328899Y-132148932D01*
X223578192Y-132282182D01*
X223848691Y-132364236D01*
X224059508Y-132385000D01*
X224200492Y-132385000D01*
X224411309Y-132364236D01*
X224681808Y-132282182D01*
X224931101Y-132148932D01*
X225149608Y-131969608D01*
X225328932Y-131751101D01*
X225400000Y-131618142D01*
X225471068Y-131751101D01*
X225650392Y-131969608D01*
X225785000Y-132080078D01*
X225785001Y-138676521D01*
X225780719Y-138720000D01*
X225797805Y-138893490D01*
X225848412Y-139060313D01*
X225930590Y-139214059D01*
X226013468Y-139315046D01*
X226013471Y-139315049D01*
X226041184Y-139348817D01*
X226074952Y-139376530D01*
X229888863Y-143190441D01*
X229628033Y-143059118D01*
X229251196Y-142954793D01*
X228861247Y-142925991D01*
X228473172Y-142973816D01*
X228101884Y-143096432D01*
X227842724Y-143234956D01*
X227704767Y-143535162D01*
X228910000Y-144740395D01*
X228924143Y-144726253D01*
X229103748Y-144905858D01*
X229089605Y-144920000D01*
X230294838Y-146125233D01*
X230595044Y-145987276D01*
X230770882Y-145638033D01*
X230875207Y-145261196D01*
X230885706Y-145119053D01*
X230961282Y-145499003D01*
X231110915Y-145860250D01*
X231328149Y-146185364D01*
X231604636Y-146461851D01*
X231929750Y-146679085D01*
X232290997Y-146828718D01*
X232674495Y-146905000D01*
X233065505Y-146905000D01*
X233449003Y-146828718D01*
X233810250Y-146679085D01*
X234135364Y-146461851D01*
X234411851Y-146185364D01*
X234629085Y-145860250D01*
X234778718Y-145499003D01*
X234841928Y-145181223D01*
X234841928Y-146019999D01*
X234858992Y-146193253D01*
X234909529Y-146359850D01*
X234991595Y-146513386D01*
X235102039Y-146647961D01*
X235236614Y-146758405D01*
X235390150Y-146840471D01*
X235556747Y-146891008D01*
X235730001Y-146908072D01*
X237929999Y-146908072D01*
X238103253Y-146891008D01*
X238269850Y-146840471D01*
X238423386Y-146758405D01*
X238557961Y-146647961D01*
X238668405Y-146513386D01*
X238750471Y-146359850D01*
X238801008Y-146193253D01*
X238816727Y-146033646D01*
X243315000Y-146033646D01*
X243318366Y-146067821D01*
X243318366Y-146080806D01*
X243319366Y-146090318D01*
X243341121Y-146284268D01*
X243354025Y-146344976D01*
X243366089Y-146405901D01*
X243368917Y-146415038D01*
X243427930Y-146601068D01*
X243452377Y-146658105D01*
X243476046Y-146715531D01*
X243480595Y-146723944D01*
X243574617Y-146894969D01*
X243609692Y-146946194D01*
X243644050Y-146997906D01*
X243650146Y-147005276D01*
X243775596Y-147154782D01*
X243819974Y-147198240D01*
X243863703Y-147242275D01*
X243871109Y-147248315D01*
X243871113Y-147248319D01*
X243871115Y-147248320D01*
X244023214Y-147370611D01*
X244075139Y-147404589D01*
X244126632Y-147439322D01*
X244135077Y-147443812D01*
X244308033Y-147534232D01*
X244365590Y-147557487D01*
X244422835Y-147581550D01*
X244431991Y-147584315D01*
X244619217Y-147639418D01*
X244680218Y-147651054D01*
X244741015Y-147663534D01*
X244750533Y-147664468D01*
X244944895Y-147682157D01*
X245006986Y-147681723D01*
X245069066Y-147682156D01*
X245078585Y-147681223D01*
X245272682Y-147660822D01*
X245333496Y-147648339D01*
X245394481Y-147636705D01*
X245403637Y-147633941D01*
X245590075Y-147576229D01*
X245647279Y-147552182D01*
X245704873Y-147528913D01*
X245713317Y-147524423D01*
X245884994Y-147431598D01*
X245936468Y-147396878D01*
X245988418Y-147362883D01*
X245995829Y-147356839D01*
X246146207Y-147232435D01*
X246189973Y-147188362D01*
X246234311Y-147144943D01*
X246240408Y-147137574D01*
X246363758Y-146986332D01*
X246398126Y-146934603D01*
X246433191Y-146883392D01*
X246437739Y-146874981D01*
X246437740Y-146874980D01*
X246437742Y-146874976D01*
X246529366Y-146702657D01*
X246553022Y-146645261D01*
X246577482Y-146588193D01*
X246580310Y-146579056D01*
X246636719Y-146392220D01*
X246648780Y-146331310D01*
X246654479Y-146304495D01*
X259515000Y-146304495D01*
X259515000Y-146695505D01*
X259591282Y-147079003D01*
X259740915Y-147440250D01*
X259958149Y-147765364D01*
X260234636Y-148041851D01*
X260559750Y-148259085D01*
X260920997Y-148408718D01*
X261304495Y-148485000D01*
X261695505Y-148485000D01*
X262079003Y-148408718D01*
X262440250Y-148259085D01*
X262765364Y-148041851D01*
X263041851Y-147765364D01*
X263259085Y-147440250D01*
X263408718Y-147079003D01*
X263485000Y-146695505D01*
X263485000Y-146304495D01*
X263408718Y-145920997D01*
X263259085Y-145559750D01*
X263041851Y-145234636D01*
X262765364Y-144958149D01*
X262440250Y-144740915D01*
X262079003Y-144591282D01*
X261695505Y-144515000D01*
X261304495Y-144515000D01*
X260920997Y-144591282D01*
X260559750Y-144740915D01*
X260234636Y-144958149D01*
X259958149Y-145234636D01*
X259740915Y-145559750D01*
X259591282Y-145920997D01*
X259515000Y-146304495D01*
X246654479Y-146304495D01*
X246661686Y-146270591D01*
X246662686Y-146261079D01*
X246681731Y-146066845D01*
X246681731Y-146066837D01*
X246685000Y-146033647D01*
X246685000Y-130966353D01*
X246681633Y-130932169D01*
X246681633Y-130919193D01*
X246680634Y-130909681D01*
X246658879Y-130715732D01*
X246645975Y-130655024D01*
X246633911Y-130594099D01*
X246631083Y-130584962D01*
X246572070Y-130398932D01*
X246547618Y-130341882D01*
X246523954Y-130284470D01*
X246519405Y-130276056D01*
X246425383Y-130105031D01*
X246390310Y-130053809D01*
X246355951Y-130002094D01*
X246349854Y-129994724D01*
X246224404Y-129845218D01*
X246180046Y-129801779D01*
X246136297Y-129757724D01*
X246128885Y-129751679D01*
X245976785Y-129629389D01*
X245924845Y-129595401D01*
X245873367Y-129560678D01*
X245864923Y-129556187D01*
X245691967Y-129465768D01*
X245634410Y-129442513D01*
X245577165Y-129418450D01*
X245568009Y-129415685D01*
X245380783Y-129360582D01*
X245319775Y-129348945D01*
X245258985Y-129336466D01*
X245249466Y-129335532D01*
X245055105Y-129317843D01*
X244992981Y-129318277D01*
X244930933Y-129317844D01*
X244921426Y-129318776D01*
X244921419Y-129318776D01*
X244921413Y-129318777D01*
X244727318Y-129339178D01*
X244666504Y-129351661D01*
X244605519Y-129363295D01*
X244596363Y-129366059D01*
X244409925Y-129423771D01*
X244352692Y-129447830D01*
X244295127Y-129471087D01*
X244286682Y-129475577D01*
X244115006Y-129568402D01*
X244063532Y-129603122D01*
X244011582Y-129637117D01*
X244004170Y-129643162D01*
X243853793Y-129767565D01*
X243810027Y-129811638D01*
X243765689Y-129855057D01*
X243759592Y-129862426D01*
X243636242Y-130013668D01*
X243601881Y-130065386D01*
X243566809Y-130116607D01*
X243562260Y-130125020D01*
X243470635Y-130297343D01*
X243446978Y-130354739D01*
X243422519Y-130411807D01*
X243419690Y-130420943D01*
X243363281Y-130607780D01*
X243351220Y-130668691D01*
X243338314Y-130729410D01*
X243337314Y-130738922D01*
X243318269Y-130933155D01*
X243318269Y-130933173D01*
X243315001Y-130966353D01*
X243315000Y-146033646D01*
X238816727Y-146033646D01*
X238818072Y-146019999D01*
X238818072Y-143820001D01*
X238801008Y-143646747D01*
X238750471Y-143480150D01*
X238668405Y-143326614D01*
X238557961Y-143192039D01*
X238423386Y-143081595D01*
X238269850Y-142999529D01*
X238103253Y-142948992D01*
X237929999Y-142931928D01*
X235730001Y-142931928D01*
X235556747Y-142948992D01*
X235390150Y-142999529D01*
X235236614Y-143081595D01*
X235102039Y-143192039D01*
X234991595Y-143326614D01*
X234909529Y-143480150D01*
X234858992Y-143646747D01*
X234841928Y-143820001D01*
X234841928Y-144658777D01*
X234778718Y-144340997D01*
X234629085Y-143979750D01*
X234411851Y-143654636D01*
X234135364Y-143378149D01*
X233810250Y-143160915D01*
X233449003Y-143011282D01*
X233065505Y-142935000D01*
X232674495Y-142935000D01*
X232290997Y-143011282D01*
X232235746Y-143034168D01*
X227555000Y-138353422D01*
X227555000Y-132080078D01*
X227689608Y-131969608D01*
X227868932Y-131751101D01*
X227940000Y-131618142D01*
X228011068Y-131751101D01*
X228190392Y-131969608D01*
X228408899Y-132148932D01*
X228658192Y-132282182D01*
X228928691Y-132364236D01*
X229139508Y-132385000D01*
X229280492Y-132385000D01*
X229491309Y-132364236D01*
X229761808Y-132282182D01*
X230011101Y-132148932D01*
X230229608Y-131969608D01*
X230408932Y-131751101D01*
X230480000Y-131618142D01*
X230551068Y-131751101D01*
X230730392Y-131969608D01*
X230948899Y-132148932D01*
X231198192Y-132282182D01*
X231468691Y-132364236D01*
X231679508Y-132385000D01*
X231820492Y-132385000D01*
X232031309Y-132364236D01*
X232301808Y-132282182D01*
X232551101Y-132148932D01*
X232769608Y-131969608D01*
X232948932Y-131751101D01*
X233020000Y-131618142D01*
X233091068Y-131751101D01*
X233270392Y-131969608D01*
X233488899Y-132148932D01*
X233738192Y-132282182D01*
X234008691Y-132364236D01*
X234219508Y-132385000D01*
X234360492Y-132385000D01*
X234571309Y-132364236D01*
X234841808Y-132282182D01*
X235091101Y-132148932D01*
X235309608Y-131969608D01*
X235488932Y-131751101D01*
X235562579Y-131613318D01*
X235677615Y-131805131D01*
X235866586Y-132013519D01*
X236092580Y-132181037D01*
X236346913Y-132301246D01*
X236480961Y-132341904D01*
X236703000Y-132219915D01*
X236703000Y-131077000D01*
X236957000Y-131077000D01*
X236957000Y-132219915D01*
X237179039Y-132341904D01*
X237313087Y-132301246D01*
X237567420Y-132181037D01*
X237793414Y-132013519D01*
X237982385Y-131805131D01*
X238127070Y-131563881D01*
X238221909Y-131299040D01*
X238100624Y-131077000D01*
X236957000Y-131077000D01*
X236703000Y-131077000D01*
X236683000Y-131077000D01*
X236683000Y-130823000D01*
X236703000Y-130823000D01*
X236703000Y-129680085D01*
X236957000Y-129680085D01*
X236957000Y-130823000D01*
X238100624Y-130823000D01*
X238221909Y-130600960D01*
X238127070Y-130336119D01*
X237982385Y-130094869D01*
X237793414Y-129886481D01*
X237567420Y-129718963D01*
X237313087Y-129598754D01*
X237179039Y-129558096D01*
X236957000Y-129680085D01*
X236703000Y-129680085D01*
X236480961Y-129558096D01*
X236346913Y-129598754D01*
X236092580Y-129718963D01*
X235866586Y-129886481D01*
X235677615Y-130094869D01*
X235562579Y-130286682D01*
X235488932Y-130148899D01*
X235309608Y-129930392D01*
X235091101Y-129751068D01*
X234841808Y-129617818D01*
X234571309Y-129535764D01*
X234360492Y-129515000D01*
X234219508Y-129515000D01*
X234008691Y-129535764D01*
X233738192Y-129617818D01*
X233488899Y-129751068D01*
X233270392Y-129930392D01*
X233091068Y-130148899D01*
X233020000Y-130281858D01*
X232948932Y-130148899D01*
X232769608Y-129930392D01*
X232551101Y-129751068D01*
X232301808Y-129617818D01*
X232031309Y-129535764D01*
X231820492Y-129515000D01*
X231679508Y-129515000D01*
X231468691Y-129535764D01*
X231198192Y-129617818D01*
X230948899Y-129751068D01*
X230730392Y-129930392D01*
X230551068Y-130148899D01*
X230480000Y-130281858D01*
X230408932Y-130148899D01*
X230229608Y-129930392D01*
X230011101Y-129751068D01*
X229761808Y-129617818D01*
X229491309Y-129535764D01*
X229280492Y-129515000D01*
X229139508Y-129515000D01*
X228928691Y-129535764D01*
X228658192Y-129617818D01*
X228408899Y-129751068D01*
X228190392Y-129930392D01*
X228011068Y-130148899D01*
X227940000Y-130281858D01*
X227868932Y-130148899D01*
X227689608Y-129930392D01*
X227471101Y-129751068D01*
X227221808Y-129617818D01*
X226951309Y-129535764D01*
X226740492Y-129515000D01*
X226599508Y-129515000D01*
X226388691Y-129535764D01*
X226118192Y-129617818D01*
X225868899Y-129751068D01*
X225650392Y-129930392D01*
X225471068Y-130148899D01*
X225400000Y-130281858D01*
X225328932Y-130148899D01*
X225149608Y-129930392D01*
X224931101Y-129751068D01*
X224681808Y-129617818D01*
X224411309Y-129535764D01*
X224200492Y-129515000D01*
X224059508Y-129515000D01*
X223956704Y-129525125D01*
X221224999Y-126793421D01*
X221224999Y-124718849D01*
X221308691Y-124744236D01*
X221519508Y-124765000D01*
X221660492Y-124765000D01*
X221871309Y-124744236D01*
X222141808Y-124662182D01*
X222391101Y-124528932D01*
X222609608Y-124349608D01*
X222788932Y-124131101D01*
X222860000Y-123998142D01*
X222931068Y-124131101D01*
X223110392Y-124349608D01*
X223328899Y-124528932D01*
X223578192Y-124662182D01*
X223848691Y-124744236D01*
X224059508Y-124765000D01*
X224200492Y-124765000D01*
X224411309Y-124744236D01*
X224681808Y-124662182D01*
X224931101Y-124528932D01*
X225149608Y-124349608D01*
X225328932Y-124131101D01*
X225400000Y-123998142D01*
X225471068Y-124131101D01*
X225650392Y-124349608D01*
X225868899Y-124528932D01*
X226118192Y-124662182D01*
X226388691Y-124744236D01*
X226599508Y-124765000D01*
X226740492Y-124765000D01*
X226951309Y-124744236D01*
X227221808Y-124662182D01*
X227471101Y-124528932D01*
X227689608Y-124349608D01*
X227868932Y-124131101D01*
X227940000Y-123998142D01*
X228011068Y-124131101D01*
X228190392Y-124349608D01*
X228408899Y-124528932D01*
X228658192Y-124662182D01*
X228928691Y-124744236D01*
X229139508Y-124765000D01*
X229280492Y-124765000D01*
X229491309Y-124744236D01*
X229761808Y-124662182D01*
X230011101Y-124528932D01*
X230229608Y-124349608D01*
X230408932Y-124131101D01*
X230480000Y-123998142D01*
X230551068Y-124131101D01*
X230730392Y-124349608D01*
X230948899Y-124528932D01*
X231198192Y-124662182D01*
X231468691Y-124744236D01*
X231679508Y-124765000D01*
X231820492Y-124765000D01*
X232031309Y-124744236D01*
X232301808Y-124662182D01*
X232551101Y-124528932D01*
X232769608Y-124349608D01*
X232948932Y-124131101D01*
X233020000Y-123998142D01*
X233091068Y-124131101D01*
X233270392Y-124349608D01*
X233488899Y-124528932D01*
X233738192Y-124662182D01*
X234008691Y-124744236D01*
X234219508Y-124765000D01*
X234360492Y-124765000D01*
X234571309Y-124744236D01*
X234841808Y-124662182D01*
X235091101Y-124528932D01*
X235309608Y-124349608D01*
X235488932Y-124131101D01*
X235560000Y-123998142D01*
X235631068Y-124131101D01*
X235810392Y-124349608D01*
X236028899Y-124528932D01*
X236278192Y-124662182D01*
X236548691Y-124744236D01*
X236759508Y-124765000D01*
X236900492Y-124765000D01*
X237111309Y-124744236D01*
X237381808Y-124662182D01*
X237631101Y-124528932D01*
X237849608Y-124349608D01*
X238028932Y-124131101D01*
X238162182Y-123881808D01*
X238244236Y-123611309D01*
X238271943Y-123330000D01*
X238244236Y-123048691D01*
X238162182Y-122778192D01*
X238028932Y-122528899D01*
X237849608Y-122310392D01*
X237631101Y-122131068D01*
X237381808Y-121997818D01*
X237111309Y-121915764D01*
X236900492Y-121895000D01*
X236759508Y-121895000D01*
X236548691Y-121915764D01*
X236278192Y-121997818D01*
X236028899Y-122131068D01*
X235810392Y-122310392D01*
X235631068Y-122528899D01*
X235560000Y-122661858D01*
X235488932Y-122528899D01*
X235309608Y-122310392D01*
X235091101Y-122131068D01*
X234841808Y-121997818D01*
X234571309Y-121915764D01*
X234360492Y-121895000D01*
X234219508Y-121895000D01*
X234008691Y-121915764D01*
X233738192Y-121997818D01*
X233488899Y-122131068D01*
X233270392Y-122310392D01*
X233091068Y-122528899D01*
X233020000Y-122661858D01*
X232948932Y-122528899D01*
X232769608Y-122310392D01*
X232551101Y-122131068D01*
X232301808Y-121997818D01*
X232031309Y-121915764D01*
X231820492Y-121895000D01*
X231679508Y-121895000D01*
X231468691Y-121915764D01*
X231198192Y-121997818D01*
X230948899Y-122131068D01*
X230730392Y-122310392D01*
X230551068Y-122528899D01*
X230480000Y-122661858D01*
X230408932Y-122528899D01*
X230229608Y-122310392D01*
X230011101Y-122131068D01*
X229761808Y-121997818D01*
X229491309Y-121915764D01*
X229280492Y-121895000D01*
X229139508Y-121895000D01*
X228928691Y-121915764D01*
X228658192Y-121997818D01*
X228408899Y-122131068D01*
X228190392Y-122310392D01*
X228011068Y-122528899D01*
X227940000Y-122661858D01*
X227868932Y-122528899D01*
X227689608Y-122310392D01*
X227471101Y-122131068D01*
X227221808Y-121997818D01*
X226951309Y-121915764D01*
X226740492Y-121895000D01*
X226599508Y-121895000D01*
X226388691Y-121915764D01*
X226118192Y-121997818D01*
X225868899Y-122131068D01*
X225650392Y-122310392D01*
X225471068Y-122528899D01*
X225400000Y-122661858D01*
X225328932Y-122528899D01*
X225149608Y-122310392D01*
X224931101Y-122131068D01*
X224681808Y-121997818D01*
X224411309Y-121915764D01*
X224269756Y-121901822D01*
X226040578Y-120131001D01*
X234084532Y-120131001D01*
X234128001Y-120135282D01*
X234171470Y-120131001D01*
X234171478Y-120131001D01*
X234301491Y-120118196D01*
X234468314Y-120067590D01*
X234622060Y-119985412D01*
X234756818Y-119874818D01*
X234784535Y-119841045D01*
X235373051Y-119252530D01*
X235406818Y-119224818D01*
X235517412Y-119090060D01*
X235599590Y-118936314D01*
X235650196Y-118769491D01*
X235663001Y-118639478D01*
X235663001Y-118639470D01*
X235667282Y-118596001D01*
X235663001Y-118552532D01*
X235663001Y-117033466D01*
X235667282Y-116990000D01*
X235663001Y-116946534D01*
X235663001Y-116946524D01*
X235650196Y-116816511D01*
X235599590Y-116649688D01*
X235517412Y-116495942D01*
X235406818Y-116361184D01*
X235373050Y-116333471D01*
X233736590Y-114697011D01*
X233763185Y-114675185D01*
X233842537Y-114578494D01*
X233901502Y-114468180D01*
X233937812Y-114348482D01*
X233939581Y-114330518D01*
X234032392Y-114443608D01*
X234250899Y-114622932D01*
X234500192Y-114756182D01*
X234770691Y-114838236D01*
X234981508Y-114859000D01*
X235122492Y-114859000D01*
X235333309Y-114838236D01*
X235603808Y-114756182D01*
X235853101Y-114622932D01*
X236071608Y-114443608D01*
X236250932Y-114225101D01*
X236322000Y-114092142D01*
X236393068Y-114225101D01*
X236572392Y-114443608D01*
X236790899Y-114622932D01*
X237040192Y-114756182D01*
X237310691Y-114838236D01*
X237521508Y-114859000D01*
X237662492Y-114859000D01*
X237873309Y-114838236D01*
X238143808Y-114756182D01*
X238393101Y-114622932D01*
X238611608Y-114443608D01*
X238722078Y-114309000D01*
X239001922Y-114309000D01*
X239112392Y-114443608D01*
X239330899Y-114622932D01*
X239580192Y-114756182D01*
X239850691Y-114838236D01*
X240061508Y-114859000D01*
X240202492Y-114859000D01*
X240413309Y-114838236D01*
X240443276Y-114829146D01*
X238704439Y-116567983D01*
X238669335Y-116561000D01*
X238386665Y-116561000D01*
X238109426Y-116616147D01*
X237848273Y-116724320D01*
X237613241Y-116881363D01*
X237413363Y-117081241D01*
X237256320Y-117316273D01*
X237148147Y-117577426D01*
X237093000Y-117854665D01*
X237093000Y-118137335D01*
X237148147Y-118414574D01*
X237256320Y-118675727D01*
X237413363Y-118910759D01*
X237613241Y-119110637D01*
X237848273Y-119267680D01*
X238109426Y-119375853D01*
X238386665Y-119431000D01*
X238669335Y-119431000D01*
X238946574Y-119375853D01*
X239207727Y-119267680D01*
X239442759Y-119110637D01*
X239642637Y-118910759D01*
X239799680Y-118675727D01*
X239907853Y-118414574D01*
X239963000Y-118137335D01*
X239963000Y-117854665D01*
X239956017Y-117819561D01*
X243060080Y-114715499D01*
X243136192Y-114756182D01*
X243406691Y-114838236D01*
X243617508Y-114859000D01*
X243758492Y-114859000D01*
X243969309Y-114838236D01*
X244239808Y-114756182D01*
X244489101Y-114622932D01*
X244707608Y-114443608D01*
X244886932Y-114225101D01*
X244958000Y-114092142D01*
X245029068Y-114225101D01*
X245208392Y-114443608D01*
X245343000Y-114554078D01*
X245343000Y-114598846D01*
X245343001Y-114598855D01*
X245343000Y-115527900D01*
X245338719Y-115571370D01*
X245343000Y-115614839D01*
X245343000Y-115614846D01*
X245355805Y-115744859D01*
X245406411Y-115911682D01*
X245488589Y-116065428D01*
X245599183Y-116200187D01*
X245632956Y-116227904D01*
X247996100Y-118591049D01*
X248023813Y-118624817D01*
X248057581Y-118652530D01*
X248057583Y-118652532D01*
X248158571Y-118735411D01*
X248312316Y-118817589D01*
X248479140Y-118868195D01*
X248609153Y-118881000D01*
X248609161Y-118881000D01*
X248652319Y-118885250D01*
X248669363Y-118910759D01*
X248869241Y-119110637D01*
X249104273Y-119267680D01*
X249365426Y-119375853D01*
X249642665Y-119431000D01*
X249925335Y-119431000D01*
X250202574Y-119375853D01*
X250463727Y-119267680D01*
X250698759Y-119110637D01*
X250820694Y-118988702D01*
X253970903Y-118988702D01*
X254042486Y-119232671D01*
X254297996Y-119353571D01*
X254572184Y-119422300D01*
X254854512Y-119436217D01*
X255134130Y-119394787D01*
X255400292Y-119299603D01*
X255525514Y-119232671D01*
X255597097Y-118988702D01*
X254784000Y-118175605D01*
X253970903Y-118988702D01*
X250820694Y-118988702D01*
X250898637Y-118910759D01*
X251055680Y-118675727D01*
X251163853Y-118414574D01*
X251219000Y-118137335D01*
X251219000Y-118066512D01*
X253343783Y-118066512D01*
X253385213Y-118346130D01*
X253480397Y-118612292D01*
X253547329Y-118737514D01*
X253791298Y-118809097D01*
X254604395Y-117996000D01*
X254963605Y-117996000D01*
X255776702Y-118809097D01*
X256020671Y-118737514D01*
X256141571Y-118482004D01*
X256210300Y-118207816D01*
X256224217Y-117925488D01*
X256182787Y-117645870D01*
X256087603Y-117379708D01*
X256020671Y-117254486D01*
X255776702Y-117182903D01*
X254963605Y-117996000D01*
X254604395Y-117996000D01*
X253791298Y-117182903D01*
X253547329Y-117254486D01*
X253426429Y-117509996D01*
X253357700Y-117784184D01*
X253343783Y-118066512D01*
X251219000Y-118066512D01*
X251219000Y-117854665D01*
X251163853Y-117577426D01*
X251055680Y-117316273D01*
X250898637Y-117081241D01*
X250820694Y-117003298D01*
X253970903Y-117003298D01*
X254784000Y-117816395D01*
X255597097Y-117003298D01*
X255525514Y-116759329D01*
X255270004Y-116638429D01*
X254995816Y-116569700D01*
X254713488Y-116555783D01*
X254433870Y-116597213D01*
X254167708Y-116692397D01*
X254042486Y-116759329D01*
X253970903Y-117003298D01*
X250820694Y-117003298D01*
X250698759Y-116881363D01*
X250463727Y-116724320D01*
X250202574Y-116616147D01*
X249925335Y-116561000D01*
X249642665Y-116561000D01*
X249365426Y-116616147D01*
X249104273Y-116724320D01*
X248869241Y-116881363D01*
X248829406Y-116921198D01*
X247113000Y-115204792D01*
X247113000Y-114554078D01*
X247247608Y-114443608D01*
X247426932Y-114225101D01*
X247498000Y-114092142D01*
X247569068Y-114225101D01*
X247748392Y-114443608D01*
X247966899Y-114622932D01*
X248216192Y-114756182D01*
X248486691Y-114838236D01*
X248697508Y-114859000D01*
X248838492Y-114859000D01*
X249049309Y-114838236D01*
X249319808Y-114756182D01*
X249569101Y-114622932D01*
X249787608Y-114443608D01*
X249966932Y-114225101D01*
X250038000Y-114092142D01*
X250109068Y-114225101D01*
X250288392Y-114443608D01*
X250506899Y-114622932D01*
X250756192Y-114756182D01*
X251026691Y-114838236D01*
X251237508Y-114859000D01*
X251378492Y-114859000D01*
X251589309Y-114838236D01*
X251859808Y-114756182D01*
X252109101Y-114622932D01*
X252327608Y-114443608D01*
X252506932Y-114225101D01*
X252640182Y-113975808D01*
X252722236Y-113705309D01*
X252749943Y-113424000D01*
X252732875Y-113250704D01*
X254214579Y-111769000D01*
X254745479Y-111769000D01*
X254765363Y-111798759D01*
X254965241Y-111998637D01*
X255200273Y-112155680D01*
X255461426Y-112263853D01*
X255738665Y-112319000D01*
X256021335Y-112319000D01*
X256056439Y-112312017D01*
X258116635Y-114372214D01*
X258103818Y-114396192D01*
X258021764Y-114666691D01*
X257994057Y-114948000D01*
X258021764Y-115229309D01*
X258103818Y-115499808D01*
X258237068Y-115749101D01*
X258416392Y-115967608D01*
X258634899Y-116146932D01*
X258884192Y-116280182D01*
X259154691Y-116362236D01*
X259365508Y-116383000D01*
X259506492Y-116383000D01*
X259717309Y-116362236D01*
X259987808Y-116280182D01*
X260237101Y-116146932D01*
X260455608Y-115967608D01*
X260634932Y-115749101D01*
X260768182Y-115499808D01*
X260850236Y-115229309D01*
X260877943Y-114948000D01*
X260850236Y-114666691D01*
X260768182Y-114396192D01*
X260634932Y-114146899D01*
X260455608Y-113928392D01*
X260237101Y-113749068D01*
X259987808Y-113615818D01*
X259809225Y-113561646D01*
X257308017Y-111060439D01*
X257315000Y-111025335D01*
X257315000Y-110742665D01*
X257259853Y-110465426D01*
X257151680Y-110204273D01*
X256994637Y-109969241D01*
X256794759Y-109769363D01*
X256594131Y-109635308D01*
X256621514Y-109620671D01*
X256693097Y-109376702D01*
X255880000Y-108563605D01*
X255066903Y-109376702D01*
X255138486Y-109620671D01*
X255167341Y-109634324D01*
X254965241Y-109769363D01*
X254765363Y-109969241D01*
X254745479Y-109999000D01*
X253891465Y-109999000D01*
X253847999Y-109994719D01*
X253804533Y-109999000D01*
X253804523Y-109999000D01*
X253674510Y-110011805D01*
X253507687Y-110062411D01*
X253353941Y-110144589D01*
X253353939Y-110144590D01*
X253353940Y-110144590D01*
X253252953Y-110227468D01*
X253252951Y-110227470D01*
X253219183Y-110255183D01*
X253191470Y-110288951D01*
X251481296Y-111999125D01*
X251378492Y-111989000D01*
X251237508Y-111989000D01*
X251026691Y-112009764D01*
X250756192Y-112091818D01*
X250506899Y-112225068D01*
X250288392Y-112404392D01*
X250109068Y-112622899D01*
X250038000Y-112755858D01*
X249966932Y-112622899D01*
X249787608Y-112404392D01*
X249569101Y-112225068D01*
X249319808Y-112091818D01*
X249049309Y-112009764D01*
X248838492Y-111989000D01*
X248697508Y-111989000D01*
X248486691Y-112009764D01*
X248216192Y-112091818D01*
X247966899Y-112225068D01*
X247748392Y-112404392D01*
X247569068Y-112622899D01*
X247498000Y-112755858D01*
X247426932Y-112622899D01*
X247247608Y-112404392D01*
X247029101Y-112225068D01*
X246779808Y-112091818D01*
X246509309Y-112009764D01*
X246298492Y-111989000D01*
X246157508Y-111989000D01*
X245946691Y-112009764D01*
X245676192Y-112091818D01*
X245426899Y-112225068D01*
X245208392Y-112404392D01*
X245029068Y-112622899D01*
X244958000Y-112755858D01*
X244886932Y-112622899D01*
X244707608Y-112404392D01*
X244489101Y-112225068D01*
X244239808Y-112091818D01*
X243969309Y-112009764D01*
X243758492Y-111989000D01*
X243617508Y-111989000D01*
X243406691Y-112009764D01*
X243136192Y-112091818D01*
X242886899Y-112225068D01*
X242668392Y-112404392D01*
X242489068Y-112622899D01*
X242355818Y-112872192D01*
X242336480Y-112935941D01*
X241537146Y-113735275D01*
X241546236Y-113705309D01*
X241573943Y-113424000D01*
X241546236Y-113142691D01*
X241464182Y-112872192D01*
X241330932Y-112622899D01*
X241151608Y-112404392D01*
X240933101Y-112225068D01*
X240683808Y-112091818D01*
X240413309Y-112009764D01*
X240202492Y-111989000D01*
X240061508Y-111989000D01*
X239850691Y-112009764D01*
X239580192Y-112091818D01*
X239330899Y-112225068D01*
X239112392Y-112404392D01*
X239001922Y-112539000D01*
X238722078Y-112539000D01*
X238611608Y-112404392D01*
X238393101Y-112225068D01*
X238143808Y-112091818D01*
X237873309Y-112009764D01*
X237662492Y-111989000D01*
X237521508Y-111989000D01*
X237310691Y-112009764D01*
X237040192Y-112091818D01*
X236790899Y-112225068D01*
X236572392Y-112404392D01*
X236393068Y-112622899D01*
X236322000Y-112755858D01*
X236250932Y-112622899D01*
X236071608Y-112404392D01*
X235853101Y-112225068D01*
X235603808Y-112091818D01*
X235333309Y-112009764D01*
X235122492Y-111989000D01*
X234981508Y-111989000D01*
X234770691Y-112009764D01*
X234500192Y-112091818D01*
X234250899Y-112225068D01*
X234032392Y-112404392D01*
X233939581Y-112517482D01*
X233937812Y-112499518D01*
X233901502Y-112379820D01*
X233842537Y-112269506D01*
X233763185Y-112172815D01*
X233666494Y-112093463D01*
X233556180Y-112034498D01*
X233436482Y-111998188D01*
X233397000Y-111994299D01*
X233397000Y-108454512D01*
X254439783Y-108454512D01*
X254481213Y-108734130D01*
X254576397Y-109000292D01*
X254643329Y-109125514D01*
X254887298Y-109197097D01*
X255700395Y-108384000D01*
X256059605Y-108384000D01*
X256872702Y-109197097D01*
X257116671Y-109125514D01*
X257237571Y-108870004D01*
X257306300Y-108595816D01*
X257320217Y-108313488D01*
X257278787Y-108033870D01*
X257183603Y-107767708D01*
X257116671Y-107642486D01*
X256872702Y-107570903D01*
X256059605Y-108384000D01*
X255700395Y-108384000D01*
X254887298Y-107570903D01*
X254643329Y-107642486D01*
X254522429Y-107897996D01*
X254453700Y-108172184D01*
X254439783Y-108454512D01*
X233397000Y-108454512D01*
X233397000Y-107862394D01*
X233421688Y-107875590D01*
X233495550Y-107897996D01*
X233588510Y-107926196D01*
X233603307Y-107927653D01*
X233718524Y-107939001D01*
X233718532Y-107939001D01*
X233762001Y-107943282D01*
X233805470Y-107939001D01*
X250014530Y-107939001D01*
X250057999Y-107943282D01*
X250101468Y-107939001D01*
X250101476Y-107939001D01*
X250231489Y-107926196D01*
X250398312Y-107875590D01*
X250552058Y-107793412D01*
X250686816Y-107682818D01*
X250714533Y-107649045D01*
X250972280Y-107391298D01*
X255066903Y-107391298D01*
X255880000Y-108204395D01*
X256693097Y-107391298D01*
X256621514Y-107147329D01*
X256366004Y-107026429D01*
X256091816Y-106957700D01*
X255809488Y-106943783D01*
X255529870Y-106985213D01*
X255263708Y-107080397D01*
X255138486Y-107147329D01*
X255066903Y-107391298D01*
X250972280Y-107391298D01*
X251121506Y-107242072D01*
X252108000Y-107242072D01*
X252232482Y-107229812D01*
X252352180Y-107193502D01*
X252462494Y-107134537D01*
X252559185Y-107055185D01*
X252638537Y-106958494D01*
X252697502Y-106848180D01*
X252733812Y-106728482D01*
X252746072Y-106604000D01*
X252746072Y-105617506D01*
X255230579Y-103133000D01*
X255681479Y-103133000D01*
X255701363Y-103162759D01*
X255901241Y-103362637D01*
X256136273Y-103519680D01*
X256397426Y-103627853D01*
X256674665Y-103683000D01*
X256957335Y-103683000D01*
X256992439Y-103676017D01*
X258001000Y-104684579D01*
X258001000Y-104929335D01*
X258056147Y-105206574D01*
X258164320Y-105467727D01*
X258321363Y-105702759D01*
X258521241Y-105902637D01*
X258756273Y-106059680D01*
X259017426Y-106167853D01*
X259294665Y-106223000D01*
X259577335Y-106223000D01*
X259854574Y-106167853D01*
X260115727Y-106059680D01*
X260350759Y-105902637D01*
X260550637Y-105702759D01*
X260707680Y-105467727D01*
X260815853Y-105206574D01*
X260871000Y-104929335D01*
X260871000Y-104646665D01*
X260815853Y-104369426D01*
X260707680Y-104108273D01*
X260550637Y-103873241D01*
X260350759Y-103673363D01*
X260115727Y-103516320D01*
X259854574Y-103408147D01*
X259577335Y-103353000D01*
X259294665Y-103353000D01*
X259192834Y-103373256D01*
X258244017Y-102424439D01*
X258251000Y-102389335D01*
X258251000Y-102106665D01*
X258195853Y-101829426D01*
X258087680Y-101568273D01*
X257930637Y-101333241D01*
X257730759Y-101133363D01*
X257495727Y-100976320D01*
X257234574Y-100868147D01*
X256957335Y-100813000D01*
X256674665Y-100813000D01*
X256397426Y-100868147D01*
X256136273Y-100976320D01*
X255901241Y-101133363D01*
X255701363Y-101333241D01*
X255681479Y-101363000D01*
X254907465Y-101363000D01*
X254863999Y-101358719D01*
X254820533Y-101363000D01*
X254820523Y-101363000D01*
X254690510Y-101375805D01*
X254523687Y-101426411D01*
X254369941Y-101508589D01*
X254369939Y-101508590D01*
X254369940Y-101508590D01*
X254268953Y-101591468D01*
X254268951Y-101591470D01*
X254235183Y-101619183D01*
X254207470Y-101652951D01*
X253189345Y-102671077D01*
X253242300Y-102459816D01*
X253256217Y-102177488D01*
X253214787Y-101897870D01*
X253119603Y-101631708D01*
X253052671Y-101506486D01*
X252808702Y-101434903D01*
X251995605Y-102248000D01*
X252009748Y-102262143D01*
X251830143Y-102441748D01*
X251816000Y-102427605D01*
X251002903Y-103240702D01*
X251074486Y-103484671D01*
X251329996Y-103605571D01*
X251604184Y-103674300D01*
X251886512Y-103688217D01*
X252166130Y-103646787D01*
X252240081Y-103620341D01*
X251494494Y-104365928D01*
X250508000Y-104365928D01*
X250383518Y-104378188D01*
X250263820Y-104414498D01*
X250153506Y-104473463D01*
X250056815Y-104552815D01*
X249977463Y-104649506D01*
X249918498Y-104759820D01*
X249882188Y-104879518D01*
X249879769Y-104904080D01*
X249731414Y-104740481D01*
X249505420Y-104572963D01*
X249251087Y-104452754D01*
X249117039Y-104412096D01*
X248895000Y-104534085D01*
X248895000Y-105677000D01*
X248915000Y-105677000D01*
X248915000Y-105931000D01*
X248895000Y-105931000D01*
X248895000Y-105951000D01*
X248641000Y-105951000D01*
X248641000Y-105931000D01*
X248621000Y-105931000D01*
X248621000Y-105677000D01*
X248641000Y-105677000D01*
X248641000Y-104534085D01*
X248418961Y-104412096D01*
X248284913Y-104452754D01*
X248030580Y-104572963D01*
X247804586Y-104740481D01*
X247615615Y-104948869D01*
X247500579Y-105140682D01*
X247426932Y-105002899D01*
X247247608Y-104784392D01*
X247029101Y-104605068D01*
X246779808Y-104471818D01*
X246509309Y-104389764D01*
X246298492Y-104369000D01*
X246157508Y-104369000D01*
X245946691Y-104389764D01*
X245676192Y-104471818D01*
X245426899Y-104605068D01*
X245208392Y-104784392D01*
X245029068Y-105002899D01*
X244958000Y-105135858D01*
X244886932Y-105002899D01*
X244707608Y-104784392D01*
X244489101Y-104605068D01*
X244239808Y-104471818D01*
X243969309Y-104389764D01*
X243758492Y-104369000D01*
X243617508Y-104369000D01*
X243406691Y-104389764D01*
X243136192Y-104471818D01*
X242886899Y-104605068D01*
X242668392Y-104784392D01*
X242489068Y-105002899D01*
X242355818Y-105252192D01*
X242273764Y-105522691D01*
X242246057Y-105804000D01*
X242273764Y-106085309D01*
X242299151Y-106169001D01*
X241520849Y-106169001D01*
X241546236Y-106085309D01*
X241573943Y-105804000D01*
X241546236Y-105522691D01*
X241464182Y-105252192D01*
X241330932Y-105002899D01*
X241151608Y-104784392D01*
X240933101Y-104605068D01*
X240860056Y-104566025D01*
X240856365Y-104528545D01*
X240814337Y-104389997D01*
X240746087Y-104262310D01*
X240654238Y-104150392D01*
X240626193Y-104127376D01*
X238817329Y-102318512D01*
X250375783Y-102318512D01*
X250417213Y-102598130D01*
X250512397Y-102864292D01*
X250579329Y-102989514D01*
X250823298Y-103061097D01*
X251636395Y-102248000D01*
X250823298Y-101434903D01*
X250579329Y-101506486D01*
X250458429Y-101761996D01*
X250389700Y-102036184D01*
X250375783Y-102318512D01*
X238817329Y-102318512D01*
X238195001Y-101696185D01*
X238195001Y-101255298D01*
X251002903Y-101255298D01*
X251816000Y-102068395D01*
X252629097Y-101255298D01*
X252557514Y-101011329D01*
X252302004Y-100890429D01*
X252027816Y-100821700D01*
X251745488Y-100807783D01*
X251465870Y-100849213D01*
X251199708Y-100944397D01*
X251074486Y-101011329D01*
X251002903Y-101255298D01*
X238195001Y-101255298D01*
X238195001Y-100094950D01*
X238345901Y-100166825D01*
X238493110Y-100211476D01*
X238723000Y-100090155D01*
X238723000Y-98897000D01*
X238703000Y-98897000D01*
X238703000Y-98643000D01*
X238723000Y-98643000D01*
X238723000Y-98623000D01*
X238977000Y-98623000D01*
X238977000Y-98643000D01*
X238997000Y-98643000D01*
X238997000Y-98897000D01*
X238977000Y-98897000D01*
X238977000Y-100090155D01*
X239206890Y-100211476D01*
X239354099Y-100166825D01*
X239616920Y-100041641D01*
X239850269Y-99867588D01*
X240045178Y-99651355D01*
X240114799Y-99534477D01*
X240149294Y-99599014D01*
X240334866Y-99825134D01*
X240560986Y-100010706D01*
X240818966Y-100148599D01*
X241098889Y-100233513D01*
X241317050Y-100255000D01*
X241462950Y-100255000D01*
X241681111Y-100233513D01*
X241961034Y-100148599D01*
X242219014Y-100010706D01*
X242445134Y-99825134D01*
X242630706Y-99599014D01*
X242660000Y-99544209D01*
X242689294Y-99599014D01*
X242874866Y-99825134D01*
X243100986Y-100010706D01*
X243358966Y-100148599D01*
X243638889Y-100233513D01*
X243857050Y-100255000D01*
X244002950Y-100255000D01*
X244221111Y-100233513D01*
X244501034Y-100148599D01*
X244759014Y-100010706D01*
X244985134Y-99825134D01*
X245170706Y-99599014D01*
X245200000Y-99544209D01*
X245229294Y-99599014D01*
X245414866Y-99825134D01*
X245640986Y-100010706D01*
X245898966Y-100148599D01*
X246178889Y-100233513D01*
X246397050Y-100255000D01*
X246542950Y-100255000D01*
X246761111Y-100233513D01*
X247041034Y-100148599D01*
X247299014Y-100010706D01*
X247525134Y-99825134D01*
X247710706Y-99599014D01*
X247740000Y-99544209D01*
X247769294Y-99599014D01*
X247954866Y-99825134D01*
X248180986Y-100010706D01*
X248438966Y-100148599D01*
X248718889Y-100233513D01*
X248937050Y-100255000D01*
X249082950Y-100255000D01*
X249301111Y-100233513D01*
X249581034Y-100148599D01*
X249839014Y-100010706D01*
X250065134Y-99825134D01*
X250250706Y-99599014D01*
X250280000Y-99544209D01*
X250309294Y-99599014D01*
X250494866Y-99825134D01*
X250720986Y-100010706D01*
X250978966Y-100148599D01*
X251258889Y-100233513D01*
X251477050Y-100255000D01*
X251622950Y-100255000D01*
X251841111Y-100233513D01*
X252121034Y-100148599D01*
X252379014Y-100010706D01*
X252605134Y-99825134D01*
X252790706Y-99599014D01*
X252820000Y-99544209D01*
X252849294Y-99599014D01*
X253034866Y-99825134D01*
X253260986Y-100010706D01*
X253518966Y-100148599D01*
X253798889Y-100233513D01*
X254017050Y-100255000D01*
X254162950Y-100255000D01*
X254381111Y-100233513D01*
X254661034Y-100148599D01*
X254919014Y-100010706D01*
X255145134Y-99825134D01*
X255330706Y-99599014D01*
X255365201Y-99534477D01*
X255434822Y-99651355D01*
X255629731Y-99867588D01*
X255863080Y-100041641D01*
X256125901Y-100166825D01*
X256273110Y-100211476D01*
X256503000Y-100090155D01*
X256503000Y-98897000D01*
X256757000Y-98897000D01*
X256757000Y-100090155D01*
X256986890Y-100211476D01*
X257134099Y-100166825D01*
X257396920Y-100041641D01*
X257630269Y-99867588D01*
X257825178Y-99651355D01*
X257974157Y-99401252D01*
X258071481Y-99126891D01*
X257950814Y-98897000D01*
X256757000Y-98897000D01*
X256503000Y-98897000D01*
X256483000Y-98897000D01*
X256483000Y-98643000D01*
X256503000Y-98643000D01*
X256503000Y-98623000D01*
X256757000Y-98623000D01*
X256757000Y-98643000D01*
X257950814Y-98643000D01*
X258071481Y-98413109D01*
X257974157Y-98138748D01*
X257825178Y-97888645D01*
X257630269Y-97672412D01*
X257401244Y-97501584D01*
X257459014Y-97470706D01*
X257661542Y-97304495D01*
X259515000Y-97304495D01*
X259515000Y-97695505D01*
X259591282Y-98079003D01*
X259740915Y-98440250D01*
X259958149Y-98765364D01*
X260234636Y-99041851D01*
X260559750Y-99259085D01*
X260920997Y-99408718D01*
X261304495Y-99485000D01*
X261695505Y-99485000D01*
X262079003Y-99408718D01*
X262440250Y-99259085D01*
X262765364Y-99041851D01*
X263041851Y-98765364D01*
X263259085Y-98440250D01*
X263408718Y-98079003D01*
X263485000Y-97695505D01*
X263485000Y-97304495D01*
X263408718Y-96920997D01*
X263259085Y-96559750D01*
X263041851Y-96234636D01*
X262765364Y-95958149D01*
X262440250Y-95740915D01*
X262079003Y-95591282D01*
X261695505Y-95515000D01*
X261304495Y-95515000D01*
X260920997Y-95591282D01*
X260559750Y-95740915D01*
X260234636Y-95958149D01*
X259958149Y-96234636D01*
X259740915Y-96559750D01*
X259591282Y-96920997D01*
X259515000Y-97304495D01*
X257661542Y-97304495D01*
X257685134Y-97285134D01*
X257870706Y-97059014D01*
X258008599Y-96801034D01*
X258093513Y-96521111D01*
X258122185Y-96230000D01*
X258093513Y-95938889D01*
X258008599Y-95658966D01*
X257870706Y-95400986D01*
X257685134Y-95174866D01*
X257459014Y-94989294D01*
X257201034Y-94851401D01*
X256921111Y-94766487D01*
X256702950Y-94745000D01*
X256557050Y-94745000D01*
X256338889Y-94766487D01*
X256058966Y-94851401D01*
X255800986Y-94989294D01*
X255574866Y-95174866D01*
X255389294Y-95400986D01*
X255360000Y-95455791D01*
X255330706Y-95400986D01*
X255145134Y-95174866D01*
X254919014Y-94989294D01*
X254661034Y-94851401D01*
X254381111Y-94766487D01*
X254162950Y-94745000D01*
X254017050Y-94745000D01*
X253798889Y-94766487D01*
X253518966Y-94851401D01*
X253260986Y-94989294D01*
X253034866Y-95174866D01*
X252849294Y-95400986D01*
X252820000Y-95455791D01*
X252790706Y-95400986D01*
X252605134Y-95174866D01*
X252379014Y-94989294D01*
X252121034Y-94851401D01*
X251841111Y-94766487D01*
X251622950Y-94745000D01*
X251477050Y-94745000D01*
X251258889Y-94766487D01*
X250978966Y-94851401D01*
X250720986Y-94989294D01*
X250494866Y-95174866D01*
X250309294Y-95400986D01*
X250274799Y-95465523D01*
X250205178Y-95348645D01*
X250010269Y-95132412D01*
X249776920Y-94958359D01*
X249514099Y-94833175D01*
X249366890Y-94788524D01*
X249137000Y-94909845D01*
X249137000Y-96103000D01*
X249157000Y-96103000D01*
X249157000Y-96357000D01*
X249137000Y-96357000D01*
X249137000Y-96377000D01*
X248883000Y-96377000D01*
X248883000Y-96357000D01*
X248863000Y-96357000D01*
X248863000Y-96103000D01*
X248883000Y-96103000D01*
X248883000Y-94909845D01*
X248653110Y-94788524D01*
X248505901Y-94833175D01*
X248243080Y-94958359D01*
X248009731Y-95132412D01*
X247814822Y-95348645D01*
X247745201Y-95465523D01*
X247710706Y-95400986D01*
X247525134Y-95174866D01*
X247299014Y-94989294D01*
X247041034Y-94851401D01*
X246761111Y-94766487D01*
X246542950Y-94745000D01*
X246397050Y-94745000D01*
X246178889Y-94766487D01*
X245898966Y-94851401D01*
X245640986Y-94989294D01*
X245414866Y-95174866D01*
X245229294Y-95400986D01*
X245194799Y-95465523D01*
X245125178Y-95348645D01*
X244930269Y-95132412D01*
X244696920Y-94958359D01*
X244434099Y-94833175D01*
X244286890Y-94788524D01*
X244057000Y-94909845D01*
X244057000Y-96103000D01*
X244077000Y-96103000D01*
X244077000Y-96357000D01*
X244057000Y-96357000D01*
X244057000Y-96377000D01*
X243803000Y-96377000D01*
X243803000Y-96357000D01*
X243783000Y-96357000D01*
X243783000Y-96103000D01*
X243803000Y-96103000D01*
X243803000Y-94909845D01*
X243573110Y-94788524D01*
X243425901Y-94833175D01*
X243163080Y-94958359D01*
X242929731Y-95132412D01*
X242734822Y-95348645D01*
X242665201Y-95465523D01*
X242630706Y-95400986D01*
X242445134Y-95174866D01*
X242219014Y-94989294D01*
X241961034Y-94851401D01*
X241681111Y-94766487D01*
X241462950Y-94745000D01*
X241317050Y-94745000D01*
X241098889Y-94766487D01*
X240818966Y-94851401D01*
X240560986Y-94989294D01*
X240334866Y-95174866D01*
X240149294Y-95400986D01*
X240120000Y-95455791D01*
X240090706Y-95400986D01*
X239905134Y-95174866D01*
X239679014Y-94989294D01*
X239421034Y-94851401D01*
X239141111Y-94766487D01*
X238922950Y-94745000D01*
X238777050Y-94745000D01*
X238558889Y-94766487D01*
X238278966Y-94851401D01*
X238020986Y-94989294D01*
X237794866Y-95174866D01*
X237609294Y-95400986D01*
X237580000Y-95455791D01*
X237550706Y-95400986D01*
X237365134Y-95174866D01*
X237139014Y-94989294D01*
X236881034Y-94851401D01*
X236601111Y-94766487D01*
X236382950Y-94745000D01*
X236237050Y-94745000D01*
X236018889Y-94766487D01*
X235738966Y-94851401D01*
X235480986Y-94989294D01*
X235254866Y-95174866D01*
X235069294Y-95400986D01*
X235040000Y-95455791D01*
X235010706Y-95400986D01*
X234825134Y-95174866D01*
X234599014Y-94989294D01*
X234341034Y-94851401D01*
X234061111Y-94766487D01*
X233842950Y-94745000D01*
X233697050Y-94745000D01*
X233478889Y-94766487D01*
X233198966Y-94851401D01*
X232940986Y-94989294D01*
X232714866Y-95174866D01*
X232529294Y-95400986D01*
X232494799Y-95465523D01*
X232425178Y-95348645D01*
X232230269Y-95132412D01*
X231996920Y-94958359D01*
X231734099Y-94833175D01*
X231586890Y-94788524D01*
X231357000Y-94909845D01*
X231357000Y-96103000D01*
X231377000Y-96103000D01*
X231377000Y-96357000D01*
X231357000Y-96357000D01*
X231357000Y-96377000D01*
X231103000Y-96377000D01*
X231103000Y-96357000D01*
X231083000Y-96357000D01*
X231083000Y-96103000D01*
X231103000Y-96103000D01*
X231103000Y-94909845D01*
X230873110Y-94788524D01*
X230725901Y-94833175D01*
X230463080Y-94958359D01*
X230229731Y-95132412D01*
X230034822Y-95348645D01*
X229965201Y-95465523D01*
X229930706Y-95400986D01*
X229745134Y-95174866D01*
X229519014Y-94989294D01*
X229261034Y-94851401D01*
X228981111Y-94766487D01*
X228762950Y-94745000D01*
X228617050Y-94745000D01*
X228398889Y-94766487D01*
X228118966Y-94851401D01*
X227860986Y-94989294D01*
X227634866Y-95174866D01*
X227449294Y-95400986D01*
X227420000Y-95455791D01*
X227390706Y-95400986D01*
X227205134Y-95174866D01*
X226979014Y-94989294D01*
X226721034Y-94851401D01*
X226441111Y-94766487D01*
X226222950Y-94745000D01*
X226077050Y-94745000D01*
X225858889Y-94766487D01*
X225578966Y-94851401D01*
X225320986Y-94989294D01*
X225094866Y-95174866D01*
X224909294Y-95400986D01*
X224874799Y-95465523D01*
X224805178Y-95348645D01*
X224610269Y-95132412D01*
X224376920Y-94958359D01*
X224114099Y-94833175D01*
X223966890Y-94788524D01*
X223737000Y-94909845D01*
X223737000Y-96103000D01*
X223757000Y-96103000D01*
X223757000Y-96357000D01*
X223737000Y-96357000D01*
X223737000Y-96377000D01*
X223483000Y-96377000D01*
X223483000Y-96357000D01*
X223463000Y-96357000D01*
X223463000Y-96103000D01*
X223483000Y-96103000D01*
X223483000Y-94909845D01*
X223253110Y-94788524D01*
X223105901Y-94833175D01*
X222843080Y-94958359D01*
X222609731Y-95132412D01*
X222414822Y-95348645D01*
X222345201Y-95465523D01*
X222310706Y-95400986D01*
X222125134Y-95174866D01*
X221899014Y-94989294D01*
X221641034Y-94851401D01*
X221361111Y-94766487D01*
X221142950Y-94745000D01*
X220997050Y-94745000D01*
X220778889Y-94766487D01*
X220498966Y-94851401D01*
X220240986Y-94989294D01*
X220014866Y-95174866D01*
X219829294Y-95400986D01*
X219800000Y-95455791D01*
X219770706Y-95400986D01*
X219585134Y-95174866D01*
X219359014Y-94989294D01*
X219101034Y-94851401D01*
X218821111Y-94766487D01*
X218602950Y-94745000D01*
X218457050Y-94745000D01*
X218238889Y-94766487D01*
X217958966Y-94851401D01*
X217700986Y-94989294D01*
X217474866Y-95174866D01*
X217289294Y-95400986D01*
X217260000Y-95455791D01*
X217230706Y-95400986D01*
X217045134Y-95174866D01*
X216819014Y-94989294D01*
X216561034Y-94851401D01*
X216281111Y-94766487D01*
X216062950Y-94745000D01*
X215917050Y-94745000D01*
X215698889Y-94766487D01*
X215418966Y-94851401D01*
X215160986Y-94989294D01*
X214934866Y-95174866D01*
X214749294Y-95400986D01*
X214714799Y-95465523D01*
X214645178Y-95348645D01*
X214450269Y-95132412D01*
X214216920Y-94958359D01*
X213954099Y-94833175D01*
X213806890Y-94788524D01*
X213577000Y-94909845D01*
X213577000Y-96103000D01*
X213597000Y-96103000D01*
X213597000Y-96357000D01*
X213577000Y-96357000D01*
X213577000Y-96377000D01*
X213323000Y-96377000D01*
X213323000Y-96357000D01*
X213303000Y-96357000D01*
X213303000Y-96103000D01*
X213323000Y-96103000D01*
X213323000Y-94909845D01*
X213093110Y-94788524D01*
X212945901Y-94833175D01*
X212683080Y-94958359D01*
X212449731Y-95132412D01*
X212254822Y-95348645D01*
X212185201Y-95465523D01*
X212150706Y-95400986D01*
X211965134Y-95174866D01*
X211739014Y-94989294D01*
X211481034Y-94851401D01*
X211201111Y-94766487D01*
X210982950Y-94745000D01*
X210837050Y-94745000D01*
X210618889Y-94766487D01*
X210338966Y-94851401D01*
X210080986Y-94989294D01*
X209854866Y-95174866D01*
X209669294Y-95400986D01*
X209640000Y-95455791D01*
X209610706Y-95400986D01*
X209425134Y-95174866D01*
X209199014Y-94989294D01*
X208941034Y-94851401D01*
X208661111Y-94766487D01*
X208442950Y-94745000D01*
X208297050Y-94745000D01*
X208078889Y-94766487D01*
X207798966Y-94851401D01*
X207540986Y-94989294D01*
X207314866Y-95174866D01*
X207129294Y-95400986D01*
X206991401Y-95658966D01*
X206906487Y-95938889D01*
X206877815Y-96230000D01*
X206899388Y-96449034D01*
X206474951Y-96873471D01*
X206441183Y-96901184D01*
X206413470Y-96934952D01*
X206413467Y-96934955D01*
X206330589Y-97035942D01*
X206248411Y-97189688D01*
X206197804Y-97356511D01*
X206180718Y-97530001D01*
X206185000Y-97573480D01*
X206184999Y-99936532D01*
X206180718Y-99980001D01*
X206184999Y-100023470D01*
X206184999Y-100023477D01*
X206197804Y-100153490D01*
X206248410Y-100320313D01*
X206330588Y-100474059D01*
X206441182Y-100608818D01*
X206474955Y-100636535D01*
X206503465Y-100665045D01*
X206531182Y-100698818D01*
X206665940Y-100809412D01*
X206819686Y-100891590D01*
X206986509Y-100942196D01*
X207116522Y-100955001D01*
X207116532Y-100955001D01*
X207159998Y-100959282D01*
X207203464Y-100955001D01*
X225484579Y-100955001D01*
X225391227Y-101048353D01*
X225272487Y-101226060D01*
X225190698Y-101423517D01*
X225149002Y-101633137D01*
X225149002Y-101846863D01*
X225190698Y-102056483D01*
X225272487Y-102253940D01*
X225391227Y-102431647D01*
X225542355Y-102582775D01*
X225720062Y-102701515D01*
X225917519Y-102783304D01*
X226052596Y-102810173D01*
X226253620Y-103011196D01*
X226122899Y-103081068D01*
X225904392Y-103260392D01*
X225725068Y-103478899D01*
X225591818Y-103728192D01*
X225509764Y-103998691D01*
X225482057Y-104280000D01*
X225499125Y-104453296D01*
X225001422Y-104951000D01*
X223112472Y-104951000D01*
X223176182Y-104831808D01*
X223258236Y-104561309D01*
X223285943Y-104280000D01*
X223258236Y-103998691D01*
X223176182Y-103728192D01*
X223042932Y-103478899D01*
X222863608Y-103260392D01*
X222645101Y-103081068D01*
X222395808Y-102947818D01*
X222125309Y-102865764D01*
X221914492Y-102845000D01*
X221773508Y-102845000D01*
X221675653Y-102854638D01*
X221672818Y-102851184D01*
X221538060Y-102740590D01*
X221384314Y-102658412D01*
X221217491Y-102607806D01*
X221087478Y-102595001D01*
X221087470Y-102595001D01*
X221044001Y-102590720D01*
X221000532Y-102595001D01*
X208863468Y-102595001D01*
X208819999Y-102590720D01*
X208776530Y-102595001D01*
X208776522Y-102595001D01*
X208646509Y-102607806D01*
X208479686Y-102658412D01*
X208355115Y-102724996D01*
X208325940Y-102740590D01*
X208224952Y-102823469D01*
X208224950Y-102823471D01*
X208191182Y-102851184D01*
X208163469Y-102884952D01*
X207108465Y-103939956D01*
X207054260Y-103910983D01*
X206764912Y-103823210D01*
X206464000Y-103793573D01*
X206163087Y-103823210D01*
X205873739Y-103910983D01*
X205607073Y-104053519D01*
X205373339Y-104245339D01*
X205181519Y-104479074D01*
X205038983Y-104745740D01*
X204951210Y-105035088D01*
X204929000Y-105260593D01*
X204929000Y-106070538D01*
X204811204Y-105989138D01*
X204534087Y-105869245D01*
X204428740Y-105844964D01*
X204191000Y-105965622D01*
X203937000Y-105965622D01*
X203699260Y-105844964D01*
X203593913Y-105869245D01*
X203316796Y-105989138D01*
X203068394Y-106160790D01*
X202858252Y-106377604D01*
X202694446Y-106631249D01*
X202583271Y-106911977D01*
X202529000Y-107209000D01*
X200685000Y-107209000D01*
X200685000Y-101740000D01*
X223391444Y-101740000D01*
X223405635Y-101884085D01*
X223447663Y-102022633D01*
X223515913Y-102150320D01*
X223607762Y-102262238D01*
X223719680Y-102354087D01*
X223847367Y-102422337D01*
X223985915Y-102464365D01*
X224093895Y-102475000D01*
X224166105Y-102475000D01*
X224274085Y-102464365D01*
X224412633Y-102422337D01*
X224540320Y-102354087D01*
X224652238Y-102262238D01*
X224744087Y-102150320D01*
X224812337Y-102022633D01*
X224854365Y-101884085D01*
X224868556Y-101740000D01*
X224854365Y-101595915D01*
X224812337Y-101457367D01*
X224744087Y-101329680D01*
X224652238Y-101217762D01*
X224540320Y-101125913D01*
X224412633Y-101057663D01*
X224274085Y-101015635D01*
X224166105Y-101005000D01*
X224093895Y-101005000D01*
X223985915Y-101015635D01*
X223847367Y-101057663D01*
X223719680Y-101125913D01*
X223607762Y-101217762D01*
X223515913Y-101329680D01*
X223447663Y-101457367D01*
X223405635Y-101595915D01*
X223391444Y-101740000D01*
X200685000Y-101740000D01*
X200685000Y-97304495D01*
X201515000Y-97304495D01*
X201515000Y-97695505D01*
X201591282Y-98079003D01*
X201740915Y-98440250D01*
X201958149Y-98765364D01*
X202234636Y-99041851D01*
X202559750Y-99259085D01*
X202920997Y-99408718D01*
X203304495Y-99485000D01*
X203695505Y-99485000D01*
X204079003Y-99408718D01*
X204440250Y-99259085D01*
X204765364Y-99041851D01*
X205041851Y-98765364D01*
X205259085Y-98440250D01*
X205408718Y-98079003D01*
X205485000Y-97695505D01*
X205485000Y-97304495D01*
X205408718Y-96920997D01*
X205259085Y-96559750D01*
X205041851Y-96234636D01*
X204765364Y-95958149D01*
X204440250Y-95740915D01*
X204079003Y-95591282D01*
X203695505Y-95515000D01*
X203304495Y-95515000D01*
X202920997Y-95591282D01*
X202559750Y-95740915D01*
X202234636Y-95958149D01*
X201958149Y-96234636D01*
X201740915Y-96559750D01*
X201591282Y-96920997D01*
X201515000Y-97304495D01*
X200685000Y-97304495D01*
X200685000Y-97033505D01*
X200732312Y-96550984D01*
X200862714Y-96119070D01*
X201074524Y-95720715D01*
X201359675Y-95371086D01*
X201707303Y-95083503D01*
X202104177Y-94868914D01*
X202535161Y-94735502D01*
X203015654Y-94685000D01*
X261966495Y-94685000D01*
X262449016Y-94732312D01*
G36*
X218657000Y-98643000D02*
G01*
X218677000Y-98643000D01*
X218677000Y-98897000D01*
X218657000Y-98897000D01*
X218657000Y-98917000D01*
X218403000Y-98917000D01*
X218403000Y-98897000D01*
X218383000Y-98897000D01*
X218383000Y-98643000D01*
X218403000Y-98643000D01*
X218403000Y-98623000D01*
X218657000Y-98623000D01*
X218657000Y-98643000D01*
X218657000Y-98643000D01*
G37*
X218657000Y-98643000D02*
X218677000Y-98643000D01*
X218677000Y-98897000D01*
X218657000Y-98897000D01*
X218657000Y-98917000D01*
X218403000Y-98917000D01*
X218403000Y-98897000D01*
X218383000Y-98897000D01*
X218383000Y-98643000D01*
X218403000Y-98643000D01*
X218403000Y-98623000D01*
X218657000Y-98623000D01*
X218657000Y-98643000D01*
M02*
