G04 #@! TF.GenerationSoftware,KiCad,Pcbnew,(5.1.4)-1*
G04 #@! TF.CreationDate,2019-11-05T17:04:05-05:00*
G04 #@! TF.ProjectId,graphic_equalizer_expansion_pi,67726170-6869-4635-9f65-7175616c697a,rev?*
G04 #@! TF.SameCoordinates,Original*
G04 #@! TF.FileFunction,Soldermask,Top*
G04 #@! TF.FilePolarity,Negative*
%FSLAX46Y46*%
G04 Gerber Fmt 4.6, Leading zero omitted, Abs format (unit mm)*
G04 Created by KiCad (PCBNEW (5.1.4)-1) date 2019-11-05 17:04:05*
%MOMM*%
%LPD*%
G04 APERTURE LIST*
%ADD10C,1.600000*%
%ADD11O,2.000000X3.500000*%
%ADD12O,3.300000X2.000000*%
%ADD13R,4.000000X2.000000*%
%ADD14O,1.800000X2.800000*%
%ADD15O,1.600000X1.600000*%
%ADD16R,1.600000X1.600000*%
%ADD17C,2.700000*%
%ADD18C,0.150000*%
%ADD19R,1.700000X1.700000*%
%ADD20O,1.700000X1.700000*%
G04 APERTURE END LIST*
D10*
X215240000Y-146300000D03*
D11*
X219740000Y-144300000D03*
X210740000Y-144300000D03*
D12*
X215240000Y-143300000D03*
D13*
X215240000Y-137300000D03*
D14*
X211964000Y-105836000D03*
X206464000Y-105836000D03*
X204064000Y-107836000D03*
D15*
X221590000Y-123330000D03*
X236830000Y-130950000D03*
X224130000Y-123330000D03*
X234290000Y-130950000D03*
X226670000Y-123330000D03*
X231750000Y-130950000D03*
X229210000Y-123330000D03*
X229210000Y-130950000D03*
X231750000Y-123330000D03*
X226670000Y-130950000D03*
X234290000Y-123330000D03*
X224130000Y-130950000D03*
X236830000Y-123330000D03*
D16*
X221590000Y-130950000D03*
D17*
X228910000Y-144920000D03*
X232870000Y-144920000D03*
D18*
G36*
X237954503Y-143571204D02*
G01*
X237978772Y-143574804D01*
X238002570Y-143580765D01*
X238025670Y-143589030D01*
X238047849Y-143599520D01*
X238068892Y-143612133D01*
X238088598Y-143626748D01*
X238106776Y-143643224D01*
X238123252Y-143661402D01*
X238137867Y-143681108D01*
X238150480Y-143702151D01*
X238160970Y-143724330D01*
X238169235Y-143747430D01*
X238175196Y-143771228D01*
X238178796Y-143795497D01*
X238180000Y-143820001D01*
X238180000Y-146019999D01*
X238178796Y-146044503D01*
X238175196Y-146068772D01*
X238169235Y-146092570D01*
X238160970Y-146115670D01*
X238150480Y-146137849D01*
X238137867Y-146158892D01*
X238123252Y-146178598D01*
X238106776Y-146196776D01*
X238088598Y-146213252D01*
X238068892Y-146227867D01*
X238047849Y-146240480D01*
X238025670Y-146250970D01*
X238002570Y-146259235D01*
X237978772Y-146265196D01*
X237954503Y-146268796D01*
X237929999Y-146270000D01*
X235730001Y-146270000D01*
X235705497Y-146268796D01*
X235681228Y-146265196D01*
X235657430Y-146259235D01*
X235634330Y-146250970D01*
X235612151Y-146240480D01*
X235591108Y-146227867D01*
X235571402Y-146213252D01*
X235553224Y-146196776D01*
X235536748Y-146178598D01*
X235522133Y-146158892D01*
X235509520Y-146137849D01*
X235499030Y-146115670D01*
X235490765Y-146092570D01*
X235484804Y-146068772D01*
X235481204Y-146044503D01*
X235480000Y-146019999D01*
X235480000Y-143820001D01*
X235481204Y-143795497D01*
X235484804Y-143771228D01*
X235490765Y-143747430D01*
X235499030Y-143724330D01*
X235509520Y-143702151D01*
X235522133Y-143681108D01*
X235536748Y-143661402D01*
X235553224Y-143643224D01*
X235571402Y-143626748D01*
X235591108Y-143612133D01*
X235612151Y-143599520D01*
X235634330Y-143589030D01*
X235657430Y-143580765D01*
X235681228Y-143574804D01*
X235705497Y-143571204D01*
X235730001Y-143570000D01*
X237929999Y-143570000D01*
X237954503Y-143571204D01*
X237954503Y-143571204D01*
G37*
D17*
X236830000Y-144920000D03*
D15*
X232512000Y-105804000D03*
X240132000Y-113424000D03*
X235052000Y-105804000D03*
X237592000Y-113424000D03*
X237592000Y-105804000D03*
X235052000Y-113424000D03*
X240132000Y-105804000D03*
D16*
X232512000Y-113424000D03*
D15*
X251308000Y-113424000D03*
X243688000Y-105804000D03*
X248768000Y-113424000D03*
X246228000Y-105804000D03*
X246228000Y-113424000D03*
X248768000Y-105804000D03*
X243688000Y-113424000D03*
D16*
X251308000Y-105804000D03*
D15*
X259436000Y-114948000D03*
D10*
X259436000Y-104788000D03*
D15*
X221844000Y-104280000D03*
D10*
X221844000Y-114440000D03*
D15*
X226924000Y-104280000D03*
D10*
X226924000Y-114440000D03*
X254784000Y-117996000D03*
X249784000Y-117996000D03*
X238528000Y-117996000D03*
X233528000Y-117996000D03*
X255880000Y-108384000D03*
X255880000Y-110884000D03*
X256816000Y-102248000D03*
X251816000Y-102248000D03*
D19*
X208370000Y-98770000D03*
D20*
X208370000Y-96230000D03*
X210910000Y-98770000D03*
X210910000Y-96230000D03*
X213450000Y-98770000D03*
X213450000Y-96230000D03*
X215990000Y-98770000D03*
X215990000Y-96230000D03*
X218530000Y-98770000D03*
X218530000Y-96230000D03*
X221070000Y-98770000D03*
X221070000Y-96230000D03*
X223610000Y-98770000D03*
X223610000Y-96230000D03*
X226150000Y-98770000D03*
X226150000Y-96230000D03*
X228690000Y-98770000D03*
X228690000Y-96230000D03*
X231230000Y-98770000D03*
X231230000Y-96230000D03*
X233770000Y-98770000D03*
X233770000Y-96230000D03*
X236310000Y-98770000D03*
X236310000Y-96230000D03*
X238850000Y-98770000D03*
X238850000Y-96230000D03*
X241390000Y-98770000D03*
X241390000Y-96230000D03*
X243930000Y-98770000D03*
X243930000Y-96230000D03*
X246470000Y-98770000D03*
X246470000Y-96230000D03*
X249010000Y-98770000D03*
X249010000Y-96230000D03*
X251550000Y-98770000D03*
X251550000Y-96230000D03*
X254090000Y-98770000D03*
X254090000Y-96230000D03*
X256630000Y-98770000D03*
X256630000Y-96230000D03*
D17*
X261500000Y-146500000D03*
X203500000Y-146500000D03*
X261500000Y-97500000D03*
X203500000Y-97500000D03*
M02*
